<svg xmlns="http://www.w3.org/2000/svg" viewBox="0 0 280.26 158.99"><defs><style>.cls-1{fill:#e2c270;}.cls-1,.cls-4,.cls-5,.cls-6{stroke:#000;}.cls-1,.cls-3,.cls-4,.cls-5,.cls-6{stroke-linecap:round;stroke-miterlimit:10;}.cls-1,.cls-3{stroke-width:3px;}.cls-2,.cls-6{fill:#93baec;}.cls-3,.cls-4,.cls-5{fill:none;}.cls-3{stroke:#f2ddaa;}.cls-4{stroke-width:4px;}.cls-5,.cls-6{stroke-width:2px;}</style></defs><g id="Layer_2" data-name="Layer 2"><g id="Layer_1-2" data-name="Layer 1"><path class="cls-1" d="M110.07,2.86H65.68a2.74,2.74,0,0,0-2.65,2L23.64,152.27a2.74,2.74,0,0,0,2.65,3.44H54.66a2.73,2.73,0,0,0,2.64-2L76.65,80.14a2.74,2.74,0,0,1,5.38.94l-5.69,73.15c-.14,1.6,1.8,2.55,3.4,2.55h23.83c1.47,0,1.74-2.63,1.81-4.09l7.43-147A2.74,2.74,0,0,0,110.07,2.86ZM82,52c-6.45,0-6.43-10,0-10S88.43,52,82,52Z"/><path class="cls-2" d="M109.49,4.34H88.81V30.19c5.36,2.56,10.61,9,11.24,14.55,1,8.28-3.52,13.75-10,18.14a5.06,5.06,0,0,1-1.25.63V157l14.76-.21L111.05,5.67C111.1,4.48,110.68,4.38,109.49,4.34Z"/><polyline class="cls-3" points="95.02 5.84 109.49 5.84 108.47 33.2"/><path class="cls-3" d="M71.28,44.73c-.73,4.92,2,12.53,10.93,13.83"/><path class="cls-3" d="M65.74,6.1,26.58,152.82a.06.06,0,0,0,.06.08H38.47"/><line class="cls-4" x1="2" y1="156.99" x2="122.19" y2="156.99"/><path class="cls-1" d="M172.94,4.87l5.91,147.48a2.19,2.19,0,0,0,2.18,2.09h10.15a2,2,0,0,0,2-2.05l-3.3-80a.62.62,0,0,1,1.23-.14l15.75,79.92a2.81,2.81,0,0,0,2.75,2.26h8a2.71,2.71,0,0,0,2.7-2.47l7.24-81.83a.28.28,0,0,1,.55,0c2.12,13.63,13,85.92,13.86,85.81,1.47-.2,11-.44,16.26-.44,1.76,0,3-2.47,2.7-4L234.3,5.68a3.17,3.17,0,0,0-3.12-2.61h-8.61A3.62,3.62,0,0,0,219,6.36l-8.38,94.2L194.22,4.27a3.34,3.34,0,0,0-3.28-2.77H176.18A3.24,3.24,0,0,0,172.94,4.87Z"/><line class="cls-4" x1="164.79" y1="155.93" x2="278.26" y2="155.93"/><path class="cls-5" d="M94,10.22h8.21a2.26,2.26,0,0,1,2.26,2.35l-.65,17.61"/><path class="cls-5" d="M67.23,46.82c-.89,6.24,6.27,17.7,15,15.46"/><path class="cls-5" d="M45.44,101.77l-11.81,43.4a2.3,2.3,0,0,0,2.22,2.9h8.91"/><path class="cls-5" d="M102.26,109.44c-.11.71-1.94,29.46-2.43,37.34a2.12,2.12,0,0,1-2.12,2H91.15"/><path class="cls-2" d="M188.68,4.69l26,145.94a2,2,0,0,1-1.95,2.34l-3,0a1.44,1.44,0,0,1-1.41-1.16L192.45,72.65a2,2,0,0,0-2.12-1.6h0a2,2,0,0,0-1.83,2.07l3.12,79.28a.94.94,0,0,1-.93,1l-9.25.07a1,1,0,0,1-1.06-1L174.48,5.11a2,2,0,0,1,2-2.07h10.24A2,2,0,0,1,188.68,4.69Z"/><path class="cls-6" d="M186.45,8.78h-3.26a2.61,2.61,0,0,0-2.61,2.61l.7,20"/><path class="cls-3" d="M185.49,4.19h-8.3a1.54,1.54,0,0,0-1.53,1.6l1.21,27.41"/><path class="cls-3" d="M231.74,6.52l26.42,145.32a.6.6,0,0,1-.6.71h-8.19"/><path class="cls-5" d="M248.05,108l7.79,41.58a.85.85,0,0,1-.84,1h-4.33"/><line class="cls-5" x1="181.11" y1="109.44" x2="183.02" y2="149.71"/></g></g></svg>