
<svg version="1.1" id="Layer_1" xmlns="http://www.w3.org/2000/svg" xmlns:xlink="http://www.w3.org/1999/xlink" x="0px" y="0px"
	 viewBox="0 0 71.8 71.8" style="enable-background:new 0 0 71.8 71.8;" xml:space="preserve">
<g>
	<path d="M67.8,17.1c-0.1,0.7-0.2,1.5-0.2,2.2c0,1,0.1,2,0.3,3c0.2,1.3,0,2.5-0.3,3.7c-0.2,0.9-0.1,2-0.1,2.9c0,1.3,0,2.7,0,4
		c0,0.8,0,1.6-0.2,2.4c-0.3,1.3-0.1,2.6-0.2,3.9c-0.1,1.3,0.1,2.6,0.1,3.9c0,1.6,0.1,3.2,0,4.8c0,0.7-0.2,1.5-0.3,2.2
		c0,0.3,0,0.7,0.2,1c0.4,0.7,0.4,1.1-0.3,1.6c-0.1,0.1-0.2,0.3-0.3,0.5c-0.2,0.4-0.2,0.9-0.5,1.3c-0.5,0.8-1,1.6-1.5,2.3
		c-0.1,0.2-0.3,0.4-0.5,0.5c-0.9,0.6-1.9,1.2-2.9,1.8c-1.5,0.9-3.1,1.8-4.6,2.8c-0.8,0.5-1.4,1.1-2.2,1.7c-0.8,0.6-1.6,1.1-2.5,1.6
		c-0.5,0.3-1.1,0.6-1.7,0.9c-0.6,0.3-1.1,0.5-1.8,0.3c-0.2-0.1-0.4,0-0.6,0c-2.3,0.6-4.6,0.9-7,0.8c-1-0.1-2,0.1-3,0.1
		c-1.1,0-2.3-0.1-3.4-0.1c-1.5-0.1-3-0.2-4.5-0.3c-1.6-0.1-3.3-0.1-4.9-0.1c-1.8-0.1-3.6-0.3-5.5-0.3c-1.9,0-3.7-0.3-5.6-0.7
		c-0.9-0.2-1.8-0.6-2.8-0.8c-0.6-0.1-1.2-0.1-1.8-0.1c-0.9-0.1-1.6-0.7-2.3-1.3c-0.9-0.7-1.8-1.4-2.6-2.1c-0.4-0.4-0.7-1.1-0.9-1.6
		c-0.3-1.1-0.4-2.2-0.6-3.3c-0.1-0.7-0.2-1.4-0.2-2.1c0-1.6,0-3.1-0.1-4.7c0-1.6,0-3.1-0.1-4.7c-0.1-1.3-0.2-2.5-0.3-3.8
		c0-0.8,0.1-1.6,0.2-2.4c0-0.9,0.1-1.8,0.1-2.7c0-1.4,0-2.9-0.1-4.3c-0.1-1.3-0.4-2.6-0.4-3.9c0-1.8,0.1-3.6,0.2-5.4
		c0.1-1.6,0.4-3.2,0.7-4.8C3.4,16.2,4,15.1,4.9,14c0.8-1,1.7-1.9,2.8-2.6c1.2-0.8,2.4-1.5,3.6-2.2c2-1.1,4.1-2.3,6.1-3.4
		c1.2-0.6,2.4-1.3,3.7-1.8c0.6-0.3,1.4-0.2,2.1-0.3c1.1-0.1,2.2-0.3,3.4-0.4c1.9-0.1,3.8-0.2,5.7-0.2c2,0,4,0.1,6,0.2
		c0.7,0,1.4,0.3,2.1,0.3c1.2,0,2.4,0,3.6,0c1.2,0,2.3,0.1,3.5,0.1c1.3,0,2.7,0,4,0c1.1,0,2.2,0.2,3.3,0.3c1.3,0.2,2.6,0.4,3.9,0.7
		c0.3,0,0.5,0,0.8,0c1.1,0,2.1,0.3,3,1c0.6,0.5,1.2,1,1.8,1.5c1,0.8,1.5,2,1.9,3.2c0.2,0.5,0.4,1,0.5,1.5c0.2,0.5,0.4,1,0.5,1.6
		C67.5,14.6,67.7,15.8,67.8,17.1z M17.9,23.4c0,0.3,0.1,0.6,0.1,0.9c0,0.8-0.1,1.7-0.1,2.5c0,1,0.1,1.9,0,2.9c-0.1,1-0.2,2-0.2,3
		c-0.1,1.9,0,3.7,0.1,5.6c0.1,1.3,0.1,2.6,0.2,3.9c0,0.9,0,1.7,0,2.6c0,0.7,0,1.5,0.1,2.2c0.1,1.1,0.5,2.3,0.5,3.4
		c0.1,1.2,0.6,2.1,1.8,2.4c0.6,0.2,1.2,0.4,1.9,0.5c1.2,0.3,2.3,0.6,3.5,0.8c1.2,0.2,2.4,0.3,3.6,0.4c0.1,0,0.2,0,0.3,0
		c1-0.1,2-0.3,3.1-0.4c0.6,0,1.1,0.2,1.7,0.2c1,0,2-0.1,3,0c1.3,0,2.7,0.1,4,0.2c0.7,0,1.3,0.1,2,0.1c1.6,0.1,3.2,0.1,4.9,0.2
		c0.7,0,1.4,0.2,2.1,0.3c0.3,0,0.6,0.1,0.9,0.1c0.7,0,1.3-0.1,2-0.1c0.6,0,1.2,0.1,1.8,0.1c0.8,0,1.6-0.2,2.3-0.2
		c1.5,0.1,2.9-0.3,4.3-0.6c0.3-0.1,0.6-0.3,0.8-0.6c0.7-0.9,1.1-1.9,1.1-3c0.1-1,0.2-1.9,0.3-2.9c0.1-0.8,0.1-1.6,0.1-2.4
		c0-1-0.4-2.1,0.2-3.1c0.1-0.1,0-0.3-0.1-0.4c-0.1-0.3-0.2-0.5-0.2-0.8c0-0.6,0.1-1.2,0-1.8c0-0.5-0.2-0.9-0.2-1.4
		c0-0.3,0-0.7,0-1.1c0.1-0.5,0.2-1,0.3-1.6c0-0.6-0.1-1.2,0-1.7c0.2-1.5,0.2-3.1,0.2-4.6c0-0.5-0.1-1,0-1.5c0.2-1.2,0.4-2.5,0.5-3.7
		c0.1-0.4,0.1-0.9,0-1.3c-0.2-0.5-0.3-1-0.3-1.5c0.1-0.9,0.1-1.7,0.1-2.6c0-0.5-0.1-1.1-0.1-1.6c0-0.3,0.1-0.6,0.1-0.8
		c-0.3-1.8-0.7-3.6-1.5-5.2c-0.2-0.4-0.5-0.7-0.8-1c-0.4-0.4-0.9-0.7-1.1-1.1c-0.3-0.5-0.7-0.7-1.2-0.7C59.2,8,58.7,8,58.1,7.9
		c-0.9-0.1-1.9-0.2-2.8-0.3c-0.9-0.1-1.8-0.3-2.8-0.4C51,7.2,49.6,7.1,48.1,7c-1.6,0-3.2,0.1-4.9,0.1c-0.4,0-0.9,0-1.3,0
		c-0.9,0-1.8-0.1-2.7-0.1c-0.7,0-1.4-0.1-2-0.2c-0.5-0.1-1-0.3-1.5-0.4c-0.8,0-1.6,0.1-2.4,0.1c-1.3,0-2.5,0-3.8,0
		c-0.6,0-1.2,0-1.8,0C26.8,6.7,26,7,25.1,7.1c-1.6,0.1-2.9,0.7-4,1.7c-0.9,0.9-1.7,2-2,3.4c-0.2,0.8-0.2,1.7-0.4,2.6
		c-0.1,0.4-0.2,0.8-0.3,1.1c0,0.4,0.1,0.7,0,1.1c0,0.4-0.1,0.8-0.1,1.1c0,0.2,0.1,0.4,0.1,0.5c-0.1,0.5-0.3,0.9-0.2,1.5
		c0.1,0.7-0.1,1.4-0.1,2.1C18.2,22.7,18.4,23.2,17.9,23.4z M14.1,22c-0.1,0.1-0.2,0.2-0.2,0.3c-0.2,1.2-1.1,1.3-2,1.3
		c-0.5,0-1.1,0.1-1.6,0.1c-0.5,0-0.7-0.3-0.5-0.8c0.1-0.2,0.2-0.4,0.4-0.6c1.1-0.9,2.2-1.5,3.5-2c1-0.4,1.1-0.6,1-1.6
		c0-0.4-0.2-0.6-0.6-0.4c-1.5,0.6-3,1.3-4.5,2c-1.2,0.5-2.3,1.1-3.5,1.6c-0.2,0.1-0.5,0.1-0.8,0c-0.5-0.1-0.6-0.4-0.2-0.8
		c0.3-0.2,0.6-0.4,0.9-0.6c0.7-0.5,1.5-1.1,2.3-1.5c1-0.5,1.9-1,2.9-1.5c1-0.4,1.9-0.8,3-1.1c0.4-0.1,0.6-0.2,0.7-0.6
		c0.1-0.5,0.2-1,0.4-1.5c0,0,0-0.1,0-0.1c-0.3-1.1,0.1-2.1,0.2-3.1c0,0,0-0.1-0.1-0.1c-0.1,0.1-0.2,0.1-0.3,0.1
		c-0.1-0.2-0.1-0.6-0.3-0.6c-0.2-0.1-0.5,0-0.7,0.1c-1.5,0.9-3,1.8-4.5,2.8c-0.4,0.3-0.8,0.7-1.3,0.9c-1.2,0.6-2.1,1.5-2.5,2.8
		c-0.1,0.3-0.2,0.6-0.3,0.9c-0.2,0.7-0.6,1.3-0.7,2c-0.2,0.9-0.2,1.8-0.3,2.7c0,2.1,0,4.3,0,6.4c0,1.3,0.2,2.6,0.2,3.9
		c0,0.7-0.2,1.5-0.1,2.2c0,1.8,0.1,3.6,0.2,5.4C5,44.4,5,48.2,5.2,52c0.1,2.4,0.2,4.9,1,7.2c0.3,0.7,0.8,1.4,1.4,1.9
		c0.8,0.7,1.8,1.1,2.9,1.3c0.6,0.1,1.1,0.4,1.6,0.5c1.2,0.3,2.4,0.6,3.6,0.9c0.6,0.1,1.1,0.3,1.7,0.4c1.1,0.1,2.2,0.2,3.4,0.3
		c0.9,0.1,1.9,0.1,2.8,0.1c1.9,0,3.7-0.1,5.6-0.1c0.4,0,0.5-0.1,0.7-0.4c0.8-1.5,2.1-2.7,3.5-3.6c0.3-0.2,0.9-0.1,1.3,0.1
		c0.4,0.3,0.1,0.7-0.2,1c-0.6,0.6-1.2,1.2-1.8,1.8c-0.4,0.4-0.7,0.8-1,1.2c0,0.1,0.1,0.1,0.1,0.2c1.3,0,2.7,0,4,0
		c1.5,0.1,3,0.2,4.5,0c1.7-0.3,3.5-0.5,5.2-0.6c2.4-0.2,4.5-1,6.5-2.2c1.5-0.8,2.9-1.7,4.3-2.6c0.2-0.1,0.4-0.3,0.7-0.6
		c-0.3,0-0.4-0.1-0.5-0.1c-0.9,0-1.9,0.1-2.8,0.1c-1.5,0-2.9-0.1-4.4-0.2c-0.2,0-0.5,0.2-0.6,0.3c-0.5,0.7-0.8,1.5-1.3,2.2
		c-0.4,0.5-0.8,0.9-1.3,1.2c-0.4,0.3-0.8,0-0.8-0.5c0-0.3,0.1-0.7,0.3-1c0.3-0.6,0.7-1.1,1.1-1.6c0.1-0.2,0.2-0.4,0.3-0.7
		c-0.2-0.1-0.5-0.2-0.7-0.2c-1.2-0.1-2.5-0.1-3.7-0.1c-0.1,0-0.3,0.1-0.3,0.2c-0.5,0.8-0.9,1.7-1.5,2.5c-0.7,0.9-1.5,1.8-2.3,2.7
		c-0.4,0.4-0.9,0.5-1.3,0.1c-0.4-0.4-0.3-0.9,0-1.3c0.1-0.1,0.2-0.2,0.3-0.3c0.5-0.6,1.1-1.2,1.6-1.8c0.6-0.7,1.1-1.4,1.6-2.1
		c0-0.1-0.1-0.1-0.1-0.2c-0.7,0-1.5-0.2-2.2,0c-1.3,0.3-2.5-0.2-3.7,0c-0.6,0.1-1.2,0.1-1.8,0.1c-0.8,0-1.7,0-2.5,0
		c-0.8,0-1.5,0-2.3,0c-0.5,0-1,0-1.5-0.1c-0.9-0.1-1.8-0.2-2.7-0.3c-0.7-0.1-1.3-0.4-1.9-0.6c-1.1-0.4-2.3-0.6-3.3-1.1
		c-1.6-0.7-2.7-2-3-3.7c-0.3-1.4-0.3-2.8-0.5-4.2c-0.1-1-0.3-2.1-0.4-3.1c0-0.4-0.1-0.8-0.1-1.2c0.3-1.8,0.3-3.6,0-5.3
		c0-0.3-0.1-0.6-0.2-0.8c-1.3,0.3-2.6,0.7-3.8,1c-1,0.3-2,0.5-3.1,0.7c-0.5,0.1-1-0.3-1.1-0.7c-0.1-0.5,0.4-0.6,0.7-0.8
		c0.1-0.1,0.2-0.1,0.3-0.1c2-0.6,4.1-1.1,6.1-1.7c0.3-0.1,0.6-0.3,0.7-0.5c0.1-0.5,0.1-1.1,0.1-1.7c0-0.4-0.1-0.8-0.1-1.2
		c0.1-0.8,0.2-1.6,0.3-2.4c0-0.1,0.1-0.2,0-0.3c-0.5-0.8,0-1.6,0-2.4c0-0.7-0.1-1.4-0.1-2.1c0-0.8,0.1-1.6,0.3-2.3
		C14.7,22.3,14.6,22.1,14.1,22z"/>
	<path d="M32.5,46.7c-0.2-0.2-0.4-0.3-0.6-0.6c-0.6-1.1-1.4-2-2.3-2.8c-0.5-0.5-1.1-1-1.4-1.7c-0.4-0.8-1.1-1.4-0.9-2.4
		c-0.8-1.2-0.3-2.6-0.4-3.9c0-0.9,0.3-1.8,0.4-2.7c0-0.3-0.1-0.7,0-1c0.1-0.7,0.1-1.4,0.3-2.1c0.2-0.7,0.4-1.4,0.8-2
		c0.5-0.9,1.1-1.8,1.6-2.7c0.3-0.4,0.5-0.9,0.8-1.2c0.4-0.4,0.9-0.7,1.3-1c1.1-0.9,2.5-1.2,3.9-1.5c0.4-0.1,0.7,0.1,1.1,0.1
		c0.3,0,0.7-0.1,0.8-0.2c0.3-0.8,1.1-0.7,1.6-0.7c1.1-0.1,2.2-0.1,3.3-0.1c0,0,0,0,0.1,0c2.2,0.6,4.6,0.4,6.6,1.6
		c0.6,0.4,1.2,0.9,1.8,1.4c0.3,0.3,0.6,0.7,1,1c0.9,0.8,1.2,1.8,1.5,2.9c0.3,1,0.6,2,0.8,3c0.2,0.9,0.4,2,0.2,2.9
		c-0.3,1.3-0.2,2.5-0.3,3.7c-0.1,0.9-0.2,1.8-0.7,2.5c-0.4,0.7-0.3,1.4-0.7,2.1c-0.4,0.7-0.7,1.4-1.1,2.1c-0.2,0.4-0.5,0.7-0.8,1
		c-0.8,1.3-2.1,2.1-3.2,2.9c-0.1,0.1-0.3,0.2-0.4,0.2c-0.7-0.1-1.1,0.4-1.6,0.8c-0.1,0.1-0.2,0.1-0.3,0.2c-0.7,0.2-1.5,0.4-2.2,0.5
		c-0.7,0.1-1.4,0-2.1,0c-0.4,0-0.7,0-1.1,0c-1.4,0.1-2.7-0.3-4.1-0.7c-1-0.3-2.1-0.7-3.1-1C32.9,47.1,32.7,46.9,32.5,46.7
		C32.5,46.7,32.5,46.7,32.5,46.7z M48.7,24.9c-0.4-0.1-0.7-0.2-1-0.3c-0.6-0.2-1.2-0.6-1.9-0.8c-1.1-0.2-2.2-0.4-3.2-0.5
		c-0.6-0.1-1.2,0-1.8,0.1c-1.3,0.2-2.6,0.5-3.8,0.8c-0.6,0.1-1.2,0.2-1.8,0.3c-1,0.3-1.8,0.9-2.4,1.8c-0.4,0.7-1,1.5-1.3,2.2
		c-0.4,0.9-0.6,1.8-0.9,2.8c-0.1,0.3,0,0.6,0,0.9c0,0.5,0,0.9-0.1,1.4c-0.1,0.8,0,1.7-0.3,2.4c-0.5,1.5-0.1,2.9,0.9,4
		c1.2,1.3,2.4,2.7,3.5,4.1c0.1,0.2,0.4,0.3,0.7,0.4c0.6,0.4,1.3,0.4,1.9,0.6c0.9,0.2,1.9,0.4,2.9,0.4c1.3,0,2.7,0.4,4-0.4
		c0.5-0.4,1.2-0.6,1.8-0.9c0.4-0.2,0.8-0.4,1.2-0.7c0.2-0.1,0.3-0.4,0.5-0.6c0.2-0.2,0.6-0.4,0.7-0.7c0.6-0.9,1.1-1.7,1.6-2.6
		c0.7-1.3,1-2.8,1.2-4.3c0.1-0.8,0-1.7,0.2-2.5c0.3-1.3,0.3-2.5-0.1-3.7c-0.5-1.5-1-2.9-2.2-3.9C48.7,25.3,48.7,25,48.7,24.9z"/>
	<path d="M53.9,11.2c1.6-0.2,2.9,0.4,3.9,1.7c0.5,0.6,0.6,1.2,0.6,2c-0.1,1.1-0.2,2.1-0.6,3.1c-0.8,1.5-2.1,2.1-3.7,2.2
		c-1.3,0.1-2.6-0.3-3.7-1.1c-0.5-0.3-0.8-0.9-1-1.5c-0.6-1.6-0.8-3.2,0.2-4.7c0.4-0.6,1-1.1,1.7-1.4c0.8-0.4,1.7-0.4,2.6-0.6
		C53.9,11.1,53.9,11.1,53.9,11.2z"/>
	<path d="M8,58.6c0.1-0.1,0.2-0.1,0.3-0.2c0-0.1-0.1-0.1-0.1-0.1c-0.3,0-0.5-0.1-0.3-0.4c0.2-0.3,0.4-0.6,0.6-0.7
		c0.7-0.3,1.5-0.3,2.1-0.6c0.9-0.4,1.7-0.9,2.5-1.3c0.5-0.2,0.9-0.4,1.4-0.5c0.4-0.1,0.7,0.1,0.8,0.6c0.1,0.4,0.1,0.8-0.3,1
		c-1.9,0.9-3.7,1.8-5.6,2.6C9.1,59.2,8.5,59.1,8,58.6z"/>
	<path d="M16.9,63.5c-0.2-1.3,0.5-2.2,1.2-2.9c0.9-0.9,2-1.7,3-2.5c0.3-0.2,0.6-0.3,0.9-0.3c0.3,0,0.7,0.2,0.7,0.4
		c0.1,0.2,0,0.7-0.2,0.9c-0.7,0.7-1.5,1.2-2.2,1.8c-0.9,0.8-1.9,1.5-2.8,2.3C17.3,63.3,17.1,63.3,16.9,63.5z"/>
	<path d="M7.7,45.7c1-0.4,2-0.7,2.9-1.1c0.7-0.3,1.3-0.8,2.1-0.7c0.2,0,0.6,0.1,0.6,0.3c0.1,0.2,0,0.6-0.2,0.7
		c-0.5,0.6-1.2,1.1-2.1,1.2c-0.1,0-0.2,0.1-0.3,0.1c-0.8,0.4-1.7,0.6-2.6,0.4c-0.3,0-0.5-0.4-0.7-0.6C7.7,45.8,7.7,45.8,7.7,45.7z"
		/>
	<path d="M27.9,61.1c-0.1,0.2-0.1,0.5-0.3,0.7c-0.6,0.7-1.3,1.5-2,2.2c-0.1,0.1-0.4,0.1-0.5,0.1c-0.1-0.1-0.1-0.3-0.1-0.5
		c-0.1-1.2,0.6-2.1,1.5-2.8c0.2-0.2,0.5-0.3,0.8-0.4C27.5,60.3,27.9,60.6,27.9,61.1z"/>
	<path d="M11.3,28.8c0.1-0.4,0.4-0.5,1-0.2c-0.2,1-1.1,1-1.9,1.1c-0.5,0.1-0.6,0-0.9-0.5C10.1,29,10.6,28.3,11.3,28.8z"/>
	<path d="M7.8,25.4c-0.4,0.3-0.7,0.6-1.1,0.8c-0.1,0.1-0.4,0-0.5-0.1C6.1,26,6,25.8,6,25.6C6.2,25,7.3,24.8,7.8,25.4z"/>
</g>
</svg>
