<?xml version="1.0" encoding="utf-8"?>
<!-- Generator: Adobe Illustrator 25.2.0, SVG Export Plug-In . SVG Version: 6.00 Build 0)  -->
<svg version="1.1" id="Layer_1" xmlns="http://www.w3.org/2000/svg" xmlns:xlink="http://www.w3.org/1999/xlink" x="0px" y="0px"
	 viewBox="0 0 120 40" style="enable-background:new 0 0 120 40;" xml:space="preserve">
<style type="text/css">
	.st0{fill:#FFFFFF;}
</style>
<g>
	<path d="M74.6,12c-0.1,1.1-0.3,2.2-0.4,3.2c-0.2,1.2-0.3,2.5-0.5,3.7c-0.3,1.9-0.5,3.8-0.8,5.7c-0.3,2-0.5,4-0.8,6
		c-0.1,0.9-0.2,1.8-0.4,2.7c-0.1,0.4-0.3,0.8-0.7,0.7c-0.3,0-0.7-0.3-0.9-0.6c-0.2-0.4-0.3-0.9-0.3-1.4c-0.2-1.7-0.3-3.4-0.4-5.1
		c-0.2-1.8-0.5-3.7-0.7-5.5c-0.2-1.4-0.3-2.8-0.4-4.2c-0.1-1-0.2-2-0.4-3c-0.2,1.7-0.4,3.5-0.6,5.2c-0.5,3.7-1,7.5-1.5,11.2
		c-0.2,1.1-0.4,2.2-0.6,3.3c0,0.2-0.3,0.4-0.5,0.5c-0.2-0.2-0.3-0.3-0.5-0.5c-0.1-0.1-0.1-0.3-0.2-0.3c-0.3-0.2-0.7-0.4-1-0.6
		c0-0.1,0-0.1,0-0.2c0.3-0.1,0.6-0.2,0.8-0.4c0.2-0.1,0.4-0.3,0.4-0.4c0.1-0.8,0-0.9-0.7-1.2c-0.2-0.1-0.4-0.3-0.4-0.4
		s0.2-0.4,0.3-0.5c0.3-0.1,0.6-0.2,1-0.3c0-0.3,0-0.8,0.1-1.2c0.1-0.4-0.1-0.6-0.5-0.7c-0.3-0.1-0.6-0.2-0.9-0.3
		c-0.1,0-0.2-0.2-0.2-0.2c0.1-0.2,0.1-0.4,0.3-0.4c0.4-0.1,0.8-0.2,1.1-0.3c0.1-0.1,0.4-0.2,0.4-0.3c0.1-0.6,0.1-1.1,0.1-1.7
		c0,0-0.2,0-0.3,0c-0.2-0.2-0.6-0.4-0.6-0.5c0-0.3,0.2-0.8,0.7-0.7c0.6,0.1,0.6-0.3,0.6-0.7c0-0.2-0.1-0.3,0-0.5
		c0.4-0.9-0.2-1.2-0.9-1.5c-0.3-0.1-0.5-0.3-0.4-0.7c0.1-0.4,0.3-0.4,0.7-0.3c0.2,0.1,0.5,0.1,0.7,0c0.1,0,0.4-0.2,0.4-0.4
		c0.1-0.7,0.1-1.5,0.1-2.2c0-0.1-0.2-0.2-0.3-0.3c-0.2-0.1-0.5-0.2-0.5-0.3c0-0.2,0.2-0.4,0.3-0.5l0,0c0.3-0.2,0.7-0.3,0.8-0.5
		c0.2-0.6,0.2-1.2,0.3-1.8c-0.2-0.1-0.4-0.2-0.6-0.2c-0.4,0-0.7-0.1-0.6-0.5c0.1-0.2,0.4-0.6,0.6-0.6c0.6,0,0.7-0.3,0.7-0.8
		c0-0.6,0.1-1.3,0.2-1.9c-0.3-0.1-0.6-0.2-0.8-0.3c-0.3-0.1-0.7-0.3-0.5-0.7c0-0.4,0.4-0.6,0.6-0.7c0.8-0.1,1-0.3,1.1-1.1
		c0-0.1,0-0.3,0-0.4c0.1-0.5,0.2-0.9,0.8-0.9c0.5,0,0.9,0.3,1,0.9c0.2,1.4,0.3,2.7,0.4,4.1c0.1,1.5,0.3,2.9,0.4,4.4
		c0.2,1.6,0.3,3.2,0.5,4.7c0,0.2,0.1,0.3,0.2,0.5c0.2-0.8,0.9-0.4,1.4-0.6c0.1-0.6,0.2-1.1,0.2-1.7c0-0.1-0.2-0.2-0.4-0.2
		c-0.2-0.1-0.5-0.1-0.6-0.2c0-0.1-0.1-0.4,0-0.5s0.3-0.2,0.4-0.2c0.8,0,0.9-0.1,0.9-0.9c0-0.4,0-0.7,0.2-1.1c0.2-0.5,0-0.7-0.4-0.8
		s-0.6-0.3-0.5-0.6c0.1-0.2,0.4-0.5,0.6-0.5c0.5,0,0.6-0.2,0.6-0.7c0-0.4,0.2-0.7,0.2-1.1c0.1-0.3,0-0.6-0.4-0.7
		c-0.3-0.1-0.5-0.4-0.9-0.7c0.5-0.2,1-0.4,1.5-0.6c0.1-0.4,0.1-1,0.2-1.5c-0.3-0.1-0.6-0.1-0.9-0.2C72.3,7,71.9,6.8,72,6.4
		c0.1-0.3,0.6-0.7,0.9-0.6c0.7,0.1,0.9-0.2,1-0.8c0.1-0.3,0.4-0.7,0.7-0.7c0.5-0.1,0.8,0.3,0.9,0.8c0.3,1.9,0.5,3.8,0.8,5.7
		c0.3,2.1,0.6,4.2,0.8,6.2c0.1,1,0.2,2.1,0.4,3.1c0.3,2.1,0.6,4.2,0.9,6.4c0.2,1.3,0.2,2.6,0.4,3.9c0.2,0.9,0.2,1.7,0,2.6
		c-0.1,0.4-0.3,0.8-0.8,0.8s-0.8-0.4-0.8-0.9c-0.2-2.2-0.4-4.5-0.7-6.7c-0.3-2.3-0.6-4.6-0.8-6.9c-0.3-2.3-0.5-4.6-0.8-6.9
		c0-0.1-0.1-0.2-0.1-0.3C74.7,12,74.6,12,74.6,12z M70.9,25.5c0.1,0,0.1,0,0.2,0c0.2-1.6,0.4-3.2,0.6-4.6c-0.5-0.2-0.9-0.4-1.4-0.6"
		/>
	<path d="M41.5,29.1c0.2-1.2,0.3-2.4,0.5-3.5c-0.1-0.1-0.3-0.2-0.4-0.3c-0.3-0.4-0.2-0.8,0.3-0.9c0.4-0.1,0.5-0.3,0.6-0.6
		c0-0.5,0.1-0.9,0.2-1.4c0-0.4,0-0.8-0.4-1.2c-0.4-0.3-0.2-0.7,0.2-0.9c0.2-0.1,0.4-0.3,0.4-0.5c0.2-0.7,0.3-1.3,0.4-2
		c0.1-0.4,0-0.6-0.4-0.6c-0.2,0-0.4-0.1-0.6-0.1C42.2,17,42,16.9,42,16.8c0-0.2,0.2-0.3,0.3-0.4s0.2,0,0.3,0c1-0.1,1,0,1.1-1
		c0.1-0.6,0.1-1.1,0.2-1.7c-0.2,0-0.4,0-0.5,0c-0.3-0.1-0.7-0.1-0.6-0.6c0-0.1-0.1-0.2-0.2-0.4c0.3-0.5,0.9-0.2,1.3-0.4
		c0.1-0.7,0.2-1.4,0.3-2.2c-0.4-0.3-0.8-0.5-1.3-0.8c0-0.1,0-0.2,0-0.2C43.3,9,43.7,9,44.1,8.9c0.2,0,0.4-0.1,0.5-0.2
		c0.2-0.4,0.5-0.6,0.9-0.4c0.3,0.1,0.6,0.4,0.7,0.7c0.2,0.4,0.2,0.8,0.3,1.2c0.3,1.7,0.6,3.3,0.9,5c0.3,1.6,0.5,3.3,0.7,4.9
		c0.2,1.4,0.3,2.8,0.4,4.1c0.1,1.3,0.2,2.7,0.3,4s0.1,2.5,0.2,3.8c0,0.3,0.1,0.5,0,0.8s-0.4,0.7-0.5,0.7c-0.3,0-0.8-0.2-0.8-0.5
		c-0.2-0.8-0.3-1.6-0.4-2.4c-0.1-1.4-0.2-2.8-0.2-4.2c-0.1-1.6-0.2-3.1-0.4-4.7c-0.2-1.8-0.5-3.5-0.7-5.3c-0.1-0.4-0.1-0.8-0.2-1.1
		c-0.4,2.5-0.9,5.1-1.3,7.6c-0.4,2.7-0.8,5.3-1.2,8c-0.2,1-0.5,1.9-0.8,2.9c-0.2,0.6-0.9,0.8-1.3,0.4c-0.3-0.3-0.5-0.6-0.6-1
		c-0.3-1.4-0.5-2.8-0.7-4.2c-0.3-1.8-0.6-3.7-0.9-5.5c-0.3-2.5-0.6-5-0.9-7.5C38,15.4,38,14.7,38,14.1c-0.1,0-0.1,0-0.2,0
		c0,0.1-0.1,0.3-0.1,0.4c-0.1,1.7-0.1,3.4-0.3,5.2c-0.1,1.1-0.4,2.1-0.6,3.2c-0.2,1.1-0.2,2.3-0.4,3.4c-0.2,1.3-0.3,2.6-0.5,3.9
		c-0.3,1.3-0.7,2.6-1,3.9c-0.1,0.6-0.4,0.7-0.9,0.6c-0.5-0.1-0.8-0.3-1.1-0.7c-0.2-0.4,0-0.6,0.3-0.7c0.3-0.1,0.6-0.1,1-0.2
		c0.1-0.6,0.1-1.3,0.2-2.1c-0.6,0.5-0.9,0.1-1.2-0.1c-0.1-0.1-0.1-0.5,0-0.5c0.2-0.2,0.5-0.3,0.8-0.4c0.6-0.2,0.9-0.6,0.7-1.2
		c0-0.1-0.2-0.3-0.4-0.4s-0.4,0-0.5-0.1c-0.3-0.2-0.5-0.5-0.7-0.8c0.2-0.2,0.5-0.4,0.7-0.5c0.3-0.1,0.6-0.2,0.9-0.3c0-0.5,0-1,0-1.4
		c-0.4-0.2-0.8-0.3-1.1-0.5s-0.4-0.5,0-0.7c0.3-0.2,0.7-0.3,1.2-0.4c0.1-0.6,0.3-1.4,0.3-2.1c0-0.1-0.3-0.4-0.5-0.5s-0.5,0-0.7-0.1
		c-0.2-0.2-0.4-0.4-0.5-0.7c0-0.1,0.3-0.4,0.5-0.4c0.5-0.1,1-0.1,1.6-0.2c0.1-0.6,0.2-1.4,0.2-2.1c0-0.1-0.2-0.4-0.4-0.4
		c-0.3-0.1-0.7-0.1-1-0.2c-0.2-0.1-0.4-0.3-0.6-0.5c0.2-0.2,0.3-0.5,0.5-0.6c0.4-0.2,0.8-0.2,1.2-0.3c0.4,0,0.5-0.2,0.6-0.5
		c0.1-0.7,0.1-1.3,0.2-2c0.1-0.5-0.3-0.8-0.9-0.7c-0.4,0.1-0.6-0.2-0.6-0.4s0.3-0.4,0.4-0.6h0.1c1.2-0.3,1.2-0.3,1.4-1.6
		c-0.4-0.1-0.8-0.3-1.3-0.3s-0.6-0.4-0.7-0.7c0-0.1,0.4-0.4,0.6-0.5c0.3-0.1,0.7-0.1,1.1-0.2c0.3,0,0.7-0.1,1-0.2
		c0.7-0.3,1.2,0,1.3,0.7c0.3,1.8,0.6,3.6,0.8,5.4c0.2,1.5,0.3,3.1,0.5,4.6c0.4,2.9,0.8,5.8,1.2,8.7c0.1,0.7,0.2,1.3,0.2,2
		c0,0.2,0.1,0.4,0.1,0.6C41.4,29.1,41.5,29.1,41.5,29.1z"/>
	<path d="M89.2,30.3c-0.4,0-0.8,0.1-1-0.1c-0.3-0.2-0.4-0.6-0.5-1c0-0.1,0.3-0.3,0.5-0.3c0.4,0,0.7,0.1,1.1,0.2
		c0.2-0.9,0.3-1.7,0.5-2.6c-0.7,0.1-1-0.3-1.2-0.9c0.4-0.1,0.8-0.2,1.2-0.2c0.1-0.7,0.1-1.4,0.2-2.2c-0.4,0-0.7,0-0.9,0
		c-0.3-0.1-0.9-0.1-0.8-0.6c0-0.2,0.6-0.4,0.9-0.5s0.6,0,1,0c0.1-0.8,0.1-1.4,0.1-2c-0.5-0.2-0.8-0.3-1.2-0.4
		c-0.4-0.2-0.4-0.6-0.2-0.9c0.2-0.3,0.5-0.4,0.9,0c0.1,0.1,0.4-0.1,0.6-0.2c0.1-0.1,0.1-0.3,0.1-0.4c0-0.9,0-1.8,0-2.7
		c-0.4-0.1-0.8-0.2-1.1-0.3c-0.2-0.1-0.3-0.4-0.5-0.6c0.2-0.1,0.4-0.3,0.6-0.4c0.1,0,0.3,0,0.4,0c0.4,0.1,0.6-0.1,0.6-0.4
		c0-0.5,0.1-1,0.1-1.6c0-0.1,0-0.4-0.1-0.4c-0.4-0.2-0.9-0.3-1.3-0.5c-0.1,0-0.2-0.1-0.3-0.2c0,0,0.1-0.2,0.2-0.3
		c0.2-0.1,0.4-0.2,0.6-0.2c0.3,0,0.6,0,1.1,0c0-0.7,0-1.4,0-2c0-0.3-0.1-0.4-0.4-0.4c-0.4,0-0.7-0.1-1.1-0.2
		c-0.2-0.1-0.4-0.3-0.4-0.4c0-0.2,0.2-0.5,0.3-0.5c0.3-0.1,0.7-0.2,1-0.1c0.5,0.2,0.6-0.1,0.7-0.5c0-0.3,0-0.7,0.2-0.9
		c0.5-0.6,1.4-0.3,1.6,0.7c0.2,1.1,0.4,2.3,0.6,3.5c0.4,2,0.8,4,1.1,6c0.3,1.9,0.7,3.8,1,5.7c0.1,0.6,0.2,1.2,0.3,1.8
		c0.1,0,0.1,0,0.2,0c0.1-2.3,0.2-4.6,0.3-6.8c-0.3-0.3-1-0.1-1-0.8c0.1-0.7,0.6-0.2,1-0.4c0-0.8,0-1.7,0-2.5c0-0.2-0.3-0.4-0.5-0.5
		c-0.4-0.1-0.8-0.3-0.8-0.8c0-0.1,0.5-0.2,0.8-0.2c0.1,0,0.2,0,0.4,0c0.5-0.7,0.1-1.4,0.1-2.1C95.5,9,95.6,8,95,8.4
		c0,0-0.2-0.2-0.4-0.5c0.3,0,0.5,0,0.7,0s0.4,0,0.6,0C95.9,7.6,96,7.3,96,7c0.1-0.5,0.4-0.7,0.8-0.7c0.5-0.1,0.7,0.3,0.8,0.6
		c0.1,0.2,0.1,0.5,0.1,0.8c0,1.3,0.1,2.6,0.1,3.9c0,1.1-0.1,2.2-0.2,3.2c-0.1,2.7-0.3,5.4-0.4,8.1c-0.1,2-0.1,4.1-0.2,6.1
		c-0.1,1.3-0.2,2.6-0.4,4c0,0.3-0.4,0.6-0.7,0.7c-0.2,0-0.7-0.2-0.8-0.5c-0.3-1-0.6-2.1-0.8-3.2c-0.3-1.9-0.4-3.8-0.6-5.7
		c-0.2-1.4-0.4-2.8-0.6-4.1c-0.2-0.9-0.4-1.8-0.6-2.7c-0.1-0.5-0.2-0.9-0.4-1.4c0,0.6,0,1.3,0,1.9c-0.1,1.1-0.2,2.3-0.3,3.4
		c-0.1,1.5-0.2,3-0.4,4.5c-0.4,2.3-0.8,4.5-1.3,6.7c-0.1,0.5-0.4,0.9-0.9,0.7s-0.5-0.6-0.4-1.1C89,31.5,89.1,30.9,89.2,30.3z"/>
	<path d="M4.5,33.6c-0.5-0.1-0.9-0.2-1.4-0.2c-0.5-0.1-0.8-0.5-0.6-0.8c0.3-0.4,0.7-0.8,1.3-0.6c0.3,0.1,0.6,0,1,0
		c0-0.4,0-0.8,0-1.1c0-0.1-0.2-0.3-0.3-0.3c-0.4-0.2-0.7-0.3-1.1-0.4c-0.2-0.1-0.5-0.4-0.4-0.5c0.2-0.3,0.5-0.5,0.8-0.7
		c0.1-0.1,0.4-0.1,0.5-0.1C4.8,28.8,5,28.6,5.1,28c0.1-1.1,0.3-2.3,0.4-3.4c-0.3-0.1-0.6-0.2-0.8-0.4c-0.2-0.1-0.4-0.4-0.4-0.5
		c0.1-0.3,0.3-0.5,0.5-0.7s0.5-0.3,0.7-0.3c0.6,0,0.6-0.4,0.7-0.8c0.1-0.6,0.2-1.2,0.4-1.8c-0.5,0.2-1.4,0-1.7-0.3
		c-0.2-0.3-0.1-0.6,0.3-0.7c0.5-0.1,1-0.1,1.6-0.2c0.1-0.7,0.2-1.4,0.3-2.3c-0.3,0-0.6-0.1-0.9-0.1c-0.2,0-0.3,0-0.5,0
		c-0.4-0.1-0.9-0.3-0.8-0.8c0-0.5,0.4-0.7,0.8-0.8c0.5-0.1,1.1-0.2,1.7-0.3c0.2-0.9,0.3-1.9,0.5-2.9c0-0.3,0-0.4-0.4-0.4
		c-0.7-0.2-1.3-0.5-1.9-0.9c-0.3-0.2-0.3-0.6,0.1-0.9C5.8,9.6,6,9.7,6.1,9.8c0-0.1,0-0.3,0-0.4c0.7-0.1,1.4-0.1,2.2-0.2
		c0.1-0.7,0.2-1.6,0.2-2.5c-0.5,0-1,0-1.4-0.1c-0.4,0-0.8-0.1-0.7-0.7c0-0.5,0.3-0.6,0.8-0.7C8,5.1,8.8,4.9,9.7,4.7
		c0.8-0.2,1.1,0,1.3,0.7c0.2,1.6,0.4,3.2,0.6,4.8c0.2,1.7,0.2,3.5,0.4,5.2c0.1,1.8,0.2,3.7,0.4,5.5c0.1,0.9,0.2,1.9,0.4,2.8
		c0.3,1.8,0.6,3.7,0.9,5.5c0.2,1.3,0.5,2.7,0.8,4c0.1,0.4,0.1,0.7,0.2,1.1c0.1,0.4-0.1,0.8-0.5,0.9c-0.5,0.1-0.9-0.2-1-0.7
		c-0.2-1.1-0.4-2.3-0.7-3.4c-0.3-1.7-0.6-3.5-0.9-5.2c-0.1-0.5-0.1-0.9-0.2-1.5c-1.3,0.8-2.3-0.5-3.7-0.1c-0.1,0.6-0.4,1.3-0.5,2.1
		C7,28,6.8,29.7,6.6,31.3C6,33,5.7,34.5,5.4,36.1c0,0.2,0.1,0.5,0.1,0.7s0.1,0.5,0,0.6c-0.3,0.2-0.6,0.4-0.9,0.4
		c-0.5,0-1-0.2-1.4-0.4C3,37.3,2.9,37,2.8,36.8c0-0.1,0.2-0.3,0.3-0.4c0.1-0.1,0.2-0.2,0.4-0.2c0.9,0.1,0.9-0.6,0.9-1.2
		C4.4,34.6,4.4,34.1,4.5,33.6z M7.6,23c1,0.1,2.1,0.2,3.2,0.3c-0.3-4.1-0.5-8.4-0.8-12.6C8.9,14.8,8.9,19,7.6,23z"/>
	<path d="M15.6,34.6c0.2-0.1,0.3-0.3,0.5-0.3c0.7,0,0.6-0.4,0.6-0.9c-0.1-0.7-0.1-1.3-0.3-2c0-0.2-0.2-0.4-0.4-0.5
		c-0.4-0.2-0.8-0.2-1.2-0.4c-0.2-0.1-0.5-0.4-0.5-0.6s0.3-0.4,0.6-0.5c0.4-0.1,0.8-0.1,1.3-0.1c0-0.7-0.1-1.4-0.1-2.1
		c-0.5-0.1-1-0.2-1.4-0.3c-0.2-0.1-0.5-0.4-0.6-0.6s0.1-0.5,0.5-0.4c0.1,0,0.2-0.2,0.3-0.2c0.3-0.1,0.8-0.1,0.9-0.3
		c0.2-0.4,0.1-0.8,0.1-1.2c0-0.4-0.1-0.8-0.2-1.3c-0.4-0.1-0.9-0.1-1.4-0.2s-0.6-0.4-0.4-0.9c0.1-0.4,0.7-0.6,1-0.5
		c0.1,0,0.2-0.1,0.3-0.1s0.3-0.1,0.4-0.1c0-1,0-2,0-2.9c0-0.1-0.3-0.3-0.5-0.4c-0.5-0.2-1-0.2-1.4-0.4c-0.3-0.2-0.4-0.6-0.6-0.8
		c0.8-0.6,1.6-0.7,2.4-0.4c0-1.1,0-2.1,0-2.9c-0.6-0.2-1.1-0.3-1.6-0.5c-0.1-0.1-0.2-0.3-0.3-0.5c0-0.1,0.2-0.2,0.3-0.3
		c0.4-0.2,0.9-0.3,1.4-0.5c0-1,0-2.1,0-3.2c-0.4-0.1-0.7-0.2-1-0.2c-0.5,0-0.7-0.3-0.7-0.8c0.1-0.5,0.3-0.9,0.8-1
		C14.8,6,15.1,6,15.3,6c0.1,0,0.3,0,0.3-0.1c0.7-0.8,1.4-0.3,2.1,0c0.3,0.2,0.6,0.3,0.9,0.5c1,0.5,1.6,1.3,2,2.3
		c0.5,1.2,1,2.5,1.3,3.7c0.4,1.8,0.8,3.7,1,5.6s0,3.9,0.1,5.9c0.1,2.6-0.2,5.2-0.8,7.7c-0.3,1.4-1,2.7-2.3,3.5
		c-0.2,0.1-0.4,0.3-0.6,0.4c-0.5,0.3-0.9,0.3-1.4,0c-0.2-0.1-0.5-0.3-0.7-0.3C16.5,35.4,16.1,35,15.6,34.6z M20.1,20.8
		c0.3-0.2,0.5-0.5,0.7-0.5c0.5-0.1,0.6-0.4,0.6-0.8c0-0.3-0.1-0.7-0.1-1c0-0.5-0.3-0.5-0.6-0.7c-0.3-0.1-0.6-0.3-1-0.5
		c0.6-0.4,0.9-0.6,1.4-0.9c-0.1-0.5-0.3-1.2-0.4-1.9c-0.3-0.1-0.6-0.2-0.9-0.3c-0.2-0.1-0.3-0.3-0.4-0.6c0-0.1,0.3-0.2,0.4-0.3
		c0.2-0.1,0.4-0.1,0.5-0.2c-0.1-0.5-0.1-0.9-0.3-1.4c-0.1-0.3-0.4-0.5-0.7-0.7c-0.2-0.1-0.5-0.1-0.7-0.3c-0.2-0.1-0.3-0.4-0.3-0.6
		c0-0.1,0.3-0.3,0.4-0.4c0.1-0.1,0.3-0.1,0.5-0.1C18.7,8,17.4,7.3,16,6.5c0.8,9.3,1,18.5,2,27.7c1.9-1.1,2.5-2,2.4-4.1
		c-0.4,0.2-0.4,0.1-0.5-0.5c1.3-0.1,0.8-1.2,1-1.9c0.1-0.2-0.2-0.5-0.3-0.7c-0.3,0.2-0.5,0.3-0.8,0.5c0-0.5,0-0.8,0.1-1
		s0.4-0.4,0.7-0.4c0.4-0.1,0.5-0.3,0.6-0.7c0-0.9,0-0.9-0.9-1.2c-0.1,0-0.3-0.2-0.3-0.4c0-0.1,0-0.3,0.1-0.4
		c0.3-0.2,0.6-0.2,0.8-0.4c0.2-0.1,0.3-0.3,0.4-0.5s0-0.4,0-0.7c0.1-0.6-0.1-1-0.8-1C20.4,21.1,20.3,20.9,20.1,20.8z"/>
	<path d="M22.5,33.4c0.6-0.2,1.1-0.4,1.7-0.6c0-0.5,0.1-1.2,0.2-1.9c0-0.1-0.3-0.2-0.4-0.3c-0.5-0.2-1.1-0.2-1-0.9
		c0-0.2,0.2-0.5,0.3-0.6c0.4-0.1,0.8-0.1,1.2-0.2c0.1-0.7,0.1-1.4,0.2-2.1c0-0.4-0.2-0.7-0.6-0.7c-0.2,0-0.4-0.2-0.6-0.4
		c0.6-0.1,1.4-0.8,1.5-1.3c0-0.4,0.1-0.7,0.1-1.1c0.1-0.5-0.1-0.8-0.6-0.8c-0.2,0-0.3-0.2-0.5-0.3c0.2-0.1,0.3-0.3,0.5-0.4
		s0.5-0.1,0.8-0.2c0.1-0.8,0.2-1.5,0.3-2.2c-0.4-0.1-0.9-0.2-1.3-0.4c-0.4-0.2-0.3-0.6,0.1-0.8c0.5-0.2,1.1-0.3,1.7-0.5
		c0.1-0.6,0.3-1.3,0.4-1.9c-0.4-0.2-0.7-0.4-1-0.5l0,0c-0.3-0.1-0.6-0.2-0.7-0.4c-0.2-0.4,0.2-0.6,0.6-0.6c0.1,0,0.2-0.1,0.3-0.1
		c1-0.1,1-0.1,1.1-1c0.1-0.6,0.2-1.2,0.3-1.8c-0.4-0.2-0.8-0.3-1.1-0.5c-0.2-0.1-0.3-0.3-0.5-0.5c0.2-0.1,0.3-0.3,0.5-0.3
		c1.3,0.1,1.6-0.7,1.8-1.8c0-0.2,0.1-0.3,0.1-0.5c-0.5-0.2-0.9-0.5-1.4-0.7S26,6.8,26.4,6.3c0,0.1,0.1,0.2,0.2,0.3
		c0.1-0.1,0.1-0.1,0.1-0.1c0.1-0.5,0.5-0.8,1-0.7c0.5,0.1,1,0,1.4,0.2c0.3,0.1,0.6,0.5,0.7,0.9C30,8,30,9.1,30.2,10.3
		c0.2,1.7,0.4,3.3,0.5,5c0.1,1.6,0.2,3.2,0.3,4.8c0.1,1.4,0.3,2.8,0.4,4.2c0.1,1.3,0.2,2.6,0.4,4c0.1,0.6,0.2,1.3,0.2,1.9
		c0.1,1,0.1,2.1,0.1,3.1c0,0.5-0.2,0.9-0.7,0.9c-0.3,0-0.7-0.4-0.8-0.7c-0.2-0.5-0.2-1-0.3-1.6c-0.1-1.1-0.2-2.3-0.3-3.4
		c-0.1-1.5-0.3-3-0.4-4.4c-0.1-0.7-0.3-0.8-1-0.6c-0.3,0.1-0.7,0.1-1,0.1c-0.5,0-0.8,0.1-0.9,0.7c-0.2,2.1-0.5,4.1-0.8,6.1
		c-0.2,1.5-0.2,3-0.9,4.4c-0.1,0.2-0.3,0.5-0.5,0.5c-0.1,0-0.3-0.3-0.5-0.4c-0.4-0.3-0.7-0.5-1.1-0.8C22.6,33.9,22.6,33.7,22.5,33.4
		z M26.8,21.9c0.4-0.1,0.6-0.1,0.8-0.1c0.3,0,0.5-0.1,0.8-0.2c0.8-0.1,0.8-0.1,0.8-0.9c-0.2-2.5-0.3-5.1-0.5-7.6
		c0-0.2-0.1-0.3-0.1-0.6C28,15.8,27.4,18.8,26.8,21.9z"/>
	<path d="M81.2,30.6c0-0.6,0-1.3,0-2.1c0-0.1-0.2-0.3-0.3-0.3c-0.2-0.1-0.5-0.1-0.7-0.2s-0.4-0.3-0.6-0.5c0.2-0.1,0.5-0.3,0.7-0.4
		s0.4,0,0.7,0c-0.1-0.8-0.1-1.4-0.2-2.1c0-0.1-0.3-0.2-0.4-0.3c-0.1-0.1-0.3-0.2-0.3-0.4c-0.1,0-0.2,0-0.3,0.1l-0.1-0.1
		c0.1-0.1,0.3-0.4,0.4-0.4c0.5,0,0.7-0.2,0.6-0.7c-0.1-0.4-0.1-0.9-0.1-1.4c-0.2,0-0.4-0.1-0.6-0.1c-0.6-0.1-0.9-0.5-0.7-0.9
		c0.1-0.2,0.5-0.3,0.8-0.4c0.2,0,0.3,0,0.5,0c0-0.8,0.1-1.6,0.1-2.4c0-0.4-0.1-0.6-0.5-0.7c-0.1,0-0.1,0-0.2-0.1
		c-0.2-0.2-0.7-0.4-0.7-0.7c0-0.4,0.4-0.5,0.8-0.5c0.6,0.1,0.7-0.2,0.7-0.7c0-0.7,0-1.3,0-2c0-0.4,0-0.7-0.5-0.8
		c-0.2,0-0.4-0.2-0.6-0.3c0.1-0.2,0.1-0.4,0.2-0.6c0.3,0,0.6,0,0.9-0.1c0.1-0.8,0.2-1.5,0.3-2.3c-0.5-0.2-1.2,0.1-1.4-0.7
		c0-0.1,0.1-0.4,0.2-0.5c0.3-0.1,0.6-0.1,1-0.2c0,0.1,0,0,0-0.1c0.8,0.1,0.7-0.6,0.8-1c0.5-1.3,0.8-1.5,2.2-1.3
		c1,0.1,1.4,0.8,1.8,1.5c0.8,1,1.4,2.1,1.4,3.5c0,1.3,0.3,2.6,0.4,3.8c0.1,1.3,0.2,2.6,0.1,3.9C87.3,22,87,26,86.5,29.9
		c-0.2,1.4-1,2.7-2,3.7c-0.6,0.6-1.8,0.7-2.3-0.3c-0.2-0.4-0.3-0.8-0.6-1.1c-0.2-0.2-0.6-0.6-0.8-0.5c-0.6,0.2-0.7-0.1-0.7-0.5
		C80.5,31,80.9,30.9,81.2,30.6z M83.9,32c0.1-0.1,0.1-0.2,0.2-0.2c1.2-1.5,1.4-3.3,1.5-5.2c0-1.1,0.1-2.2,0.1-3.3
		c0.1-2.2,0.4-4.3,0.4-6.5c0-2-0.2-4-0.4-6C85.6,10,85.6,9.2,85,8.6c-0.5-0.5-0.7-1.8-1.9-1.1H83c-0.4-0.2-0.5,0.1-0.6,0.4
		c-0.1,1.3-0.3,2.6-0.4,3.9c0,2,0.1,4.1,0.1,6.1c0,1.2-0.1,2.4,0,3.6c0.2,2.3,0.4,4.5,0.6,6.8C82.9,29.6,83,30.9,83.9,32z"/>
	<path d="M55.7,24c0-0.5,0-0.9,0-1.4s-0.3-0.7-0.8-0.6c-0.1,0-0.2,0.1-0.2,0c-0.2-0.1-0.5-0.2-0.7-0.4c0.1-0.2,0.2-0.5,0.4-0.6
		c0.4-0.1,0.8-0.1,1.3-0.2c0-0.7,0-1.5,0-2.2c-0.4-0.2-0.9-0.3-1.3-0.5C54.2,18,54,17.6,54,17.4s0.4-0.4,0.6-0.4
		c0.3-0.1,0.7-0.1,1.2-0.2c0-0.9,0.1-1.8,0.1-2.8c-0.2,0-0.5,0-0.7-0.1c-0.3-0.1-0.6-0.3-0.7-0.6c-0.1-0.1,0.1-0.5,0.3-0.6
		s0.5-0.1,0.7-0.1c0.3,0,0.4-0.1,0.4-0.5c0-0.5,0.1-1,0.1-1.6c-0.4,0-0.7,0-1.1,0c-0.8,0-1.1-0.8-0.8-1.3c0-0.1,0.3-0.2,0.4-0.3
		c0.1,0,0.2,0,0.3,0C56,9.1,56,9,56,7.7c-0.7,0-1.4,0-2.1,0c-0.9,0-1.7-0.1-2.6,0c-0.5,0-0.9,0.2-1.3-0.2c-0.2-0.3-0.5-0.7-0.5-0.9
		c0-0.3,0.5-0.6,0.8-0.7c1.3-0.1,2.7-0.1,4-0.1c1.1,0,2.2,0,3.3,0s2.2,0,3.3,0.1c0.2,0,0.4,0,0.6,0c0.6,0,1.1,0.4,1.1,1
		c0,0.5-0.3,0.9-1,0.9c-0.9,0-1.8,0-2.7,0c-0.6,0-1.3,0-1.8,0c0,2,0,3.8,0,5.7c0,2.1,0,4.2,0,6.3c0.1,2.1,0.2,4.2,0.4,6.3
		c0,0.8,0,1.7,0,2.5c0,1.6,0,3.2,0,4.8c0,0.3-0.1,0.5-0.1,0.8c-0.1,0.4-0.4,0.6-0.8,0.6c-0.4,0-0.7-0.2-0.7-0.6
		c-0.1-0.4,0-0.9-0.1-1.3c-0.5,0.1-0.9,0.1-1.4,0.2c-0.4,0-0.7,0-0.8-0.5c-0.1-0.4-0.1-0.9,0.4-1.1s1.1-0.2,1.7-0.4
		c0-0.2,0.1-0.6,0.1-1c0-0.3-0.1-0.6-0.5-0.6c-0.4-0.1-0.9-0.3-1.3-0.5c-0.4-0.3-0.3-0.7,0.1-0.9c0.4-0.1,0.8-0.2,1.2-0.3
		c0.4-0.1,0.6-0.6,0.5-1.1c-0.1-0.4-0.5-0.5-0.8-0.4c-0.6,0.1-1.1-0.2-1.2-0.9c-0.1-0.4,0.2-0.7,0.8-0.9C55,24.2,55.2,24.1,55.7,24z
		"/>
	<path d="M111.7,14.7c-0.9-0.4-1.5-0.6-1.3-1.4c0.5,0,0.9,0,1.4,0c0.1,0,0.3-0.3,0.4-0.5c0.1-0.6,0.2-1.2,0.3-1.7
		c-0.5-0.1-0.9-0.2-1.3-0.3c-0.1,0-0.2-0.4-0.1-0.5c0.1-0.2,0.3-0.4,0.5-0.4c0.4,0,0.8,0,1.2,0.1c0.1-0.6,0.3-1.1,0.5-1.8
		c-1.3,0-2.4,0-3.6,0c-0.6,0-1-0.4-1-1s0.6-1,1.2-0.9c0.8,0,1.6,0.3,2.5,0.1c0.7-0.2,1.6,0.2,2.4,0.5c0.7,0.3,0.8,0.9,0.6,1.6
		c-0.4,1.5-0.8,3.1-1.2,4.6c-0.1,0.6-0.3,1.1-0.5,1.7c-0.4,1.3-0.9,2.5-1.3,3.7c-0.4,1.4-0.7,2.8-1.1,4.2c-0.4,1.6-0.9,3.1-1.4,4.7
		c-0.3,0.9-0.5,1.8-0.8,2.8c0.3,0,0.5,0,0.7,0c1.5-0.2,2.9-0.5,4.4-0.6c0.3,0,0.8,0.2,1.1,0.5c0.3,0.3,0.3,0.7,0,1
		c-0.1,0.2-0.4,0.3-0.6,0.4c-2,0.3-3.9,0.5-5.9,0.7c-0.7,0.1-1.2-0.2-1.5-0.7c-0.4-0.6-0.3-1.1-0.1-1.7c0.1-0.3,0.3-0.7,0.4-1
		c-0.4-0.3-0.8-0.4-1.1-0.7c-0.3-0.2-0.2-0.5,0.1-0.6c0.4-0.1,0.9-0.2,1.4-0.3c0.2-0.6,0.4-1.2,0.7-1.9c-0.4-0.1-0.8-0.1-1-0.3
		c-0.2-0.1-0.5-0.4-0.5-0.6c0-0.3,0.3-0.6,0.8-0.5c0.4,0.1,0.7,0.1,1.1,0.2c0.2-0.6,0.3-1.2,0.5-1.8c0-0.1-0.1-0.3-0.3-0.4
		c-0.2-0.1-0.5-0.2-0.7-0.4c-0.2-0.1-0.3-0.4-0.3-0.6s0.3-0.5,0.4-0.4c1.4,0.2,1.5-0.9,1.8-1.9c-0.4-0.2-0.8-0.4-1.2-0.7
		c-0.1-0.1-0.3-0.2-0.3-0.2c0.1-0.1,0.1-0.3,0.3-0.3c0.2-0.1,0.5-0.1,0.8-0.1c0.5,0.1,0.8-0.2,1-0.7C111.1,16,111.4,15.4,111.7,14.7
		z"/>
	<path d="M101.6,29.7c-0.2,0-0.4-0.1-0.7-0.2c0.3-0.3,0.5-0.5,0.7-0.8c0.1-0.1,0.1-0.3,0.1-0.4c0-0.4,0-0.7-0.1-1.2
		c-0.2,0-0.5,0-0.7-0.1s-0.4-0.4-0.6-0.6c0.2-0.1,0.4-0.3,0.6-0.3c0.6,0,0.7-0.2,0.7-0.7c0-0.3,0-0.7,0-1c0-0.4,0-0.7-0.6-0.7
		c-0.1,0-0.3-0.4-0.4-0.6c0.1-0.1,0.1-0.1,0.1-0.1c0.9-0.3,1-1.1,0.9-1.9c0-0.2,0-0.4,0-0.7c0-0.4,0-0.7-0.5-0.7
		c-0.6,0-0.7-0.5-0.5-1.1c0.2,0,0.3-0.1,0.4-0.1s0.3-0.1,0.4-0.1c0-0.8,0-1.6,0-2.3c0-0.3-0.3-0.6-0.5-0.8l-0.2,0.1
		c-0.1-0.4-0.1-0.4,0.8-0.6c0-0.8,0-1.6,0-2.5c-0.2,0-0.5,0-0.7-0.2c-0.2-0.1-0.3-0.4-0.5-0.6c0.2-0.1,0.5-0.3,0.6-0.3
		c0.6,0.2,0.6,0,0.6-0.5c-0.1-0.7,0-1.4,0-2.1c-0.5,0-1,0.1-1.5,0.1c-0.6,0-1-0.4-1-0.9s0.4-1,1-1c1.9-0.1,3.8-0.2,5.8-0.4
		c0.6,0,1,0.3,1.1,0.9s-0.2,0.9-0.7,1c-0.7,0.1-1.4,0.2-2.1,0.1c-0.4,0-0.7,0-0.7,0.5c0,1.2-0.1,2.4-0.1,3.6c0,1.4,0,2.7,0,4.1
		c0,1.8,0.1,3.5,0.2,5.3c0.1,2.3,0.2,4.6,0.3,6.9c0,0.4-0.2,0.9-0.2,1.3c0,0.3,0.1,0.7,0.3,0.8c0.3,0.1,0.8,0.1,1-0.1
		c0.4-0.2,0.7-0.5,1.1-0.2s0.4,0.7,0.2,1.1c-0.4,1-1.5,1.3-2.7,1.1c-0.4-0.1-0.9,0-1.4,0.1c-0.7,0.1-1.3,0.3-2,0.4
		c-0.5,0.1-0.9-0.2-1-0.6c-0.2-0.5-0.1-1,0.3-1.4c0.3-0.4,0.8-0.3,1.2,0c0.5,0.3,1.1-0.1,1.2-0.7C101.6,30.4,101.6,30.1,101.6,29.7z
		"/>
	<path d="M62.1,33.1c-0.2,0.3-0.4,0.8-0.7,0.9c-0.6,0.2-0.8-0.4-1-0.8c-0.1-0.2,0.1-0.7,0.2-0.9c0.1-0.1,0.6-0.2,0.7-0.1
		C61.7,32.3,61.8,32.7,62.1,33.1z"/>
	<path class="st0" d="M70.3,20.2c0.5,0.2,0.9,0.4,1.4,0.6"/>
	<path class="st0" d="M71.1,25.4c-0.1,0.1-0.1,0.1-0.2,0.1"/>
</g>
</svg>
