<svg xmlns="http://www.w3.org/2000/svg" viewBox="0 0 60.96 198.52"><defs><style>.cls-1,.cls-3{fill:#fff;}.cls-1,.cls-2{stroke:#000;stroke-width:3px;}.cls-1,.cls-2,.cls-3{stroke-linecap:round;stroke-miterlimit:10;}.cls-2{fill:none;}.cls-3{stroke:#fff;stroke-width:4px;}</style></defs><g id="Layer_2" data-name="Layer 2"><g id="Layer_1-2" data-name="Layer 1"><circle class="cls-1" cx="30.66" cy="49.13" r="7.64"/><line class="cls-1" x1="30.66" y1="56.77" x2="30.66" y2="66.04"/><circle class="cls-1" cx="30.66" cy="71.42" r="5.28"/><circle class="cls-1" cx="30.66" cy="89.23" r="5.28"/><circle class="cls-1" cx="30.66" cy="107.04" r="5.28"/><line class="cls-1" x1="30.66" y1="76.7" x2="30.66" y2="83.95"/><line class="cls-1" x1="30.66" y1="94.51" x2="30.66" y2="101.76"/><circle class="cls-1" cx="16.76" cy="24.96" r="5.28"/><path class="cls-2" d="M20.77,28.39s6.72-1.49,9.89,13.1"/><circle class="cls-1" cx="45.5" cy="25.3" r="5.28"/><path class="cls-2" d="M40.5,28s-6.72-1.49-9.89,13.1"/><line class="cls-1" x1="12.46" y1="21.91" x2="8.65" y2="14.35"/><circle class="cls-1" cx="6.78" cy="8.35" r="5.28"/><line class="cls-1" x1="48.5" y1="20.35" x2="52.31" y2="12.78"/><circle class="cls-1" cx="54.18" cy="6.78" r="5.28"/><circle class="cls-1" cx="30.61" cy="134.98" r="7.64"/><line class="cls-1" x1="30.66" y1="112.32" x2="30.61" y2="127.33"/><line class="cls-1" x1="30.61" y1="142.62" x2="30.61" y2="160.76"/><rect class="cls-1" x="16.56" y="159.01" width="28.09" height="6.91" rx="3.46"/><rect class="cls-1" x="27.93" y="148.76" width="5.36" height="48.26" rx="2.68"/><line class="cls-3" x1="19.88" y1="162.47" x2="41.33" y2="162.47"/></g></g></svg>