<?xml version="1.0" encoding="utf-8"?>
<!-- Generator: Adobe Illustrator 25.2.0, SVG Export Plug-In . SVG Version: 6.00 Build 0)  -->
<svg version="1.1" id="Layer_1" xmlns="http://www.w3.org/2000/svg" xmlns:xlink="http://www.w3.org/1999/xlink" x="0px" y="0px"
	 viewBox="0 0 135 180" style="enable-background:new 0 0 135 180;" xml:space="preserve" class:"swirly-man">
<style type="text/css">
	.st0{fill:#FF0000;}
	.st1{fill:#FFFFFF;}
	.st2{fill:#5982FF;}
	.st3{fill:#FF66D2;}
	.st4{fill:#FFDD59;}
	.st5{fill:#2E9949;}
	.st6{fill:#3643B2;}
	.st7{fill:#FF9999;}
	.st8{fill:none;stroke:#000000;stroke-width:2;stroke-linecap:round;stroke-miterlimit:10;}
	.st9{fill:none;stroke:#000000;stroke-miterlimit:10;}
</style>
<g>
	<path d="M39.5,56.8c-0.3-0.6-0.5-1.1-0.7-1.5c-0.1-0.1-0.3-0.3-0.4-0.3c-1.2,0-2.5,0.1-3.7,0.2c-0.9,0.1-1.9,0.1-2.8,0.2
		c-2,0.1-4,0.2-6,0.2c-0.9,0-1.7,0-2.6-0.1s-1.9-0.3-2.8-0.6c-1.7-0.7-3-1.8-3.5-3.7c-0.6-1.9-0.5-3.8-0.5-5.7c0-0.8,0-1.6,0-2.3
		c0-0.5-0.1-0.7-0.7-0.8c-1.2-0.2-2.4-1.7-2.1-2.9c0.1-0.6,0.4-1.2,0.6-1.8c-1.1-1.2-1.4-2.7-0.6-4.3c0.6-1.2,1.7-1.8,3.2-1.2
		c0-0.5,0.1-1,0.1-1.4c0.1-0.7,0.1-1.4,0.2-2.1c0-0.5,0.1-1,0.1-1.5c0-0.1-0.2-0.3-0.4-0.4c-1.1-0.5-1.7-1.7-1.2-2.8
		c0.3-0.9,0.8-1.7,1.2-2.5s0.8-1.7,1.2-2.5c0-0.1,0.1-0.2,0-0.2c-0.3-1.9,0.3-3.7,1.2-5.3c0.6-1.3,1.5-2.4,2.6-3.3
		C23.4,9,25,7.8,27,7.4c0.8-0.2,1.6-0.5,2.5-0.7c-0.1-0.8,0.4-1.4,1-1.7c1.2-0.7,3-0.3,3.9,0.8c0.1,0.1,0.2,0.1,0.2,0.2
		c0.1,0.9,0.8,0.8,1.4,0.9C37.7,7.4,39.4,8,41,9c2,1.3,3.7,3,4.7,5.2c0.6,1.2,0.8,2.7,1.1,4c0.1,0.5,0,1,0.1,1.5
		c0.1,0.3,0.4,0.6,0.7,0.8c1,0.6,1.7,1.4,2.3,2.4c0.7,1.1,0.7,2.3,0.3,3.5c-0.1,0.5-0.5,0.7-0.9,0.8c-0.5,0.1-0.9,0.2-1.4,0.2
		c-0.3,0-0.4,0.1-0.4,0.4c0.1,1,0.2,2.1,0.3,3.2c1.3-0.3,2.5-0.1,3.1,1.3c0.6,1.4-0.1,2.4-0.9,3.4c1,0.9,1.6,1.9,0.9,3.2
		c-0.6,1.2-1.7,1.7-3,1.7c-0.2,1.9-0.4,3.8-0.6,5.7h0.1c0.4-0.5,0.8-0.9,1.1-1.4c1-1.2,1.9-2.5,2.9-3.7c1.6-1.9,3.1-3.8,4.7-5.6
		c2.1-2.3,4.2-4.4,6.4-6.6c2.8-2.7,5.7-5.2,8.9-7.5c2.1-1.5,4.2-2.9,6.5-4.1c2.1-1.2,4.3-2.1,6.6-2.9c1.7-0.6,3.5-1.2,5.4-1.3
		c1.2-0.1,2.4-0.4,3.5-0.4c1.7,0,3.4,0,5.1,0.6c0.5,0.2,1,0.2,1.5,0.4c1.2,0.4,2.4,0.9,3.5,1.4c1.6,0.7,2.8,1.9,4.2,2.9
		c0.4,0.3,0.8,0.3,1.2,0.2c1.6-0.4,3.8,0.7,4.1,2.3c0.1,0.4-0.1,1.1-0.3,1.5c-0.5,0.9-0.2,1.5,0.3,2.2c0.9,1.4,1.7,2.9,2.5,4.5
		c1.6,3.1,2.7,6.3,3.5,9.6c1,3.9,1.8,7.8,2.2,11.8c0.3,3.5,0.6,7,0.8,10.5c0.1,2.3,0.1,4.6,0.1,6.9c0,1.7-0.2,3.5-0.3,5.2
		c-0.1,1.2-0.1,2.4-0.2,3.6c-0.1,1.6-0.2,3.1-0.5,4.6c-0.2,1.2,0,2.4,0.3,3.6c0.5,1.9,0.6,3.8,0.7,5.7c0,0.8-0.2,1.6-0.4,2.4
		c-0.2,1.2-0.4,2.4-0.7,3.6c-0.2,0.9-0.7,1.7-1.1,2.6c-0.3,0.6-0.7,1.1-1.1,1.6c-0.2,0.2-0.4,0.4-0.7,0.6c-0.4,0.2-0.6,0.5-0.5,1
		c0,0.5,0.1,0.9,0.1,1.4c0,0.8-0.3,1.1-1.1,1.2c-0.2,0-0.3,0.1-0.5,0.2c-0.6,0.2-1.2,0.4-1.8,0.6c-0.6,0.1-1.2-0.4-1.3-1.1
		c-0.1-0.8-0.1-1.5-0.2-2.3c-0.1-0.5-0.2-1-0.4-1.6c-0.7-2-0.6-4.1-0.9-6.2c-0.6,0.1-1.1,0.3-1.7,0.4c-0.8,0.2-1.6,0.3-2.3,0.5
		c-0.6,0.1-1-0.1-1-0.7c-0.1-0.7-0.1-1.4-0.1-2.1c0-1,0-2,0-2.9s0.2-1,1.1-1.1c0.4,0,0.8-0.1,1.2-0.2c2-0.5,3.9-1.1,5.8-1.6
		c0.3-0.1,0.7-0.3,1-0.5c0.1-0.1,0.3-0.3,0.3-0.4c0.3-1.9,0.6-3.9,0.9-5.9c0.3-2.5,0.6-5.1,0.8-7.7c0.1-1.4,0.2-2.8,0.2-4.2
		c0.1-2.2,0.2-4.4,0.2-6.6c0-1.3-0.1-2.5-0.1-3.8c-0.1-2.2-0.2-4.3-0.5-6.5c-0.2-1.7-0.5-3.4-0.8-5.1c-0.4-2.1-0.9-4.3-1.6-6.3
		c-0.5-1.7-1.3-3.4-2-5c-0.8-2-2-3.9-3.3-5.6c-0.8-1-1.6-1.9-2.6-2.8c-0.9-0.8-1.8-1.5-2.8-2.2c-1.7-1.2-3.6-2.1-5.7-2.5
		c-1.7-0.3-3.4-0.5-5.2-0.5c-1.4,0-2.8,0.1-4.2,0.4c-2.1,0.4-4.1,0.9-6,1.8c-0.3,0.1-0.7,0.1-1,0.3c-2.2,1.1-4.3,2.2-6.5,3.4
		c-0.6,0.3-1.1,0.8-1.6,1.2c-0.3,0.2-0.7,0.4-1,0.7c-1.2,0.8-2.4,1.7-3.5,2.5c-0.9,0.6-1.7,1.3-2.5,2c-1.1,0.9-2.2,1.9-3.2,2.9
		c-1.1,1-2.1,1.9-3.2,2.9c-0.3,0.3-0.5,0.6-0.8,0.8c-1.2,1.3-2.5,2.6-3.7,3.9c-1,1.1-1.9,2.2-2.8,3.3c-0.9,1-1.7,2-2.6,3
		c-0.9,1-1.7,2.1-2.5,3.2c0,0.1,0.1,0.1,0.1,0.2c0.4-0.1,0.9-0.2,1.3-0.3c0.9-0.3,1.8-0.7,2.7-1.1c1-0.5,2-1.1,3-1.6
		c0.4-0.2,0.8-0.3,1.3-0.5c1.6-0.5,3-1.4,4.5-2.3c0.8-0.5,1.6-0.8,2.4-1.2c0.7-0.4,1.4-0.7,2-1.2c1.7-1.4,3.5-2.6,5.6-3.4
		c1.2-0.5,2.3-1.3,3.5-1.8c1-0.5,2.1-0.9,3.2-1.2c1.5-0.4,2.8-1.1,4.2-1.7c0.3-0.2,0.7-0.3,1-0.4c1.4-0.5,2.9-1,4.3-1.3
		c0.7-0.2,1.4-0.1,2.1-0.1c0.8,0,1.6-0.1,2.4,0c1.1,0.1,2.1,0.3,3.1,0.5c1.9,0.5,3.7,1.2,5.5,1.8c1.4,0.4,2.7,1,3.7,2
		c1.9,1.8,3.7,3.7,4,6.5c0.1,0.9,0.5,1.6,1.1,2.4c0.3,0.4,0.5,0.8,0.6,1.3c0.6,1.7,1.2,3.3,1.6,5.1c0.3,1.8,0.4,3.6,0.4,5.5
		c0.1,3.3-0.4,6.6-1,9.9c-0.4,2.1-0.9,4.3-1.9,6.2c-0.6,1.1-1.2,2.2-1.8,3.3c-0.6,1.1-1.5,1.8-2.3,2.8c-0.6,0.7-1.1,1.5-1.6,2.3
		c-0.5,0.9-1.2,1.5-2.2,2c-1.3,0.7-2.6,1.5-3.9,2.2c-0.3,0.2-0.6,0.4-0.8,0.7c-0.8,0.9-1.9,1.1-2.9,1.5c-1.4,0.5-2.8,0.7-4,1.6
		c-1.1,0.8-2.3,1.2-3.5,1.5c-1.4,0.4-2.8,0.5-4.2,0.8c-0.8,0.1-1.5,0.4-2.3,0.5c-1.4,0.1-2.8,0.3-4.2,0.3c-1.6,0-3.2-0.1-4.7-0.2
		c-1.1,0-2.3-0.1-3.4-0.1c-1.3,0-2.6,0-3.8-0.1c-1-0.1-2-0.4-3-0.6s-2-0.3-2.9-0.4c-0.5-0.1-1-0.3-1.5-0.3c-1.6-0.3-3.3-0.5-4.9-0.7
		c-0.3,0-0.7,0.2-1.1,0.2c-0.8,0-1.7,0-2.5,0.1c-0.5,0-1,0.3-1.6,0.3c-1.7,0-3,0.8-4.2,1.9c-0.9,0.8-1.8,1.4-2.6,2.3
		c-1.5,1.6-2.2,3.5-2.2,5.7c0,0.2,0,0.4,0,0.5c-0.4,1.4,0.1,2.5,1.1,3.5c0.7,0.7,1.2,1.6,1.9,2.2c1.2,0.9,2.3,1.8,3.8,2.3
		c0.5,0.2,0.9,0.7,1.4,1c0.7,0.4,1.5,0.8,2.3,1.1c1.1,0.3,2.2,0.6,3.4,0.8c1.4,0.3,2.9,0.4,4.4,0.6c1.6,0.2,3.3,0.4,5,0.5
		c0.9,0.1,1.8,0,2.7-0.1c1.2-0.1,2.3-0.2,3.5-0.3c1.3-0.2,2.6-0.4,3.9-0.7c1.2-0.3,2.3-0.9,3.4-1.3c0.9-0.3,1.8-0.6,2.7-0.8
		c1.9-0.5,3.5-1.4,5.2-2.3c1.2-0.6,2.4-1,3.7-1.5c1.2-0.5,2.3-1,3.5-1.4c1.1-0.4,2.1-0.8,3.2-1c1.8-0.4,3.6-0.5,5.3-0.9
		c0.7-0.1,1.3-0.5,1.9-0.7c1.1-0.3,2.3-0.5,3.4-0.6c1.2-0.1,2.4,0.2,3.6,0.1c1.1-0.1,1.8,0.5,2.6,0.9c2.1,1.1,3.4,3,4.6,4.9
		c0.3,0.4,0.6,0.7,0.9,1.1c0.6,1,1.2,1.9,1.7,3c0.7,1.5,1.4,3,1.8,4.6c0.5,1.8,0.7,3.7,1,5.6c0.2,1.3,0.4,2.7,0.4,4
		c0,1.8-0.2,3.5-0.4,5.3c-0.1,1.1-0.2,2.1-0.4,3.1c-0.2,1.2-0.4,2.4-0.6,3.5c-0.3,1.3-0.5,2.6-0.8,3.9c-0.2,0.8-0.4,1.7-0.8,2.5
		c-0.9,1.7-1.9,3.3-2.8,4.9c-0.8,1.5-2.1,2.6-3.5,3.6c-0.8,0.6-1.8,0.8-2.7,1.4c-0.9,0.5-1.8,1.1-2.6,1.8c-1.1,0.8-2.1,1.7-3.4,2.2
		c-1.6,0.5-3.2,1.1-4.8,1.7c-1.5,0.6-3,1.2-4.5,1.8c-1.5,0.5-3,0.9-4.5,1.2c-1.6,0.3-3.1,0.1-4.7,0.1c-0.8,0-1.5-0.2-2.3-0.3
		c-1.5-0.2-3-0.2-4.5-0.5c-0.9-0.1-1.8-0.5-2.8-0.8c-0.6-0.2-1.2-0.3-1.8-0.4c-0.9-0.2-1.7-0.4-2.6-0.5c-0.4-0.1-0.8,0-1.2-0.1
		c-1.3-0.2-2.6-0.3-3.9-0.5c-0.6-0.1-1.2-0.4-1.8-0.5s-1.2-0.2-1.8-0.3c-1.2-0.3-2.3-0.5-3.5-0.9c-1-0.3-2-0.5-3-0.5
		c-1.7,0-3.4,0-5.1,0c-1.5,0-2.8,0.8-4,1.7c-0.6,0.5-1.3,0.9-1.7,1.7c-0.5,1-0.6,1.9-0.1,2.9c0.7,1.4,1,2.9,1.1,4.4
		c0.1,1.2-0.7,2-1.7,2.6c0,0-0.1,0.1-0.1,0c-0.5-0.1-1.1-0.1-1.5-0.3c-0.3-0.2-0.6-0.6-0.8-1c-0.6-1.9-0.9-3.9-0.8-6
		c0-0.3-0.1-0.5-0.2-0.8c0-0.3-0.1-0.5-0.1-0.8c0.1-0.9,0.2-1.8,0.3-2.7c0.4-2.3,1.4-4.4,2.9-6.2c0.1-0.1,0.3-0.3,0.4-0.3
		c1-0.5,2.1-1.1,3.1-1.6c-0.2-0.1-0.5-0.1-0.7-0.2c-1.1-0.4-2.3-0.8-3.4-1.2c-1.2-0.4-2.4-0.9-3.6-1.4c-1.8-0.8-3.5-1.7-4.8-3.2
		c-0.4-0.5-1.1-0.8-1.6-1.2c-0.4-0.3-0.7-0.6-0.9-1.1c-0.6-1-1.1-2.1-1.5-3.2c-0.2-0.4-0.2-0.9-0.1-1.3c0.1-1.1,0.2-2.1,0.3-3.1
		c0-0.3,0.2-0.5,0.3-0.7c0.2-0.4,0.5-0.7,0.7-1.1c0.3-0.6,0.7-1.1,1.4-1.4c0.2-0.1,0.3-0.4,0.5-0.5c0.6-0.4,1.3-0.8,1.9-1.1
		c0.6-0.3,1.2-0.6,1.7-0.9c1.4-0.9,3-1,4.5-1.5c0.4-0.1,0.9-0.2,1.3-0.4c1.4-0.4,2.6,0.2,3.5,1.4c0.7,0.9,0.1,1.7-0.1,2.5
		c-0.2,0.6-0.6,1.2-1,1.8c-0.1,0.1-0.3,0.2-0.4,0.3c-0.9,0.6-1.9,0.7-2.9,0.8c-1.3,0.1-2.6,0.1-3.8,0.1c-0.2,0-0.4,0.1-0.5,0.2
		c-1,0.9-1.6,2.1-1.5,3.4c0.1,1.1,0.3,2.3,1.4,3c0.9,0.6,1.8,1.3,2.7,1.8c0.7,0.4,1.4,0.6,2.2,0.8c1.1,0.3,2.3,0.6,3.5,0.9
		c1.3,0.3,2.6,0.8,3.9,1c2.1,0.3,4.2,0.4,6.3,0.6c0.8,0.1,1.6,0.3,2.5,0.5c0.2,0,0.5-0.1,0.8-0.1c0.2,0,0.3-0.1,0.4-0.1
		c1.3,0.3,2.6,0.5,3.8,0.8c1.7,0.4,3.5,0.8,5.2,1.2c1.3,0.3,2.6,0.7,3.9,1c1.9,0.4,3.9,0.7,5.9,0.5c1-0.1,2.1,0.1,3.1,0
		c0.9,0,1.9-0.1,2.8-0.2c0.8-0.1,1.6-0.2,2.4-0.3c2.6-0.4,5.2-1.1,7.7-2.2c1.3-0.5,2.7-1,4-1.6c2.1-1,4.2-1.9,6.1-3.2
		c1.6-1,3.2-2,4.5-3.4c0.8-0.9,1.5-1.9,2-3c1.2-2.2,1.6-4.7,1.6-7.2s-0.5-5-1.7-7.2c-0.6-1.1-1.2-2.2-2-3.2c-1-1.3-2.1-2.4-3.6-3.1
		c-0.7-0.3-1.5-0.5-2.3-0.5c-1.9,0-3.7,0.1-5.6,0.2c-1,0-2.1,0.1-3.1,0.3c-1,0.1-2.1,0.4-3.1,0.6s-1.9,0.5-2.9,0.8
		c-1.1,0.3-2.1,0.5-3.2,0.7c-1.4,0.3-2.9,0.6-4.3,0.9s-2.8,0.5-4.1,0.7c-2,0.3-3.9,0.6-5.9,0.8c-1.6,0.2-3.2,0.3-4.9,0.4
		c-2.2,0.2-4.4,0.5-6.6,0.5c-1.8,0-3.6-0.3-5.3-0.6c-1.7-0.3-3.4-0.8-5-1.2c-1.2-0.3-2.4-0.6-3.5-1.1c-1.7-0.7-3.3-1.7-5-2.4
		c-1.1-0.5-2.1-1-2.9-1.9c-1.1-1.1-2.1-2.3-3-3.5c-1.4-1.9-2.1-4.1-2.6-6.3c-0.4-1.7-0.4-3.5-0.1-5.3c0.4-2.3,1.1-4.5,2.3-6.6
		c0.9-1.5,1.6-3.1,2.7-4.5c0.9-1.2,1.7-2.4,3-3.3c0.9-0.6,1.7-1.4,2.8-1.7c1-0.2,1.9-0.5,2.9-0.5c2.1-0.2,4.2,0.1,6.3,0.4
		c2.2,0.3,4.4,0.9,6.6,1.2c1.3,0.2,2.7,0.4,4,0.4c2.4,0.1,4.9,0.1,7.3,0c1.5,0,3-0.2,4.5-0.2c1.6,0,3.3,0.1,4.9,0.2
		c0.4,0,0.7,0,1.1,0c2.3-0.1,4.7-0.2,7-0.9c1.4-0.4,2.7-1.1,4-1.6c0.7-0.3,1.3-0.6,1.9-0.9c0.3-0.1,0.5-0.4,0.8-0.6
		c0.5-0.4,1.1-0.7,1.6-1c1.3-0.9,2.6-1.8,3.8-2.9c1.8-1.6,3.5-3.3,5-5.3c2.7-3.7,4-7.9,4-12.4c0-3.1-0.5-6.2-1.4-9.1
		c-0.4-1.4-1-2.7-1.5-4c-0.5-1.5-1.5-2.5-2.8-3.3c-1.2-0.8-2.4-1.5-3.6-2.1c-0.6-0.3-1.4-0.4-2.1-0.5c-1.2-0.1-2.5-0.1-3.7-0.1
		c-0.8,0-1.6,0.1-2.4,0.3c-1.6,0.3-3,0.9-4.5,1.5c-2.5,1.1-5,2.1-7.4,3.2c-1.3,0.6-2.6,1.3-3.9,1.9c-1.8,0.8-3.6,1.7-5.4,2.4
		c-1.3,0.6-2.8,1-4.1,1.6c-0.8,0.3-1.6,0.8-2.3,1.2c-1.1,0.6-2.3,1.1-3.3,1.7c-1.4,0.8-2.9,1.2-4.4,1.7c-1.4,0.5-2.9,0.9-4.3,1.3
		c-0.8,0.2-1.7,0.4-2.6,0.5c-0.4,0.1-0.8-0.1-1.2-0.1c-0.9-0.1-1.8-0.3-2.7-0.4c-0.3,0-0.7,0.1-0.9,0.3c-0.9,0.9-1.8,1.8-2.6,2.8
		c-1.2,1.5-2.2,3.2-3.4,4.7c-1.2,1.6-2.6,3-3.9,4.6c-0.9,1-1.8,2-2.6,3c-0.5,0.7-0.9,1.4-1.4,2.1c-0.1,0.1,0,0.4,0,0.5
		c0.2,0,0.4,0,0.5-0.1c1.7-1.3,3.7-2,5.7-2.6s4-1,6.1-1.5c1.4-0.3,2.8-0.6,4.2-0.7c1.1-0.1,2.1,0,3.2,0.1c0.8,0.1,1.1-0.1,1.1-1
		c-0.1-1.8,0.2-3.6,1-5.3c0.3-0.5,0.6-1,0.9-1.5c0.3-0.5,0.7-0.5,1-0.1c0.6,0.6,1.1,1.2,1.7,1.8c0.6-0.3,1.4-0.7,2.2-1.1
		c0.6-0.3,0.9-0.2,1.1,0.4c0.3,1.5,0.6,3,0.8,4.6c0.1,0.5-0.2,0.8-0.7,0.9c-0.4,0.1-0.7,0.3-1.1,0.5c0.3,0.4,0.6,0.7,0.8,1.1
		c0.4,0.8,0.3,1.6,0,2.4c-0.1,0.3-0.1,0.6,0.1,1c0.5,1.1,0.7,2.2,0.1,3.3c-0.1,0.1,0,0.3,0,0.5c0,0.4,0.1,0.8,0,1.3
		c-0.2,1.3-1.9,2.6-3.2,2.4c-1.1-0.1-2.1-0.4-2.8-1.4c-0.3-0.5-0.6-1.1-0.8-1.6c-0.5-1.3-0.5-1.3-1.8-1.3c-1.2,0-2.5,0-3.7,0
		c-2.2,0.1-4.3,0.1-6.5,0.5c-1.6,0.2-3.1,0.9-4.5,1.5c-1.2,0.5-2.4,1.2-3.6,1.9c-0.8,0.5-1.5,1.1-2.4,1.6s-1.4,1.2-1.8,2.1
		c-0.2,0.7-1.3,0.9-2,0.7c-1.3-0.5-1.9-1.3-1.5-2.6c0.4-1.4,0.1-2.6,0-3.9c-0.1-2.6,0.3-5.1,1.6-7.4c1-1.9,2.4-3.4,3.8-4.9
		c0.7-0.8,1.3-1.7,2-2.4c0.6-0.6,1.3-1.1,1.9-1.7c0.9-1.1,1.7-2.2,2.7-3.3c0.9-0.9,1.8-1.8,2.8-2.6C38,57.9,38.8,57.3,39.5,56.8z
		 M105,105.3c-0.3,0-0.6,0.1-0.8,0.1c-0.9,0.1-1.8,0-2.7,0.2c-1.1,0.2-2.1,0.6-3.2,0.9c-0.4,0.1-0.9,0.4-1.3,0.5
		c-1,0.2-2,0.5-3.1,0.6c-1.7,0.2-3.4,0.6-5,1.2c-0.8,0.3-1.4,0.8-2.2,1.1c-1.6,0.6-3.2,1.1-4.8,1.8c-0.9,0.3-1.6,0.9-2.4,1.3
		c-1,0.5-2.1,0.8-3.1,1.2c-0.6,0.2-1.2,0.3-1.8,0.5c-1.5,0.5-2.9,1.1-4.4,1.7c-1.5,0.5-3.1,0.7-4.7,0.8c-1.8,0.1-3.6,0.3-5.3,0.4
		c-1,0.1-2.1-0.1-3.2-0.1c-0.5,0-1.1,0-1.6-0.1c-0.8-0.1-1.6-0.3-2.4-0.5c-1.2-0.2-2.4-0.3-3.6-0.6c-0.9-0.2-1.8-0.4-2.7-0.7
		c-0.7-0.2-1.4-0.6-2-1s-1.2-0.8-1.8-1.2c-0.4-0.2-0.9-0.3-1.3-0.5c-0.6-0.4-1.2-0.8-1.8-1.3c-0.5-0.4-1-0.8-1.5-1.3
		c-0.7-0.7-1.3-1.6-2-2.3c-0.5-0.6-0.9-1.2-0.9-2c0-2.4-0.1-4.9,1-7.2c0.5-1,0.9-2.1,1.8-3c1.5-1.4,2.9-2.7,4.7-3.7
		c0.4-0.2,0.8-0.4,1.2-0.5c0.9-0.2,1.9-0.3,2.8-0.4c0.4,0,0.8,0,1.2,0s0.9,0.1,1.3,0c1.7-0.5,3.4,0,5.1,0.2c1.1,0.1,2.2,0.4,3.3,0.6
		c0.9,0.2,1.8,0.2,2.7,0.4c2.4,0.6,4.8,0.5,7.1,0.6c1.2,0,2.3,0,3.5,0.1c2,0.1,4,0.4,6,0.2c1.3-0.1,2.5-0.3,3.8-0.5
		c1-0.2,2-0.4,3.1-0.6c1.3-0.2,2.5-0.5,3.7-1.1c1-0.5,2-1,3-1.5c0.7-0.3,1.5-0.5,2.2-0.8c1.2-0.4,2.4-0.7,3.3-1.7
		c0.5-0.5,1.1-0.9,1.8-1.2c0.8-0.5,1.6-0.9,2.4-1.3c1-0.6,1.9-1.2,2.5-2.3c0.3-0.6,0.6-1.1,1-1.6c0.9-1,1.9-1.9,2.6-3.1
		c0.6-1.1,1.4-2.2,1.9-3.3c1.1-2.9,1.8-5.9,2-9c0.1-1.7,0.3-3.5,0.4-5.2c0-0.6,0-1.2,0-1.8c-0.1-1.1-0.1-2.2-0.4-3.3
		c-0.2-1.1-0.6-2.2-1-3.3c-0.3-0.9-0.7-1.8-1.1-2.7c-0.3-0.6-0.6-1.1-0.8-1.7c-0.3-0.9-0.6-1.7-0.8-2.6c-0.2-0.9-0.7-1.5-1.3-2.1
		c-0.4-0.4-0.9-0.8-1.2-1.2c-0.8-1-1.7-1.7-2.9-2.1c-1.5-0.5-3-0.9-4.5-1.4c-0.9-0.3-1.7-0.7-2.6-1c-2-0.5-4.1-0.3-6.1-0.2
		C85.5,36.8,83.3,38,81,39c-1,0.4-2,0.8-3,1.2c-0.9,0.3-1.9,0.4-2.6,0.9c-1.4,0.8-2.9,1.7-4.4,2.3s-2.9,1.5-4.2,2.5
		c-1,0.8-2.1,1.3-3.2,2c-0.9,0.5-1.8,0.9-2.7,1.4s-1.8,1.1-2.8,1.6c-1.1,0.6-2.4,0.7-3.4,1.5c-0.3,0.2-0.5,0.4-0.8,0.5
		c-0.8,0.4-1.6,0.7-2.4,1.1c-1.4,0.6-2.9,0.9-4.4,0.9c-0.4-0.7-0.3-1.4,0.1-2.1c0.8-1.2,1.7-2.4,2.6-3.6c1.7-2.1,3.4-4.2,5.2-6.2
		c1.5-1.7,3.1-3.5,4.6-5.2c0.5-0.6,1.1-1.1,1.7-1.6c0.7-0.6,1.3-1.2,2-1.8c1.1-1,2.1-2.1,3.2-3c1.5-1.2,3.1-2.4,4.6-3.5
		c1.8-1.3,3.6-2.5,5.5-3.7c2.4-1.5,5.1-2.7,7.8-3.7c2.5-1,5.2-1.5,7.9-1.8c0.6-0.1,1.2-0.1,1.9-0.1c-0.1-1.4-0.1-2.6-0.2-3.9
		c-0.5,0-1,0-1.4,0c-1,0.1-2.1,0.2-3.1,0.4c-0.8,0.1-1.5,0.3-2.3,0.5c-0.7,0.2-1.3,0.5-1.9,0.7c-1.8,0.6-3.5,1.1-5.2,2
		c-1.1,0.6-2.2,1.1-3.3,1.8c-1.4,0.8-2.8,1.7-4.1,2.7c-0.9,0.7-1.8,1.4-2.7,2.1c-1.4,1.1-2.8,2.1-4,3.2c-1.9,1.8-3.8,3.6-5.6,5.5
		c-2,2.1-3.9,4.2-5.8,6.3c-1.8,2.1-3.5,4.4-5.3,6.6c-1.1,1.4-2.1,2.8-3.1,4.2c-0.9,1.1-1.7,2.3-2.6,3.4c-0.1,0.1-0.1,0.4-0.1,0.5
		c0.2,1.3-0.6,2.6-2,2.3c-0.2,0-0.4,0.1-0.6,0.2c-1.2,1.2-2.4,2.4-3.6,3.6c-1,1.1-1.9,2.2-2.8,3.3c-0.8,1-1.5,2.1-2.5,2.9
		c-1.1,1-1.9,2.2-3,3.5c0.6,0.2,1.1,0.4,1.6,0.6c0.4,0.2,0.7,0.1,0.9-0.2c0.9-1.1,1.8-2.1,2.7-3.2c0.5-0.6,0.9-1.3,1.4-1.9
		c0.5-0.7,1.2-1.2,1.7-1.9c1.1-1.4,2.3-2.8,3.4-4.2c0.1-0.2,0.3-0.3,0.5-0.4c0.5-0.4,1-0.8,1.4-1.3c0.7-0.9,0.8-1,1.9-0.6
		c1.4,0.5,2.8,0.7,4.2,0.3c1.1-0.3,2.3-0.7,3.4-1c1.8-0.6,3.6-1.1,5.4-1.8c1.2-0.5,2.4-1.1,3.6-1.7c1.4-0.7,2.8-1.4,4.3-2.1
		c0.8-0.4,1.6-0.7,2.4-0.9c1.6-0.4,3.1-1.2,4.5-1.9c1-0.5,1.9-1.1,2.9-1.5c1-0.5,2.1-0.9,3.1-1.3c1.3-0.6,2.6-1.2,4-1.8
		c0.8-0.4,1.6-0.7,2.5-1.1c0.9-0.4,1.8-0.9,2.7-1.2c1.1-0.3,2.2-0.5,3.3-0.6c1.3-0.1,2.6-0.2,4-0.2c0.4,0,0.9,0.1,1.4,0.2
		c0.8,0.2,1.6,0.2,2.3,0.6c1.2,0.6,2.4,1.4,3.6,2.2c1,0.7,2.1,1.3,2.6,2.5c0.6,1.4,1.2,2.7,1.7,4.1c0.4,1,0.8,2.1,1,3.1
		c0.7,3.2,1.2,6.5,1,9.9c-0.1,2.3-0.6,4.6-1.3,6.7c-0.6,1.8-1.5,3.4-2.5,4.9c-0.9,1.2-1.7,2.5-2.8,3.6c-1.4,1.4-2.9,2.8-4.5,4
		c-1.4,1.1-2.9,2.1-4.4,3c-1.8,1-3.6,2.1-5.6,2.7c-0.7,0.2-1.3,0.4-2,0.5c-0.9,0.1-1.7,0.2-2.6,0.3c-1.5,0.1-3,0.2-4.5,0.2
		c-0.7,0-1.4-0.1-2-0.1c-1.2,0-2.4,0.1-3.6,0.1c-1.1,0-2.3,0-3.4,0c-1,0-2,0.1-3,0.1c-2.3-0.1-4.5-0.2-6.8-0.3c-0.5,0-1,0-1.5-0.1
		c-1.4-0.3-2.8-0.7-4.2-0.9c-1.4-0.3-2.8-0.4-4.2-0.6c-1.7-0.2-3.4-0.5-5.2-0.2c-1.4,0.2-2.9,0.4-4.1,1.4c-1.6,1.3-3.1,2.7-4.1,4.5
		c-1.3,2.2-2.7,4.3-3.5,6.8c-0.8,2.2-1,4.4-0.5,6.6c0.5,2.4,1.4,4.6,3,6.5c0.8,1,1.6,2.1,2.7,2.9c1.4,1,3.1,1.8,4.7,2.6
		c0.8,0.4,1.6,0.6,2.4,0.9c0.8,0.3,1.6,0.7,2.4,0.9c1.1,0.3,2.2,0.6,3.3,0.9c1.6,0.4,3.2,0.7,4.8,0.9c1.2,0.2,2.4,0.2,3.6,0.2
		c1.4,0,2.7-0.1,4.1-0.2c0.9-0.1,1.8-0.2,2.7-0.2c1.7-0.1,3.4-0.2,5.1-0.4c1.7-0.2,3.4-0.5,5.1-0.8c1.2-0.2,2.4-0.3,3.6-0.5
		s2.3-0.5,3.5-0.7c0.9-0.2,1.7-0.3,2.6-0.6c1.9-0.5,3.8-1,5.7-1.4c2.5-0.5,5.1-0.8,7.6-0.9c1,0,1.1-0.1,1.4-1c0.6-1.5,1.2-2.9,2-4.3
		C102.7,109.1,103.9,107.3,105,105.3z M92.3,154.9c0.5-0.1,0.8-0.2,1.1-0.3c1.9-0.8,3.9-1.6,5.8-2.4c0.6-0.3,1.2-0.6,1.6-1
		c1.3-1.3,3-2.1,4.6-3c0.8-0.4,1.5-0.9,2.1-1.5c0.6-0.7,1.3-1.3,1.9-1.9c0.8-0.9,1.7-1.6,2.2-2.6c0.8-1.4,1.4-3,2-4.5
		c0.2-0.6,0.5-1.2,0.6-1.9c0.1-1.5,0.2-3.1,0.2-4.6c0-2.7-0.4-5.4-1.2-8c-0.4-1.1-1-2.2-1.4-3.4c-0.3-0.9-0.8-1.4-1.6-1.9
		c-0.5-0.3-1.1-0.6-1.7-0.9c-0.7-0.4-1.2-1-1.5-1.7c-0.2-0.4-0.1-0.9,0.3-1.2c0.4-0.3,0.7,0.1,1,0.3c0.5,0.4,1,0.8,1.5,1
		c1.4,0.6,2.3,1.7,2.9,3.1c0.4,0.8,0.7,1.7,1,2.5c0.3,0.9,0.7,1.8,0.9,2.8c0.3,1.6,0.6,3.2,0.8,4.8c0.1,1.4,0.1,2.8,0.1,4.2
		c0.1,2.2-0.2,4.3-1.1,6.3c-0.6,1.4-1.1,2.8-1.7,4.1c-0.5,1.1-1.3,2-2.2,2.8c-0.9,0.8-1.8,1.6-2.5,2.5c-0.6,0.8-1.5,1.3-2.3,1.7
		c-1.1,0.6-2.1,1.1-3.2,1.8c-0.9,0.6-1.7,1.3-2.5,1.8s-1.7,0.8-2.6,1.1c-2,0.8-3.9,1.5-5.9,2.2c-1,0.4-2.1,0.6-3.1,1
		c-1.4,0.5-2.8,1.1-4.3,1.4c-1.3,0.3-2.7,0.2-4.1,0.2c-0.7,0-1.5,0-2.2-0.2c-1.8-0.3-3.5-0.9-5.3-0.9c-0.7,0-1.4-0.2-2.1-0.3
		c-0.9-0.2-1.8-0.6-2.7-0.8c-1.8-0.5-3.5-0.9-5.3-1.3c-0.3-0.1-0.6-0.1-0.9-0.1c-1.1-0.1-2.2-0.2-3.4-0.3c-0.8,0-1.5,0-2.3,0
		c-1.5-0.1-2.9-0.2-4.4-0.3c-0.8,0-1.7,0-2.5,0c-1.5,0.1-3-0.2-4.3,0.5c-1.2,0.6-2.5,1.1-3.2,2.3c-0.8,1.4-1.7,2.9-2,4.5
		c-0.2,0.8-0.3,1.7-0.4,2.4c0.5-0.2,0.9-0.5,1.4-0.7c0.3-0.1,0.4-0.2,0.5-0.5c0.3-1.3,0.8-2.6,1.9-3.4c0.9-0.6,1.8-1.1,2.6-1.7
		c1-0.6,2-0.8,3.1-0.9c1.6-0.1,3.1,0,4.7,0c1.2,0,2.4,0,3.5,0.7c0.6,0.3,1.2,0.5,1.8,0.6c1.2,0.2,2.5,0.4,3.7,0.6
		c0.5,0.1,1.1,0.3,1.6,0.4c1.6,0.2,3.2,0.4,4.8,0.6c0.9,0.1,1.7,0.3,2.6,0.4c0.3,0,0.5,0,0.8,0.1c1,0.3,1.9,0.7,2.9,1
		c0.5,0.1,1.1,0.1,1.6,0.2c0.8,0.1,1.6,0.3,2.5,0.4c2.2,0.2,4.3,0.3,6.5,0.4c0.3,0,0.6,0.1,0.9,0c1.9-0.5,3.8-0.7,5.6-1.6
		c1.1-0.6,2.3-0.9,3.5-1.3c0.9-0.3,1.9-0.7,2.8-1c0.5-0.2,1.1-0.3,1.6-0.6c0.9-0.5,1.8-1,2.6-1.5c0.8-0.6,1.5-1.3,2.4-1.8
		c1.2-0.8,2.6-1.4,3.8-2.1c1.3-0.7,2.4-1.6,3.1-2.9c0.3-0.4,0.5-0.9,0.8-1.3c1.3-1.8,2.3-3.8,2.8-6c0.2-0.9,0.4-1.7,0.6-2.6
		c0.2-0.7,0.4-1.4,0.5-2.1c0.2-1.3,0.4-2.5,0.6-3.8c0.2-1.8,0.5-3.6,0.6-5.5c0.1-0.9-0.2-1.8-0.3-2.7c-0.3-3.1-0.5-6.2-1.9-9
		c-0.9-1.9-1.4-4.1-3-5.6c-0.1-0.1-0.2-0.3-0.3-0.5c-0.5-0.7-1-1.5-1.4-2.1c-0.6,0.4-1.1,0.7-1.7,1c-0.5,0.2-1.2,0-1.4-0.4
		c-0.1-0.2-0.1-0.5-0.1-0.7c0.1-0.1,0.4-0.2,0.6-0.3c0.6-0.1,1.2-0.2,1.6-1c-0.9-0.5-1.7-1.1-2.6-1.5s-1.4-0.2-1.9,0.7
		c-0.5,0.8-0.8,1.6-1.3,2.3c-0.7,1.1-1.5,2.2-2.2,3.3c-0.6,1-1.1,2.1-1.7,3.3c1.5-0.3,2.9,0.1,4.4,0.6c0-0.1,0-0.3,0-0.4
		c-0.1-0.7-0.1-1.3-0.2-2c-0.1-0.4-0.1-0.9,0.3-1c0.5-0.1,0.5,0.5,0.6,0.8c0.1,0.9,0.2,1.9,0.3,2.8c0,0.3,0.2,0.6,0.4,0.8
		c0.9,1,1.9,1.9,2.7,2.9c1.3,1.7,2.1,3.8,2.7,5.8c0.5,1.7,0.7,3.5,0.8,5.3c0.1,2.2-0.3,4.3-1,6.4c-0.7,2.1-1.8,3.9-3.4,5.6
		c-1.5,1.5-3.2,2.6-4.9,3.7c-1.6,1.1-3.5,1.9-5.2,2.7c-1.2,0.6-2.5,1-3.8,1.5c-0.7,0.3-1.4,0.6-2.2,0.9c0.2,0.4,0.3,0.7,0.5,0.9
		C92.6,154,92.7,154.3,92.3,154.9z M18.3,27.2c0,0.2,0,0.3,0,0.5c0,2-0.1,4-0.1,6c0,3.3-0.1,6.6-0.1,9.9c0,1.7,0,3.4,0.1,5.1
		c0.2,2.6,1,4.4,4,4.9c1.4,0.2,2.9,0.3,4.3,0.4c1.5,0.1,3,0,4.5-0.1c1.4,0,2.7,0,4.1-0.1c1.5-0.1,2.9-0.3,4.4-0.4
		c1.2-0.1,2.4-0.1,3.4-1s1.6-2.1,2-3.3c0.8-2.4,0.9-4.8,1-7.3c0-0.2-0.1-0.3-0.2-0.5c-0.1,0.1-0.3,0.3-0.3,0.4
		c-0.4,1-0.8,2.1-1.3,3.1c-0.1,0.3-0.4,0.5-0.6,0.7c-1.3,1.5-3.1,2.2-4.8,3.2C37,49.8,35,49.9,33,49.9c-1.9,0-3.8,0-5.7-0.2
		c-0.8-0.1-1.7-0.4-2.4-0.7c-0.6-0.3-1.2-0.7-1.7-1c-2-1.2-3.4-2.9-3.8-5.2c-0.1-0.5-0.5-0.9-0.2-1.5c0,0,0-0.1,0-0.2
		c0-0.5-0.2-1.1-0.1-1.6c0.2-1.3,0.5-2.7,1.8-3.3c0.5-0.2,1-0.4,1.5-0.6c1.1-0.5,2.1,0.2,2.6,1c0.5,0.9,1,1.9,1.4,2.9
		c0.5,1.1,1.3,1.7,2.4,2.1c2.7,0.9,5.3,0.4,7.9-0.6c0.6-0.2,1.1-0.7,1.3-1.4c0.3-0.7,0.6-1.4,1-2.2c0.3-0.6,0.8-1,1.4-1.3
		c0.9-0.4,1.7-0.4,2.7-0.3c1.9,0.2,3.1,1.8,2.8,3.6c-0.1,0.5-0.1,1-0.2,1.6c0.1,0,0.2-0.1,0.2-0.1c0-0.1,0.1-0.2,0.1-0.3
		c0-1.7,0.1-3.5,0.1-5.2c0-2.4-0.2-4.8-0.3-7.2c0-0.3-0.2-0.8-0.4-0.8c-0.4-0.1-0.9,0-1.4,0c0,0.2,0,0.3,0,0.4
		c0.2,0.9,0.5,1.8,0.7,2.8c0.2,0.9,0.5,1.8,0.6,2.8c0.1,0.7-0.5,1.4-1.1,1.5c-0.8,0.1-1.4-0.4-1.6-1.2c-0.1-0.5-0.2-0.9-0.3-1.4
		c-0.1-0.4-0.2-0.8-0.3-1.3c-0.2,0.3-0.3,0.5-0.4,0.8c-0.2,0.6-0.3,1.2-0.6,1.8c-0.4,0.9-0.8,1.1-1.7,0.8c-0.3-0.1-0.6-0.4-0.8-0.7
		c-0.4-0.8-0.7-1.7-1.1-2.5c-0.1,0-0.1,0-0.2,0c-0.2,0.4-0.3,0.7-0.5,1.1c-0.3,0.8-0.6,1.6-1,2.3c-0.3,0.6-1,0.6-1.4,0
		s-0.4-1.2-0.2-1.8c0.6-1.8,1.2-3.6,1.8-5.4c-0.9-0.1-1.6-0.2-2.4-0.3c-0.3,0-0.4,0.1-0.4,0.4c0,1.2-0.1,2.4-0.1,3.6c0,1,0.1,2,0,3
		c0,0.7-0.7,1.2-1.4,1.2c-0.4,0-1.1-0.8-1.1-1.3c-0.1-1.7-0.1-3.5-0.1-5.2c0-0.6,0-1.3,0-2c-1.3,0.1-2.6,0-3.8,0.2
		c-0.1,0-0.2,0.4-0.2,0.5c0.3,0.8,0.6,1.6,1,2.4c0.6,1.2,0.8,2.5,0.9,3.8c0.1,0.8-0.4,1.4-1.2,1.2c-0.6-0.1-1.2-0.3-1.4-1
		c-0.1-0.3-0.2-0.6-0.3-0.8c-0.1-0.4-0.3-0.5-0.7-0.5c-0.6,0-1.2,0-1.9,0c-1.2,0-1.2,0-1.6,1.1c-0.1,0.2-0.1,0.3-0.2,0.5
		c-0.3,0.7-0.7,0.9-1.4,0.8c-0.6-0.1-0.9-0.5-0.8-1.2c0.2-1.2,0.5-2.4,0.8-3.6c0.3-1,0.6-1.9,0.9-2.9C20,27.2,19.1,27.2,18.3,27.2z
		 M117.1,99.6c0.1,0,0.1,0,0.2,0c0.2-0.3,0.5-0.5,0.7-0.8c1.3-1.6,1.8-3.6,2.2-5.6c0.2-0.8,0.4-1.6,0.4-2.4c0-2.1-0.3-4.2-0.8-6.2
		c-0.4-1.7-0.1-3.4,0-5.1c0.2-2.7,0.5-5.4,0.7-8.1c0.1-1.4,0-2.7,0-4.1s0.1-2.7,0.1-4.1c-0.1-3.1-0.2-6.1-0.5-9.2
		c-0.2-2.8-0.6-5.5-1-8.2c-0.4-2.3-0.8-4.7-1.4-7c-0.7-2.4-1.5-4.7-2.4-7c-1-2.6-2.3-5.1-4-7.3c-0.7-1-1.3-1.9-0.5-3.1
		c0.1-0.1,0-0.3,0-0.4c0-0.4-0.6-0.9-1-0.9c-0.5,0-1.1,0.1-1.6,0.1c-0.3,0-0.7-0.1-0.9-0.3c-0.8-0.6-1.7-1.2-2.5-1.9
		c-1.3-1-2.9-1.8-4.5-2.3c-0.6-0.2-1.3-0.3-1.9-0.5c-0.5-0.1-1-0.4-1.6-0.5s-1.3-0.1-2-0.1c0.2,1.2,0.4,2.3,0.6,3.4
		c0.1,0.4,0.2,0.5,0.6,0.5c2.9,0.2,5.5,1.1,8,2.6c1.4,0.9,2.7,1.8,3.8,3c1,1.1,2.1,2.3,3,3.6c1.1,1.7,2.2,3.5,3.1,5.4
		c0.8,1.7,1.4,3.5,2,5.3c0.7,2.5,1.4,5.1,1.9,7.7c0.4,2.4,0.7,4.8,0.9,7.2c0.2,2.1,0.3,4.2,0.3,6.3c0,2.3,0,4.6-0.1,6.9
		c0,1.6-0.1,3.3-0.3,4.9c-0.2,2.1-0.4,4.2-0.7,6.4c-0.3,2.3-0.6,4.6-1,6.9c-0.1,0.5-0.3,1-0.5,1.4c-0.2,0.3-0.6,0.6-1,0.8
		c-0.9,0.5-1.8,1-2.8,1.3c-1.3,0.5-2.6,0.8-3.9,1.2c-0.4,0.1-1,0.1-1.1,0.4c-0.2,0.3,0,0.8,0,1.2c0,0.5,0,0.9,0,1.4
		c1-0.2,1.9-0.4,2.8-0.5c0.7-0.1,1.3-0.3,2-0.4c1.1-0.2,2.1-0.7,3.1-1.1c0.5-0.2,0.8,0,0.9,0.4c0.4,1.1,0.5,2.3,0.1,3.4
		c-0.1,0.2-0.1,0.5-0.1,0.6c0.5,0.9,0.4,1.8,0.6,2.8C117,98.4,117.1,99,117.1,99.6z M24.8,85.5c0.6-0.7,1.1-1.4,1.7-1.9
		c0.9-0.8,2-1.4,3-2c1.2-0.7,2.5-1.4,3.8-2c1-0.5,2-0.9,3-1.2c0.9-0.3,1.9-0.3,2.8-0.5c1.4-0.3,2.8-0.5,4.2-0.5c0.8,0,1.5,0.1,2.3,0
		c1.2-0.1,2.5-0.1,3.7,0.2c0.4,0.1,1,0,1.2,0.5c0.3,0.7,0.8,1.3,1.1,2c0.4,1,1.2,1.2,2,1.6c0.2,0.1,0.4,0,0.6,0
		c0.5-0.1,1-0.3,1.5-0.5c0.4-0.1,0.5-0.5,0.2-0.8c-0.6-0.7-0.5-1.4,0-1.9s0.4-1.4-0.3-1.7c-0.6-0.2-0.7-0.6-0.6-1.1
		c0.1-0.4,0.4-0.7,0.6-1c0.3-0.3,0.6-0.6,0.4-1.1c-0.2-0.5-0.6-0.9-0.9-1.3c-0.5,0.2-0.9,0.5-1.4,0.7c-0.2,0.1-0.5,0-0.6-0.1
		c-0.5-0.4-0.4-1.5,0.2-1.8c0.8-0.5,1.7-1,2.6-1.4c0.6-0.3,0.8-0.5,0.7-1.2c-0.1-0.5-0.2-1.1-0.2-1.6c-0.5,0.2-0.9,0.3-1.3,0.5
		c-0.3,0.2-0.6,0.3-0.9,0.4c-0.1,0-0.3,0.1-0.4,0.2c-0.5,0.4-1,0.9-1.5,1.3c-0.1,0.1-0.4,0.2-0.4,0.2c-0.1-0.1-0.2-0.3-0.2-0.5
		c0.2-0.4,0.4-0.7,0.6-1c0.1-0.2,0.3-0.4,0.3-0.5c-0.2-0.4-0.5-0.9-0.9-1.4c-0.2,0.3-0.4,0.5-0.5,0.7c-0.4,0.7-0.6,1.4-0.8,2.2
		c-0.2,1.1-0.6,2.3-0.4,3.4c0,0.3,0.1,0.5,0.1,0.8s-0.1,0.5-0.5,0.4c-0.5,0-0.9,0.1-1.4,0.1c-0.4,0-0.7,0-1.1,0
		c-0.5,0-1.1-0.1-1.6-0.1c-1.2,0.1-2.4,0.3-3.7,0.4c-0.5,0.1-0.9,0.1-1.4,0.2c-0.9,0.2-1.7,0.5-2.6,0.7c-0.5,0.1-1,0.2-1.5,0.3
		c-1.4,0.5-2.8,1.1-4.2,1.6c-1.5,0.6-3,1.3-4.3,2.3c-0.2,0.2-0.7,0.4-0.9,0.3c-0.3-0.2-0.6-0.6-0.5-0.9c0.1-1,0.2-2.1,0.6-2.9
		c0.6-1.2,1.5-2.4,2.2-3.5c-0.5-0.3-1.1-0.7-1.7-1.1c-0.3,0.4-0.7,0.7-1,1.1c-1.6,2.1-2.8,4.4-2.8,7.1c0,1.2,0.2,2.4,0.3,3.6
		c0,0.4,0.1,0.7,0,1.1C24.2,85,24.2,85.2,24.8,85.5z M34.6,137.1c-0.2-0.1-0.4-0.2-0.6-0.3c-0.4-0.3-0.8-0.5-1.1-0.9s-0.5-0.3-0.7,0
		c-0.3,0.4-0.6,0.8-0.9,1.1c-1.4,1.4-1.5,3.3-1.2,5s1,3.3,2.7,4.2c0.6,0.3,1,0.9,1.5,1.3c0.9,0.6,1.9,1.2,2.9,1.8
		c0.7,0.4,1.4,0.7,2.1,1c0.6,0.3,1.3,0.4,2,0.7c0.4,0.1,0.7,0.4,1.1,0.5c1.1,0.3,2.3,0.7,3.5,0.9c2.2,0.4,4.3,1.1,6.5,1.3
		c1.8,0.2,3.7,0.2,5.5,0.3c1.9,0,3.8,0.2,5.6,0.8c0.7,0.2,1.5,0.2,2.2,0.4c1.4,0.4,2.8,0.9,4.2,1.3c0.2,0.1,0.4,0.2,0.7,0.2
		c0.9,0.1,1.8,0.2,2.7,0.2c0.4,0,0.9,0.1,1.3,0.2c1,0.2,1.9,0.6,2.8,0.7c1.8,0.2,3.6,0.4,5.4,0.1c1.4-0.2,2.9-0.4,4.2-1
		c0.5-0.2,0.9-0.4,1.4-0.6c1.1-0.4,2.2-0.7,3.4-1.1c-1-0.6-1.2-1.2-0.8-2c-0.5,0.1-1.1,0.3-1.6,0.4c-0.4,0.1-0.8,0.2-1.2,0.3
		c-1.1,0.3-2.3,0.6-3.4,0.8s-2.1,0.2-3.2,0.3c-1.3,0.1-2.7,0.3-4,0.3c-1.6,0-3.3-0.2-4.9-0.3c-0.7-0.1-1.4-0.3-2.1-0.4
		c-1.1-0.3-2.1-0.6-3.2-0.8c-1.8-0.4-3.6-0.8-5.4-1.3c-0.7-0.2-1.5-0.4-2.2-0.5c-0.4-0.1-0.8,0.1-1.2,0.1c-1.4-0.2-2.7-0.6-4.1-0.8
		c-1-0.2-2-0.3-3.1-0.4c-1-0.1-2-0.2-2.9-0.3c-1-0.1-2-0.2-2.9-0.4c-1-0.2-1.9-0.6-2.9-0.9c-0.7-0.2-1.5-0.4-2.2-0.6
		c-0.8-0.2-1.7-0.4-2.4-0.8c-1.1-0.6-2-1.4-3-2c-1.6-0.9-2.2-2.4-2.4-4.1C32.7,139.7,33.4,138.4,34.6,137.1z M34.9,33.8
		c1.3-1.8,1.5-4,2.4-5.9c0.1,0.1,0.2,0.2,0.2,0.3c0.7,1.5,1.3,3.1,2,4.6c0.1,0.2,0.2,0.4,0.4,0.6c0.1,0,0.1,0,0.2,0
		c0.7-1.7,1.4-3.4,2.2-5.2c0.2,0.3,0.3,0.5,0.4,0.7c0.3,1,0.5,2.1,0.7,3.1c0.1,0.4,0.2,0.9,0.4,1.3c0.1,0.2,0.3,0.3,0.4,0.4
		c0.1-0.2,0.1-0.4,0.2-0.6c0-0.1,0-0.2-0.1-0.3c-0.4-1.6-0.8-3.3-1.2-4.9c-0.1-0.3-0.2-0.7-0.3-1c-0.2-0.3-0.4-0.3-0.6,0
		C42.1,27,42,27.2,42,27.3c-0.5,1.1-0.9,2.3-1.4,3.4c-0.2,0.4-0.4,0.9-0.6,1.4c-0.9-1.9-1.8-3.7-2.6-5.5c-0.1,0-0.2,0-0.3,0
		C36.4,29.1,35.5,31.3,34.9,33.8z M19.9,33.9c0.1,0,0.2,0,0.3,0c0.2-0.6,0.4-1.1,0.5-1.7c0.1-0.4,0.2-0.7,0.8-0.7
		c1.4,0,2.9,0,4.3-0.1c0.4,0,0.5,0.1,0.7,0.4c0.2,0.6,0.4,1.2,0.7,1.7c0.1,0.2,0.3,0.3,0.4,0.4c0-0.2,0.1-0.4,0-0.6
		c-0.3-1-0.7-2.1-1.1-3.1c-0.4-1.1-0.7-2.2-1.5-3.1c-0.8-0.8-1.7-0.9-2.5-0.1c-0.4,0.4-0.8,1-1.1,1.6c-0.6,1.5-1.1,3-1.6,4.5
		C19.9,33.3,19.9,33.6,19.9,33.9z M29.4,25.9c0,0.1,0,0.2,0,0.3c0.5,0,1,0,1.4,0c0.5,0,0.8,0.2,0.8,0.8c0,2.3,0.1,4.5,0.1,6.8
		c0,0.2,0.2,0.4,0.3,0.5c0.1-0.2,0.3-0.3,0.3-0.5c0-2-0.1-4-0.1-6c0-1.5,0-1.4,1.4-1.4c0.4,0,0.8-0.1,1.2-0.2c0-0.1,0-0.2,0-0.3
		C33,25.7,31.2,25.6,29.4,25.9z M112.9,96.9c0,0.7,0,1.5,0,2.2s0.2,0.9,0.9,0.7c0.6-0.1,1.1-0.4,1.6-0.6c0.1,0,0.2-0.2,0.2-0.3
		c0-0.6,0.1-1.1-0.1-1.7c-0.1-0.4-0.2-0.8-0.9-0.6C114.2,96.9,113.6,96.9,112.9,96.9z M115.4,92.6c-0.8,0.2-1.6,0.3-2.4,0.6
		c-0.2,0-0.4,0.3-0.4,0.4c0,0.6,0.1,1.1,0.2,1.7C115.1,94.8,115.3,94.6,115.4,92.6z M15.8,33.6c-0.1,0-0.3,0-0.4,0.1
		c-0.3,0.4-0.7,0.8-0.8,1.3c-0.1,0.7,0.4,1.3,1,1.5c0.7,0.2,0.8,0.1,0.9-0.6c0-0.5,0-1,0.1-1.4C16.5,33.8,16.4,33.6,15.8,33.6z
		 M116.2,101.3c-0.8,0.2-1.6,0.3-2.4,0.5c-0.1,0-0.3,0.2-0.3,0.4c0,0.4,0.1,0.8,0.2,1.2c0.6-0.2,1.1-0.3,1.6-0.5
		C116.4,102.4,116.3,102.4,116.2,101.3z M47.6,35.2c0.9-0.3,1.6-1.1,1.6-1.9c0-0.6-0.6-1.2-1.2-1.2c-0.1,0-0.4,0.2-0.4,0.3
		C47.6,33.4,47.6,34.3,47.6,35.2z M47.9,36.9c-0.1,0.1-0.2,0.3-0.2,0.4c0,0.5,0,1,0.1,1.5c0,0.5,0.3,0.5,0.7,0.4
		c0.5-0.1,0.9-0.8,0.9-1.4C49.1,37.3,48.7,36.9,47.9,36.9z M16.4,38.3c-1.1-0.1-1.2,0-1.4,0.8c-0.2,0.7,0.3,1.6,0.9,1.7
		c0.1,0,0.4-0.2,0.4-0.3C16.4,39.7,16.4,39,16.4,38.3z M40,29.4c0.4-0.7,0.7-1.4,1.1-2.1c-0.8,0-1.4,0-2.1,0
		C39.3,28,39.6,28.7,40,29.4z M39.9,54.9c0.1,1,0.8,0.6,1.3,0.7c0.2,0,0.3-0.2,0.5-0.3c-0.2-0.2-0.4-0.6-0.6-0.6
		C40.7,54.6,40.3,54.8,39.9,54.9z M32.3,6.5c0-0.1,0-0.1,0-0.2c-0.5-0.1-1-0.1-1.5-0.2c0,0.1,0,0.1,0,0.2
		C31.3,6.6,31.9,6.4,32.3,6.5z"/>
	<path class="st0" d="M74.2,15.1c0.2,1.2-0.5,2.2-1.3,1.9c-0.1,0.7-0.7,0.9-1.1,0.5c-0.6-0.6-1.3-1.1-1.7-1.9
		c-0.5-1.1-1.1-2.2-1.7-3.3c-0.5-0.8-0.5-1.7,0.7-2.1c0.1,0,0.1-0.1,0.2-0.2c0.2-0.1,0.5-0.3,0.6-0.2c0.9,0.5,1.8,1,2.7,1.5
		c0,0,0,0.1,0.1,0.2c0.1-0.6-0.4-1-0.6-1.5c-0.1-0.2-0.3-0.3-0.4-0.5c-0.4-0.6-0.2-1.2,0.4-1.5c0.5-0.3,1.1-0.5,1.6-0.7s1,0,1.3,0.5
		c0.5,0.9,1.1,1.9,1.7,2.8c0.1,0.1,0.2,0.2,0.3,0.4c0.2,0.2,0.6,0.4,0.7,0.7c0.2,0.5,0.4,1.1,0.5,1.6c0,0.1,0,0.4-0.1,0.5
		c-0.6,0.5-1.1,1.1-1.8,1.5c-0.3,0.2-0.9,0-1.3,0C74.8,15.3,74.6,15.2,74.2,15.1z"/>
	<path class="st0" d="M80.6,6.6c0.5-0.7,0.9-1.3,1.4-1.9c0.3-0.4,0.6-0.7,1-0.9c0.5-0.4,1,0,1.4,0.2c1.2,0.8,1.2,1.4,0.7,2.3
		c-0.3,0.5-0.5,1.1-0.8,1.6c0.6,0.4,1.1,0.7,1.6,1C86,9,86.1,9.1,86.2,9.2c0.7,0.9,0.7,1.4-0.2,2.1c-0.3,0.2-0.6,0.5-0.9,0.6
		c-0.4,0.2-0.8,0.3-1.2-0.1c-0.1-0.1-0.3-0.2-0.5-0.4c0.1,0.9-0.5,1-1.1,1.2c-0.2,0.1-0.4,0.1-0.6,0.2c-1.1,0.4-2.4-0.1-2.9-1.1
		C78.2,10.3,77.6,9,77,7.6c-0.2-0.5,0-0.7,0.2-1c0.4-0.6,0.9-0.9,1.5-1.1c0.9-0.3,1.3-0.1,1.6,0.8C80.5,6.4,80.6,6.5,80.6,6.6z"/>
	<path class="st0" d="M69.4,17.8c0.1,1.7-1.1,2.2-2.2,2.9c-0.9,0.5-1.7,1.1-2.4,1.8c-0.4,0.3-1,0.4-1.3,0c-0.4-0.4-0.7-0.9-1-1.4
		c-0.2-0.4-0.1-0.7,0.3-1c1-0.8,1-0.8,0.3-1.8c-0.2-0.3-0.5-0.4-0.8-0.2c-0.3,0.2-0.6,0.5-0.9,0.7c-0.4,0.3-0.7,0.2-1-0.2
		c-0.3-0.4-0.6-0.9-0.8-1.3c-0.1-0.2-0.1-0.5,0-0.7c1.6-1.6,3.3-2.8,5.3-3.9c0.4-0.2,0.8-0.2,1.1,0.2c0.3,0.3,0.6,0.6,0.8,0.9
		c0.4,0.6,0.2,1.3-0.6,1.7c-0.2,0.1-0.5,0.2-0.3,0.5c0.3,0.3,0.2,1,0.9,0.7c0.1-0.1,0.3-0.2,0.4-0.2c0.8-0.4,1.2-0.3,1.7,0.5
		C69.1,17.2,69.3,17.6,69.4,17.8z"/>
	<path class="st0" d="M93.6,5.7c0.7,1.1,0.6,2.3,0.5,3.5c-0.2,1.3-1.8,2.4-3.1,2.3c-0.8-0.1-1.6-0.2-2.4-0.4
		c-0.4-0.1-0.9-0.4-1.2-0.7c-0.5-0.5-0.2-2.7,0.4-3C88.4,7,89,7.1,89.2,7.7c0.2,0.4,0.5,0.6,0.9,0.7c0.3,0,0.5-0.2,0.8-0.3
		c-0.2-0.2-0.3-0.6-0.5-0.7c-0.5-0.2-1-0.3-1.5-0.4c-0.9-0.3-1.7-0.8-1.6-1.7c0-0.4,0.2-0.9,0.5-1.3c0.7-0.9,1.6-1.5,2.8-1.2
		c0.1,0,0.2,0,0.3,0c1.1-0.4,2,0.1,2.9,0.6C94.6,3.8,94.4,5.2,93.6,5.7z"/>
	<path class="st0" d="M57.8,22.6c0.2-0.3,0.4-0.5,0.6-0.8c0.5-0.7,1.2-1,2-1.1c0.4-0.1,0.6,0.1,0.8,0.5c0.1,0.2,0.1,0.5,0.2,0.7
		c0.5,1.1,0.4,2-0.8,3.1c-0.7,0.7-1.4,1.5-2.1,2.1c-0.4,0.3-0.8,0.6-1.3,0.9s-1,0.1-1.3-0.4c-0.6-0.9-1.2-1.9-1.8-2.9
		c-0.5-0.8-1-1.7-1.5-2.5c-0.3-0.5-0.2-1,0.1-1.2c0.6-0.6,1.2-1.1,1.9-1.5c0.6-0.4,1.1-0.1,1.5,0.4s0.6,1.1,1,1.7
		C57.3,21.9,57.5,22.2,57.8,22.6C57.6,22.5,57.7,22.6,57.8,22.6z"/>
	<path class="st1" d="M105,105.3c-1.1,1.9-2.3,3.7-3.3,5.6c-0.8,1.4-1.4,2.9-2,4.3c-0.3,0.8-0.4,0.9-1.4,1c-2.6,0-5.1,0.3-7.6,0.9
		c-1.9,0.4-3.8,1-5.7,1.4c-0.8,0.2-1.7,0.4-2.6,0.6c-1.2,0.2-2.3,0.5-3.5,0.7s-2.4,0.3-3.6,0.5c-1.7,0.2-3.4,0.6-5.1,0.8
		c-1.7,0.2-3.4,0.3-5.1,0.4c-0.9,0.1-1.8,0.2-2.7,0.2c-1.4,0.1-2.7,0.2-4.1,0.2c-1.2,0-2.4,0-3.6-0.2c-1.6-0.2-3.2-0.6-4.8-0.9
		c-1.1-0.2-2.2-0.5-3.3-0.9c-0.8-0.3-1.6-0.6-2.4-0.9c-0.8-0.3-1.6-0.6-2.4-0.9c-1.6-0.8-3.2-1.5-4.7-2.6c-1-0.7-1.8-1.9-2.7-2.9
		c-1.6-1.9-2.5-4.1-3-6.5c-0.5-2.2-0.2-4.4,0.5-6.6c0.8-2.4,2.2-4.6,3.5-6.8c1.1-1.8,2.5-3.2,4.1-4.5c1.2-1,2.6-1.1,4.1-1.4
		c1.7-0.3,3.4,0,5.2,0.2c1.4,0.1,2.8,0.3,4.2,0.6c1.4,0.3,2.8,0.6,4.2,0.9c0.5,0.1,1,0.1,1.5,0.1c2.3,0.1,4.5,0.2,6.8,0.3
		c1,0,2-0.1,3-0.1c1.1,0,2.3,0,3.4,0c1.2,0,2.4-0.1,3.6-0.1c0.7,0,1.4,0.1,2,0.1c1.5,0,3-0.1,4.5-0.2c0.9-0.1,1.8-0.1,2.6-0.3
		c0.7-0.1,1.3-0.4,2-0.5c2-0.5,3.8-1.6,5.6-2.7c1.5-0.9,3-1.9,4.4-3c1.6-1.2,3.1-2.6,4.5-4c1-1.1,1.9-2.3,2.8-3.6
		c1.1-1.5,2-3.1,2.5-4.9c0.7-2.2,1.2-4.4,1.3-6.7c0.2-3.3-0.3-6.6-1-9.9c-0.2-1.1-0.6-2.1-1-3.1c-0.5-1.4-1.1-2.8-1.7-4.1
		c-0.5-1.2-1.6-1.8-2.6-2.5c-1.1-0.8-2.3-1.6-3.6-2.2c-0.7-0.4-1.5-0.4-2.3-0.6c-0.4-0.1-0.9-0.2-1.4-0.2c-1.3,0-2.6,0.1-4,0.2
		c-1.1,0.1-2.3,0.3-3.3,0.6c-0.9,0.3-1.8,0.8-2.7,1.2c-0.8,0.4-1.6,0.7-2.5,1.1c-1.3,0.6-2.6,1.2-4,1.8c-1,0.4-2.1,0.8-3.1,1.3
		s-1.9,1.1-2.9,1.5c-1.5,0.7-2.9,1.5-4.5,1.9c-0.8,0.2-1.6,0.6-2.4,0.9c-1.4,0.7-2.8,1.4-4.3,2.1c-1.2,0.6-2.4,1.2-3.6,1.7
		c-1.8,0.7-3.6,1.2-5.4,1.8c-1.1,0.4-2.3,0.7-3.4,1c-1.4,0.4-2.8,0.1-4.2-0.3c-1.1-0.4-1.2-0.3-1.9,0.6c-0.4,0.5-0.9,0.9-1.4,1.3
		c-0.1,0.1-0.3,0.2-0.5,0.4c-1.1,1.4-2.2,2.8-3.4,4.2c-0.5,0.7-1.2,1.2-1.7,1.9c-0.5,0.6-0.9,1.3-1.4,1.9c-0.9,1.1-1.8,2.1-2.7,3.2
		c-0.3,0.3-0.6,0.4-0.9,0.2c-0.5-0.2-1-0.4-1.6-0.6c1.1-1.3,1.9-2.5,3-3.5c0.9-0.8,1.7-1.9,2.5-2.9c0.9-1.1,1.8-2.2,2.8-3.3
		c1.1-1.2,2.4-2.4,3.6-3.6c0.1-0.1,0.4-0.3,0.6-0.2c1.4,0.4,2.2-1,2-2.3c0-0.2,0-0.4,0.1-0.5c0.9-1.1,1.7-2.3,2.6-3.4
		c1-1.4,2-2.8,3.1-4.2c1.7-2.2,3.4-4.4,5.3-6.6c1.9-2.2,3.8-4.3,5.8-6.3c1.8-1.9,3.7-3.7,5.6-5.5c1.3-1.2,2.7-2.2,4-3.2
		c0.9-0.7,1.8-1.5,2.7-2.1c1.4-0.9,2.7-1.8,4.1-2.7c1.1-0.6,2.2-1.1,3.3-1.8c1.6-0.9,3.4-1.5,5.2-2c0.7-0.2,1.3-0.6,1.9-0.7
		c0.7-0.2,1.5-0.4,2.3-0.5c1-0.2,2.1-0.3,3.1-0.4c0.4,0,0.9,0,1.4,0c0.1,1.3,0.1,2.6,0.2,3.9c-0.7,0-1.3,0-1.9,0.1
		c-2.7,0.3-5.3,0.8-7.9,1.8c-2.7,1-5.3,2.2-7.8,3.7c-1.9,1.2-3.7,2.4-5.5,3.7c-1.6,1.1-3.1,2.3-4.6,3.5c-1.1,0.9-2.1,2-3.2,3
		c-0.7,0.6-1.3,1.2-2,1.8c-0.6,0.5-1.2,1-1.7,1.6c-1.6,1.7-3.1,3.4-4.6,5.2c-1.8,2-3.5,4.1-5.2,6.2c-0.9,1.1-1.8,2.3-2.6,3.6
		c-0.4,0.6-0.5,1.3-0.1,2.1c1.5,0,3-0.3,4.4-0.9c0.8-0.4,1.6-0.7,2.4-1.1c0.3-0.1,0.6-0.3,0.8-0.5c1-0.8,2.3-0.9,3.4-1.5
		c0.9-0.5,1.8-1.1,2.8-1.6c0.9-0.5,1.8-0.9,2.7-1.4c1.1-0.6,2.3-1.2,3.2-2c1.3-1,2.6-1.9,4.2-2.5s3-1.4,4.4-2.3
		c0.8-0.5,1.8-0.6,2.6-0.9c1-0.4,2-0.8,3-1.2c2.3-1,4.6-2.2,7.1-2.3c2-0.1,4.1-0.3,6.1,0.2c0.9,0.2,1.7,0.7,2.6,1
		c1.5,0.5,3,1,4.5,1.4c1.2,0.4,2.1,1.1,2.9,2.1c0.4,0.4,0.8,0.8,1.2,1.2c0.6,0.6,1.1,1.2,1.3,2.1c0.2,0.9,0.5,1.8,0.8,2.6
		c0.2,0.6,0.6,1.1,0.8,1.7c0.4,0.9,0.8,1.8,1.1,2.7c0.4,1.1,0.8,2.2,1,3.3s0.3,2.2,0.4,3.3c0,0.6,0.1,1.2,0,1.8
		c-0.1,1.7-0.3,3.5-0.4,5.2c-0.3,3.1-0.9,6.1-2,9c-0.5,1.2-1.2,2.2-1.9,3.3c-0.7,1.2-1.7,2.1-2.6,3.1c-0.4,0.5-0.7,1-1,1.6
		c-0.6,1.1-1.5,1.7-2.5,2.3c-0.8,0.5-1.6,0.9-2.4,1.3c-0.6,0.4-1.2,0.7-1.8,1.2c-0.9,0.9-2.1,1.3-3.3,1.7c-0.7,0.2-1.5,0.5-2.2,0.8
		c-1,0.5-2,1-3,1.5c-1.2,0.6-2.4,0.9-3.7,1.1c-1,0.2-2.1,0.4-3.1,0.6c-1.3,0.2-2.5,0.4-3.8,0.5c-2,0.2-4,0-6-0.2
		c-1.2-0.1-2.3,0-3.5-0.1c-2.4-0.1-4.8,0-7.1-0.6c-0.9-0.2-1.8-0.3-2.7-0.4c-1.1-0.2-2.2-0.5-3.3-0.6c-1.7-0.2-3.4-0.7-5.1-0.2
		c-0.4,0.1-0.9,0-1.3,0c-0.4,0-0.8,0-1.2,0c-0.9,0.1-1.9,0.2-2.8,0.4c-0.4,0.1-0.8,0.3-1.2,0.5c-1.8,1-3.2,2.3-4.7,3.7
		c-0.9,0.8-1.3,1.9-1.8,3c-1.1,2.3-1,4.8-1,7.2c0,0.8,0.4,1.4,0.9,2c0.7,0.8,1.3,1.6,2,2.3c0.5,0.5,1,0.9,1.5,1.3
		c0.6,0.5,1.2,0.9,1.8,1.3c0.4,0.2,0.9,0.3,1.3,0.5c0.6,0.4,1.2,0.8,1.8,1.2c0.6,0.4,1.3,0.7,2,1c0.9,0.3,1.8,0.5,2.7,0.7
		c1.2,0.2,2.4,0.4,3.6,0.6c0.8,0.1,1.6,0.3,2.4,0.5c0.5,0.1,1.1,0.1,1.6,0.1c1.1,0.1,2.1,0.2,3.2,0.1c1.8-0.1,3.6-0.4,5.3-0.4
		c1.6-0.1,3.2-0.2,4.7-0.8c1.5-0.5,2.9-1.1,4.4-1.7c0.6-0.2,1.2-0.3,1.8-0.5c1-0.4,2.1-0.7,3.1-1.2c0.8-0.4,1.6-1,2.4-1.3
		c1.6-0.6,3.2-1.1,4.8-1.8c0.8-0.3,1.4-0.8,2.2-1.1c1.6-0.7,3.3-1,5-1.2c1-0.1,2.1-0.4,3.1-0.6c0.5-0.1,0.9-0.4,1.3-0.5
		c1.1-0.3,2.1-0.7,3.2-0.9c0.9-0.2,1.8-0.1,2.7-0.2C104.4,105.4,104.7,105.4,105,105.3z"/>
	<path class="st2" d="M92.3,154.9c0.4-0.6,0.3-0.9-0.1-1.2c-0.2-0.2-0.4-0.6-0.5-0.9c0.8-0.3,1.5-0.6,2.2-0.9c1.3-0.5,2.6-1,3.8-1.5
		c1.8-0.8,3.6-1.7,5.2-2.7c1.7-1.1,3.4-2.2,4.9-3.7c1.6-1.6,2.7-3.5,3.4-5.6c0.7-2.1,1-4.2,1-6.4c0-1.8-0.2-3.6-0.8-5.3
		c-0.6-2.1-1.4-4.1-2.7-5.8c-0.8-1-1.8-1.9-2.7-2.9c-0.2-0.2-0.3-0.5-0.4-0.8c-0.1-0.9-0.1-1.9-0.3-2.8c0-0.3-0.1-0.9-0.6-0.8
		c-0.4,0.1-0.4,0.6-0.3,1c0.1,0.7,0.1,1.3,0.2,2c0,0.1,0,0.3,0,0.4c-1.4-0.5-2.8-0.9-4.4-0.6c0.6-1.1,1.1-2.2,1.7-3.3
		c0.7-1.1,1.5-2.2,2.2-3.3c0.5-0.8,0.9-1.6,1.3-2.3c0.5-0.9,1-1.1,1.9-0.7s1.7,1,2.6,1.5c-0.4,0.8-1,0.9-1.6,1
		c-0.2,0-0.5,0.1-0.6,0.3c-0.1,0.2,0,0.5,0.1,0.7c0.2,0.5,0.9,0.7,1.4,0.4c0.6-0.3,1.1-0.7,1.7-1c0.4,0.6,0.9,1.4,1.4,2.1
		c0.1,0.1,0.2,0.3,0.3,0.5c1.6,1.5,2.1,3.7,3,5.6c1.3,2.9,1.6,5.9,1.9,9c0.1,0.9,0.3,1.8,0.3,2.7c-0.1,1.8-0.4,3.6-0.6,5.5
		c-0.2,1.3-0.4,2.5-0.6,3.8c-0.1,0.7-0.3,1.4-0.5,2.1c-0.2,0.9-0.4,1.7-0.6,2.6c-0.5,2.2-1.5,4.2-2.8,6c-0.3,0.4-0.5,0.8-0.8,1.3
		c-0.8,1.3-1.9,2.2-3.1,2.9c-1.3,0.7-2.6,1.4-3.8,2.1c-0.8,0.5-1.5,1.3-2.4,1.8c-0.8,0.6-1.7,1.1-2.6,1.5c-0.5,0.3-1.1,0.4-1.6,0.6
		c-0.9,0.3-1.9,0.7-2.8,1c-1.2,0.4-2.4,0.8-3.5,1.3c-1.8,0.9-3.7,1.1-5.6,1.6c-0.3,0.1-0.6,0-0.9,0c-2.2-0.1-4.3-0.3-6.5-0.4
		c-0.8-0.1-1.6-0.3-2.5-0.4c-0.5-0.1-1.1,0-1.6-0.2c-1-0.3-1.9-0.7-2.9-1c-0.2-0.1-0.5,0-0.8-0.1c-0.9-0.1-1.7-0.3-2.6-0.4
		c-1.6-0.2-3.2-0.4-4.8-0.6c-0.5-0.1-1.1-0.3-1.6-0.4c-1.2-0.2-2.5-0.4-3.7-0.6c-0.6-0.1-1.3-0.3-1.8-0.6c-1.1-0.6-2.3-0.6-3.5-0.7
		c-1.6,0-3.1-0.1-4.7,0c-1.1,0.1-2.2,0.3-3.1,0.9c-0.9,0.6-1.8,1.1-2.6,1.7c-1.2,0.8-1.6,2.1-1.9,3.4c-0.1,0.3-0.2,0.4-0.5,0.5
		c-0.5,0.1-0.9,0.4-1.4,0.7c0.1-0.8,0.2-1.6,0.4-2.4c0.4-1.6,1.2-3.1,2-4.5c0.7-1.3,2-1.7,3.2-2.3c1.4-0.7,2.9-0.5,4.3-0.5
		c0.8,0,1.7-0.1,2.5,0c1.5,0.1,2.9,0.2,4.4,0.3c0.8,0,1.5,0,2.3,0c1.1,0.1,2.2,0.2,3.4,0.3c0.3,0,0.6,0.1,0.9,0.1
		c1.8,0.4,3.5,0.8,5.3,1.3c0.9,0.2,1.8,0.6,2.7,0.8c0.7,0.2,1.4,0.4,2.1,0.3c1.8,0,3.5,0.6,5.3,0.9c0.7,0.1,1.5,0.2,2.2,0.2
		c1.4,0,2.8,0,4.1-0.2c1.5-0.3,2.9-0.9,4.3-1.4c1-0.3,2.1-0.6,3.1-1c2-0.7,3.9-1.5,5.9-2.2c0.9-0.3,1.8-0.7,2.6-1.1
		c0.9-0.5,1.7-1.3,2.5-1.8c1-0.6,2.1-1.2,3.2-1.8c0.9-0.4,1.7-0.9,2.3-1.7c0.8-0.9,1.7-1.7,2.5-2.5c0.9-0.8,1.7-1.7,2.2-2.8
		c0.6-1.4,1.1-2.8,1.7-4.1c0.9-2,1.2-4.1,1.1-6.3c-0.1-1.4,0-2.8-0.1-4.2c-0.2-1.6-0.5-3.2-0.8-4.8c-0.2-0.9-0.6-1.9-0.9-2.8
		c-0.3-0.8-0.6-1.7-1-2.5c-0.6-1.4-1.5-2.4-2.9-3.1c-0.6-0.2-1-0.6-1.5-1c-0.3-0.3-0.6-0.6-1-0.3c-0.4,0.3-0.5,0.7-0.3,1.2
		c0.3,0.8,0.8,1.3,1.5,1.7c0.5,0.3,1.1,0.6,1.7,0.9c0.7,0.4,1.3,1,1.6,1.9c0.4,1.1,1,2.2,1.4,3.4c0.9,2.6,1.2,5.2,1.2,8
		c0,1.5-0.1,3.1-0.2,4.6c-0.1,0.6-0.3,1.3-0.6,1.9c-0.6,1.5-1.2,3.1-2,4.5c-0.6,1-1.4,1.8-2.2,2.6c-0.6,0.7-1.3,1.3-1.9,1.9
		c-0.6,0.7-1.3,1.1-2.1,1.5c-1.6,0.8-3.3,1.7-4.6,3c-0.4,0.4-1,0.7-1.6,1c-1.9,0.8-3.9,1.6-5.8,2.4
		C93.1,154.7,92.7,154.7,92.3,154.9z M95.7,159.8c0.1-0.1,0.5-0.3,0.6-0.6c0.1-0.2,0-0.7-0.1-0.8c-0.7-0.4-1.1-1.1-1.5-1.7
		c-0.2-0.4-0.8-0.3-1,0.1C93.2,157.8,94.4,159.8,95.7,159.8z"/>
	<path class="st3" d="M18.3,27.2c0.9,0,1.7,0,2.6,0c-0.3,1-0.7,1.9-0.9,2.9c-0.3,1.2-0.6,2.4-0.8,3.6c-0.1,0.7,0.2,1.1,0.8,1.2
		c0.7,0.1,1.1-0.1,1.4-0.8c0.1-0.2,0.1-0.3,0.2-0.5c0.4-1.1,0.4-1.1,1.6-1.1c0.6,0,1.2,0,1.9,0c0.4,0,0.6,0.1,0.7,0.5
		c0.1,0.3,0.2,0.6,0.3,0.8c0.2,0.7,0.8,0.8,1.4,1c0.8,0.2,1.3-0.4,1.2-1.2c-0.1-1.3-0.3-2.6-0.9-3.8c-0.4-0.8-0.7-1.6-1-2.4
		c0-0.1,0.1-0.5,0.2-0.5c1.3-0.2,2.5,0,3.8-0.2c0,0.7,0,1.3,0,2c0,1.7,0.1,3.5,0.1,5.2c0,0.5,0.7,1.2,1.1,1.3c0.7,0,1.4-0.4,1.4-1.2
		c0.1-1,0-2,0-3c0-1.2,0.1-2.4,0.1-3.6c0-0.3,0.1-0.4,0.4-0.4c0.8,0.1,1.5,0.2,2.4,0.3c-0.6,1.8-1.2,3.6-1.8,5.4
		c-0.2,0.6-0.2,1.2,0.2,1.8s1.1,0.6,1.4,0c0.4-0.7,0.7-1.5,1-2.3c0.2-0.4,0.3-0.7,0.5-1.1c0.1,0,0.1,0,0.2,0
		c0.4,0.9,0.7,1.7,1.1,2.5c0.2,0.3,0.5,0.6,0.8,0.7c1,0.3,1.3,0.2,1.7-0.8c0.3-0.6,0.4-1.2,0.6-1.8c0.1-0.3,0.2-0.5,0.4-0.8
		c0.1,0.4,0.2,0.8,0.3,1.3s0.2,0.9,0.3,1.4c0.2,0.8,0.8,1.3,1.6,1.2c0.6,0,1.2-0.7,1.1-1.5c-0.1-0.9-0.4-1.9-0.6-2.8
		c-0.2-0.9-0.5-1.8-0.7-2.8c0-0.1,0-0.2,0-0.4c0.5,0,1-0.1,1.4,0c0.2,0.1,0.4,0.5,0.4,0.8c0.1,2.4,0.2,4.8,0.3,7.2
		c0,1.7-0.1,3.5-0.1,5.2c0,0.1,0,0.2-0.1,0.3c0,0-0.1,0-0.2,0.1c0.1-0.5,0.1-1.1,0.2-1.6c0.3-1.9-0.9-3.5-2.8-3.6
		c-0.9-0.1-1.8-0.1-2.7,0.3c-0.6,0.3-1.1,0.7-1.4,1.3c-0.4,0.7-0.7,1.4-1,2.2c-0.3,0.6-0.7,1.1-1.3,1.4c-2.6,1-5.2,1.5-7.9,0.6
		c-1.1-0.4-1.9-1-2.4-2.1c-0.4-1-0.8-2-1.4-2.9c-0.5-0.8-1.5-1.4-2.6-1c-0.5,0.2-1,0.4-1.5,0.6c-1.4,0.7-1.6,2-1.8,3.3
		c-0.1,0.5,0.1,1.1,0.1,1.6c0,0.1,0.1,0.1,0,0.2c-0.3,0.5,0.1,1,0.2,1.5c0.4,2.3,1.9,4,3.8,5.2c0.6,0.4,1.1,0.8,1.7,1
		c0.8,0.3,1.6,0.7,2.4,0.7c1.9,0.2,3.8,0.2,5.7,0.2c2-0.1,4-0.1,5.7-1.2c1.6-1,3.4-1.8,4.8-3.2c0.2-0.2,0.4-0.4,0.6-0.7
		c0.4-1,0.8-2.1,1.3-3.1c0.1-0.2,0.2-0.3,0.3-0.4c0.1,0.2,0.2,0.3,0.2,0.5c-0.1,2.5-0.2,5-1,7.3c-0.4,1.2-1,2.4-2,3.3
		c-1,0.9-2.2,0.9-3.4,1c-1.5,0.1-2.9,0.3-4.4,0.4c-1.4,0.1-2.7,0.1-4.1,0.1c-1.5,0-3,0.1-4.5,0.1c-1.4,0-2.9-0.1-4.3-0.4
		c-3-0.5-3.8-2.4-4-4.9C18,46.9,18,45.2,18,43.5c0-3.3,0.1-6.6,0.1-9.9c0-2,0.1-4,0.1-6C18.2,27.5,18.2,27.4,18.3,27.2z M36.8,37.4
		c-0.1-0.4-0.2-0.8-0.4-1s-0.7-0.3-1-0.3c-0.1,0-0.2,0.4-0.2,0.7s0.1,0.6,0.1,0.8s-0.2,0.4-0.4,0.5c-0.1-0.1-0.4-0.2-0.4-0.4
		c-0.1-0.3-0.1-0.6-0.3-0.9c-0.1-0.2-0.4-0.5-0.6-0.4c-0.2,0-0.4,0.3-0.5,0.6s-0.2,0.7-0.3,1c-0.1,0.1-0.3,0.3-0.4,0.3
		c-0.2,0-0.4-0.2-0.4-0.3c-0.1-0.3-0.1-0.6-0.3-0.9c-0.1-0.2-0.3-0.6-0.5-0.6c-0.3,0-0.6,0.2-0.8,0.4c-0.2,0.2-0.2,0.5-0.3,0.8
		c-0.2,0.4-0.4,0.4-0.6,0c-0.2-0.3-0.3-0.7-0.5-1c-0.2-0.2-0.5-0.3-0.8-0.5c-0.1,0.3-0.4,0.5-0.4,0.8c0,0.4,0.1,0.8,0.2,1.2
		c0.5,1.2,1.3,1.8,2.3,1.4c0.6-0.2,1.1-0.1,1.6,0.2c0.6,0.4,1.2,0.3,1.7-0.1c0.4-0.4,0.8-0.4,1.3-0.1c0.6,0.3,1.3,0.1,1.6-0.5
		C36.6,38.4,36.7,37.9,36.8,37.4z M33.6,52.5c0,0.1,0,0.1,0,0.2c1-0.2,1.9-0.4,2.9-0.7c1.4-0.4,2.7-1,3.9-1.8
		c0.3-0.2,0.5-0.5,0.3-0.8c-0.1-0.1-0.5-0.1-0.7,0c-1.2,0.5-2.3,1.1-3.5,1.4c-2.4,0.6-4.8,0.6-7.3,0.4c-0.6-0.1-1.3,0-1.8-0.2
		c-1.3-0.3-2.7-0.8-4-1.2c-0.2,0-0.4,0-0.5,0.1c0.1,0.2,0.1,0.5,0.2,0.7s0.4,0.2,0.6,0.3c1.2,0.8,2.6,1.3,4.1,1.4
		c0.2,0,0.4,0.1,0.6,0.1c1,0.1,2.1,0.3,3.1,0.4C32.2,52.7,32.9,52.6,33.6,52.5z"/>
	<path class="st3" d="M117.1,99.6c-0.1-0.6-0.1-1.2-0.2-1.7c-0.1-0.9,0-1.9-0.6-2.8c-0.1-0.1,0-0.4,0.1-0.6c0.4-1.2,0.3-2.3-0.1-3.4
		c-0.1-0.4-0.4-0.6-0.9-0.4c-1,0.4-2.1,0.9-3.1,1.1c-0.7,0.1-1.3,0.2-2,0.4c-0.9,0.2-1.8,0.4-2.8,0.5c0-0.5,0-1,0-1.4
		s-0.2-0.9,0-1.2c0.2-0.3,0.7-0.3,1.1-0.4c1.3-0.4,2.6-0.7,3.9-1.2c1-0.4,1.9-0.9,2.8-1.3c0.4-0.2,0.8-0.5,1-0.8
		c0.3-0.4,0.5-0.9,0.5-1.4c0.4-2.3,0.7-4.6,1-6.9c0.3-2.1,0.5-4.2,0.7-6.4c0.1-1.6,0.2-3.3,0.3-4.9c0.1-2.3,0.1-4.6,0.1-6.9
		c0-2.1-0.1-4.2-0.3-6.3c-0.2-2.4-0.4-4.8-0.9-7.2c-0.5-2.6-1.1-5.2-1.9-7.7c-0.5-1.8-1.1-3.6-2-5.3c-0.9-1.9-2-3.6-3.1-5.4
		c-0.9-1.3-1.9-2.4-3-3.6s-2.5-2.1-3.8-3c-2.4-1.5-5.1-2.4-8-2.6c-0.4,0-0.5-0.1-0.6-0.5c-0.2-1.1-0.4-2.2-0.6-3.4
		c0.7,0,1.3,0,2,0.1c0.5,0.1,1,0.3,1.6,0.5s1.3,0.3,1.9,0.5c1.6,0.5,3.1,1.2,4.5,2.3c0.8,0.6,1.6,1.3,2.5,1.9
		c0.3,0.2,0.6,0.3,0.9,0.3c0.5,0,1.1-0.1,1.6-0.1c0.3,0,0.9,0.5,1,0.9c0,0.1,0,0.3,0,0.4c-0.8,1.2-0.2,2.1,0.5,3.1
		c1.7,2.2,3,4.7,4,7.3c0.9,2.3,1.7,4.6,2.4,7c0.6,2.3,1.1,4.6,1.4,7c0.4,2.7,0.8,5.5,1,8.2c0.3,3.1,0.4,6.1,0.5,9.2
		c0.1,1.4-0.1,2.7-0.1,4.1s0.1,2.8,0,4.1c-0.2,2.7-0.5,5.4-0.7,8.1c-0.1,1.7-0.4,3.4,0,5.1c0.5,2,0.9,4.1,0.8,6.2
		c0,0.8-0.2,1.6-0.4,2.4c-0.4,2-0.8,4-2.2,5.6c-0.2,0.3-0.5,0.5-0.7,0.8C117.3,99.6,117.2,99.6,117.1,99.6z"/>
	<path class="st3" d="M24.8,85.5c-0.6-0.3-0.6-0.5-0.5-1.3c0.1-0.3,0-0.7,0-1.1c-0.1-1.2-0.3-2.4-0.3-3.6c0-2.7,1.2-5,2.8-7.1
		c0.3-0.4,0.7-0.8,1-1.1c0.6,0.4,1.2,0.7,1.7,1.1c-0.7,1.1-1.6,2.2-2.2,3.5c-0.4,0.9-0.5,1.9-0.6,2.9c0,0.3,0.3,0.7,0.5,0.9
		c0.2,0.1,0.6-0.1,0.9-0.3c1.3-1,2.7-1.8,4.3-2.3c1.4-0.5,2.8-1.1,4.2-1.6c0.5-0.2,1-0.2,1.5-0.3c0.9-0.2,1.7-0.5,2.6-0.7
		c0.4-0.1,0.9-0.2,1.4-0.2c1.2-0.2,2.4-0.3,3.7-0.4c0.5,0,1.1,0.1,1.6,0.1c0.4,0,0.7,0,1.1,0c0.5,0,0.9-0.1,1.4-0.1
		c0.4,0,0.5-0.1,0.5-0.4s0-0.5-0.1-0.8c-0.2-1.2,0.1-2.3,0.4-3.4c0.2-0.8,0.4-1.5,0.8-2.2c0.1-0.2,0.3-0.4,0.5-0.7
		c0.3,0.5,0.6,0.9,0.9,1.4c0,0.1-0.2,0.3-0.3,0.5c-0.2,0.3-0.4,0.7-0.6,1c0,0.1,0.1,0.4,0.2,0.5c0.1,0.1,0.3-0.1,0.4-0.2
		c0.5-0.4,1-0.9,1.5-1.3c0.1-0.1,0.2-0.1,0.4-0.2c0.3-0.1,0.6-0.2,0.9-0.4c0.4-0.1,0.8-0.3,1.3-0.5c0.1,0.6,0.1,1.1,0.2,1.6
		c0.1,0.6-0.1,0.9-0.7,1.2c-0.9,0.4-1.7,0.9-2.6,1.4c-0.6,0.3-0.7,1.3-0.2,1.8c0.1,0.1,0.5,0.2,0.6,0.1c0.5-0.2,0.9-0.4,1.4-0.7
		c0.3,0.4,0.7,0.8,0.9,1.3c0.2,0.4-0.1,0.8-0.4,1.1c-0.3,0.3-0.5,0.7-0.6,1c-0.1,0.5,0,0.9,0.6,1.1c0.7,0.3,0.9,1.1,0.3,1.7
		c-0.6,0.6-0.6,1.3,0,1.9c0.3,0.3,0.2,0.7-0.2,0.8c-0.5,0.2-1,0.3-1.5,0.5c-0.2,0-0.4,0.1-0.6,0c-0.8-0.3-1.7-0.6-2-1.6
		c-0.3-0.7-0.7-1.4-1.1-2c-0.3-0.6-0.8-0.4-1.2-0.5c-1.2-0.2-2.5-0.3-3.7-0.2c-0.8,0.1-1.5,0-2.3,0c-1.4-0.1-2.8,0.1-4.2,0.5
		c-0.9,0.2-1.9,0.2-2.8,0.5c-1,0.3-2,0.7-3,1.2c-1.3,0.6-2.6,1.3-3.8,2c-1,0.6-2.1,1.3-3,2C25.9,84.1,25.4,84.8,24.8,85.5z"/>
	<path class="st2" d="M34.6,137.1c-1.1,1.3-1.8,2.7-1.7,4.3c0.2,1.7,0.8,3.2,2.4,4.1c1,0.6,2,1.4,3,2c0.7,0.4,1.6,0.5,2.4,0.8
		c0.7,0.2,1.5,0.4,2.2,0.6c1,0.3,1.9,0.7,2.9,0.9s1.9,0.3,2.9,0.4c1,0.1,2,0.2,2.9,0.3c1,0.1,2,0.2,3.1,0.4c1.4,0.2,2.7,0.6,4.1,0.8
		c0.4,0.1,0.8-0.1,1.2-0.1c0.7,0.1,1.5,0.3,2.2,0.5c1.8,0.4,3.6,0.8,5.4,1.3c1.1,0.3,2.1,0.6,3.2,0.8c0.7,0.2,1.4,0.4,2.1,0.4
		c1.6,0.1,3.3,0.3,4.9,0.3c1.3,0,2.7-0.1,4-0.3c1.1-0.1,2.1-0.1,3.2-0.3s2.3-0.5,3.4-0.8c0.4-0.1,0.8-0.2,1.2-0.3
		c0.5-0.1,1.1-0.3,1.6-0.4c-0.4,0.9-0.2,1.5,0.8,2c-1.1,0.4-2.3,0.7-3.4,1.1c-0.5,0.2-1,0.4-1.4,0.6c-1.3,0.6-2.8,0.8-4.2,1
		c-1.8,0.3-3.6,0.1-5.4-0.1c-1-0.1-1.9-0.4-2.8-0.7c-0.4-0.1-0.9-0.1-1.3-0.2c-0.9-0.1-1.8-0.1-2.7-0.2c-0.2,0-0.4-0.2-0.7-0.2
		c-1.4-0.4-2.8-0.9-4.2-1.3c-0.7-0.2-1.5-0.2-2.2-0.4c-1.8-0.5-3.7-0.7-5.6-0.8c-1.8,0-3.7-0.1-5.5-0.3c-2.2-0.2-4.4-0.9-6.5-1.3
		c-1.2-0.2-2.3-0.6-3.5-0.9c-0.4-0.1-0.7-0.4-1.1-0.5c-0.7-0.2-1.3-0.4-2-0.7s-1.4-0.6-2.1-1c-1-0.6-2-1.1-2.9-1.8
		c-0.6-0.4-1-1-1.5-1.3c-1.7-0.9-2.4-2.6-2.7-4.2c-0.3-1.7-0.2-3.5,1.2-5c0.3-0.3,0.6-0.7,0.9-1.1c0.3-0.3,0.4-0.4,0.7,0
		s0.7,0.6,1.1,0.9C34.1,136.9,34.3,137,34.6,137.1z"/>
	<path class="st4" d="M34.9,33.8c0.5-2.4,1.4-4.7,2.2-7c0.1,0,0.2,0,0.3,0c0.8,1.8,1.7,3.6,2.6,5.5c0.2-0.5,0.4-1,0.6-1.4
		c0.5-1.1,0.9-2.3,1.4-3.4c0.1-0.1,0.1-0.3,0.2-0.4c0.2-0.3,0.4-0.3,0.6,0c0.1,0.3,0.2,0.6,0.3,1c0.4,1.6,0.8,3.3,1.2,4.9
		c0,0.1,0.1,0.2,0.1,0.3c0,0.2-0.1,0.4-0.2,0.6c-0.1-0.1-0.3-0.3-0.4-0.4c-0.2-0.4-0.3-0.9-0.4-1.3c-0.2-1-0.5-2.1-0.7-3.1
		c0-0.2-0.2-0.3-0.4-0.7c-0.8,1.9-1.5,3.5-2.2,5.2c-0.1,0-0.1,0-0.2,0c-0.1-0.2-0.3-0.4-0.4-0.6c-0.7-1.5-1.3-3.1-2-4.6
		c0-0.1-0.1-0.2-0.2-0.3C36.4,29.8,36.2,32,34.9,33.8z"/>
	<path class="st4" d="M19.9,33.9c0-0.3-0.1-0.5,0-0.8c0.5-1.5,1-3,1.6-4.5c0.2-0.6,0.6-1.1,1.1-1.6c0.8-0.8,1.7-0.7,2.5,0.1
		c0.8,0.9,1.2,2,1.5,3.1c0.4,1,0.7,2.1,1.1,3.1c0.1,0.2,0,0.4,0,0.6c-0.1-0.1-0.3-0.2-0.4-0.4c-0.3-0.6-0.5-1.1-0.7-1.7
		c-0.1-0.3-0.3-0.5-0.7-0.4c-1.4,0.1-2.9,0.1-4.3,0.1c-0.6,0-0.7,0.3-0.8,0.7c-0.2,0.6-0.4,1.2-0.5,1.7C20.1,33.9,20,33.9,19.9,33.9
		z M26.1,30.9c0.1-0.1,0.1-0.2,0.2-0.3c-0.5-1-0.8-2.1-1.4-3.1s-1.6-1-2.2-0.1c-0.4,0.6-0.7,1.3-0.9,2c-0.2,0.5-0.3,1-0.6,1.6
		C22.9,31.1,24.5,31,26.1,30.9z"/>
	<path class="st4" d="M29.4,25.9c1.8-0.3,3.6-0.1,5.5-0.1c0,0.1,0,0.2,0,0.3c-0.4,0.1-0.8,0.2-1.2,0.2c-1.4,0-1.4,0-1.4,1.4
		c0,2,0.1,4,0.1,6c0,0.2-0.2,0.3-0.3,0.5c-0.1-0.2-0.3-0.4-0.3-0.5c-0.1-2.3-0.1-4.5-0.1-6.8c0-0.6-0.2-0.8-0.8-0.8
		c-0.5,0-1,0-1.4,0C29.4,26,29.4,25.9,29.4,25.9z"/>
	<path class="st3" d="M112.9,96.9c0.6-0.1,1.2,0,1.7-0.2c0.7-0.2,0.8,0.2,0.9,0.6c0.1,0.5,0.1,1.1,0.1,1.7c0,0.1-0.1,0.2-0.2,0.3
		c-0.5,0.2-1.1,0.5-1.6,0.6c-0.7,0.2-0.9,0-0.9-0.7C112.9,98.4,112.9,97.7,112.9,96.9z"/>
	<path class="st3" d="M115.4,92.6c-0.1,2-0.2,2.2-2.6,2.7c-0.1-0.6-0.2-1.1-0.2-1.7c0-0.1,0.2-0.4,0.4-0.4
		C113.8,92.9,114.6,92.8,115.4,92.6z"/>
	<path class="st3" d="M15.8,33.6c0.6,0,0.8,0.2,0.7,0.8c-0.1,0.5,0,1-0.1,1.4c0,0.8-0.1,0.8-0.9,0.6c-0.6-0.2-1.1-0.8-1-1.5
		c0.1-0.5,0.5-0.9,0.8-1.3C15.5,33.6,15.7,33.6,15.8,33.6z"/>
	<path class="st3" d="M116.2,101.3c0.1,1.1,0.2,1.1-1,1.6c-0.5,0.2-1,0.3-1.6,0.5c-0.1-0.5-0.2-0.8-0.2-1.2c0-0.1,0.2-0.3,0.3-0.4
		C114.6,101.6,115.4,101.5,116.2,101.3z"/>
	<path class="st3" d="M47.6,35.2c0-1,0-1.8,0-2.7c0-0.1,0.2-0.3,0.4-0.3c0.6-0.1,1.2,0.6,1.2,1.2C49.2,34.1,48.5,35,47.6,35.2z"/>
	<path class="st3" d="M47.9,36.9c0.9,0,1.3,0.4,1.4,1c0.1,0.6-0.4,1.3-0.9,1.4c-0.4,0.1-0.6,0-0.7-0.4c0-0.5-0.1-1-0.1-1.5
		C47.6,37.1,47.8,37,47.9,36.9z"/>
	<path class="st3" d="M16.4,38.3c0,0.7,0,1.5,0,2.2c0,0.1-0.3,0.4-0.4,0.3c-0.7-0.2-1.1-1.1-0.9-1.7C15.2,38.3,15.3,38.2,16.4,38.3z
		"/>
	<path class="st3" d="M40,29.4c-0.4-0.7-0.6-1.4-1-2.1c0.7,0,1.3,0,2.1,0C40.7,28,40.3,28.7,40,29.4z"/>
	<path class="st3" d="M39.9,54.9c0.4-0.1,0.8-0.3,1.2-0.3c0.2,0,0.4,0.4,0.6,0.6c-0.2,0.1-0.3,0.4-0.5,0.3
		C40.7,55.6,40,56,39.9,54.9z"/>
	<path class="st1" d="M32.3,6.5c-0.5-0.1-1,0.1-1.5-0.1c0-0.1,0-0.1,0-0.2C31.3,6.3,31.8,6.3,32.3,6.5C32.4,6.4,32.4,6.4,32.3,6.5z"
		/>
	<path d="M95.7,159.8c-1.3,0-2.5-2-2-3c0.2-0.4,0.8-0.5,1-0.1c0.4,0.7,0.7,1.3,1.5,1.7c0.1,0.1,0.2,0.6,0.1,0.8
		C96.1,159.5,95.8,159.7,95.7,159.8z"/>
	<path d="M36.8,37.4c-0.2,0.5-0.3,1.1-0.5,1.5c-0.3,0.6-1,0.8-1.6,0.5c-0.5-0.2-0.9-0.3-1.3,0.1c-0.5,0.4-1.1,0.5-1.7,0.1
		c-0.5-0.3-1-0.4-1.6-0.2c-0.9,0.4-1.8-0.2-2.3-1.4c-0.2-0.4-0.2-0.8-0.2-1.2c0-0.3,0.3-0.5,0.4-0.8c0.3,0.2,0.6,0.2,0.8,0.5
		c0.2,0.3,0.3,0.7,0.5,1c0.2,0.4,0.4,0.4,0.6,0c0.1-0.2,0.2-0.6,0.3-0.8c0.2-0.2,0.5-0.4,0.8-0.4c0.2,0,0.4,0.3,0.5,0.6
		s0.1,0.6,0.3,0.9c0.1,0.2,0.3,0.3,0.4,0.3s0.3-0.2,0.4-0.3c0.1-0.3,0.1-0.7,0.3-1c0.1-0.2,0.3-0.5,0.5-0.6c0.2,0,0.5,0.2,0.6,0.4
		c0.2,0.3,0.1,0.6,0.3,0.9c0.1,0.2,0.3,0.3,0.4,0.4c0.1-0.2,0.3-0.4,0.4-0.5c0-0.3-0.1-0.6-0.1-0.8s0.2-0.7,0.2-0.7
		c0.4,0,0.8,0.1,1,0.3C36.7,36.6,36.7,37,36.8,37.4z"/>
	<path d="M33.6,52.5c-0.7,0.1-1.4,0.2-2.1,0.2c-1-0.1-2.1-0.2-3.1-0.4c-0.2,0-0.4-0.1-0.6-0.1c-1.5-0.1-2.8-0.6-4.1-1.4
		c-0.2-0.1-0.5-0.1-0.6-0.3s-0.2-0.4-0.2-0.7c0.2,0,0.4-0.1,0.5-0.1c1.3,0.4,2.6,0.8,4,1.2c0.6,0.2,1.2,0.1,1.8,0.2
		c2.5,0.3,4.9,0.2,7.3-0.4c1.2-0.3,2.3-0.9,3.5-1.4c0.2-0.1,0.6-0.1,0.7,0c0.3,0.3,0,0.5-0.3,0.8c-1.2,0.9-2.5,1.5-3.9,1.8
		C35.6,52.2,34.6,52.3,33.6,52.5C33.6,52.6,33.6,52.5,33.6,52.5z"/>
	<path d="M26.1,30.9c-1.6,0.1-3.2,0.1-5,0.2c0.2-0.6,0.4-1.2,0.6-1.6c0.3-0.7,0.5-1.4,0.9-2c0.6-1,1.6-1,2.2,0.1
		c0.6,1,0.9,2,1.4,3.1C26.2,30.8,26.2,30.9,26.1,30.9z M23.5,28.1c-0.3,0.8-0.5,1.4-0.8,2.1c0.7,0,1.3,0,2,0
		C24.3,29.5,24,28.9,23.5,28.1z"/>
	<path class="st3" d="M23.5,28.1c0.4,0.8,0.8,1.4,1.2,2.1c-0.8,0-1.3,0-2,0C23,29.5,23.2,28.9,23.5,28.1z"/>
</g>
<path class="st5" d="M19.9,18.6c0.6,1.3,5.9,0.5,10.2,0.7c4.9,0.3,4.5-0.2,9.6,0c2.3,0.1,4.2,0.1,4.7-0.6c0.8-1.1-2.9-4.9-4.2-6.3
	c-2.6-2.8-6.2-3.2-7.5-3.3c-1.5-0.1-4.5-0.4-7.4,1.4C23.1,11.9,19.2,16.9,19.9,18.6z"/>
<path class="st6" d="M19.4,20.4c1.8-0.8,3.5-0.4,7.3-0.1c2.7,0.2,4.7,0.2,7.5,0.2c6.1-0.1,0.5,0.3,6.9,0.2c3.2-0.1,1.9-0.4,3.2-0.1
	c0.6,0.1,2.9,0.7,3.7,2.6c0.2,0.4,0.6,1.3,0.2,2c-0.5,0.7-1.6,0.6-5.4,0.3c-5-0.4-4.9-0.4-5.4-0.4c-3.5-0.4-3.6-0.7-5.4-0.7
	c-2.2,0-1.9,0.3-4.8,0.4c-3.3,0.1-3.5-0.4-5.4,0c-1.5,0.3-2.2,0.8-3,0.3c-0.8-0.4-1.3-1.5-1.2-2.4C17.6,21.3,19.3,20.5,19.4,20.4z"
	/>
<path class="st7" d="M22.6,37.3c1,0.1,1,1.8,2.6,3.6c0,0,0.9,1.1,2.4,1.9c3,1.7,7.9,1.8,10-0.6c0.5-0.6,0.9-1.3,2.7-3.5
	c0.4-0.5,0.9-1.1,1.7-1.3c0.7-0.2,1.8-0.1,2.2,0.5c0.5,0.7-0.2,2-1.4,4.1c-0.6,1-1,1.8-1.6,2.6c-2.9,3.5-8.2,3.8-9.8,3.8
	c-2,0.1-4.7,0.2-7.2-1.4c-0.5-0.3-1.9-1.3-2.9-3.1c-0.5-0.9-1.6-3-0.8-4.8C20.9,38.3,21.8,37.2,22.6,37.3z"/>
<path class="st8" d="M22.3,40.8c0.4,1,1.4,2.6,3.2,3.9c0.4,0.3,1.4,1,3,1.4c2.1,0.6,3.9,0.4,4.5,0.3c2.3-0.3,3.8-1.4,5-2.2
	c1-0.7,2.3-1.8,3.7-3.5"/>
<path class="st9" d="M73.4,15.8c0.2,1.2-0.5,2.2-1.3,1.9c-0.1,0.7-0.7,0.9-1.1,0.5c-0.6-0.6-1.3-1.1-1.7-1.9
	c-0.5-1.1-1.1-2.2-1.7-3.3c-0.5-0.8-0.5-1.7,0.7-2.1c0.1,0,0.1-0.1,0.2-0.2c0.2-0.1,0.5-0.3,0.6-0.2c0.9,0.5,1.8,1,2.7,1.5
	c0,0,0,0.1,0.1,0.2c0.1-0.6-0.4-1-0.6-1.5c-0.1-0.2-0.3-0.3-0.4-0.5c-0.4-0.6-0.2-1.2,0.4-1.5c0.5-0.3,1.1-0.5,1.6-0.7s1,0,1.3,0.5
	c0.5,0.9,1.1,1.9,1.7,2.8c0.1,0.1,0.2,0.2,0.3,0.4c0.2,0.2,0.6,0.4,0.7,0.7c0.2,0.5,0.4,1.1,0.5,1.6c0,0.1,0,0.4-0.1,0.5
	c-0.6,0.5-1.1,1.1-1.8,1.5c-0.3,0.2-0.9,0-1.3,0C74,16,73.7,15.9,73.4,15.8z"/>
<path class="st9" d="M79.8,7.3c0.5-0.7,0.9-1.3,1.4-1.9c0.3-0.4,0.6-0.7,1-0.9c0.5-0.4,1,0,1.4,0.2C84.8,5.5,84.9,6,84.3,7
	c-0.3,0.5-0.5,1.1-0.8,1.6c0.6,0.4,1.1,0.7,1.6,1c0.1,0.1,0.2,0.2,0.3,0.3c0.7,0.9,0.7,1.4-0.2,2.1c-0.3,0.2-0.6,0.5-0.9,0.6
	c-0.4,0.2-0.8,0.3-1.2-0.1c-0.1-0.1-0.3-0.2-0.5-0.4c0.1,0.9-0.5,1-1.1,1.2c-0.2,0.1-0.4,0.1-0.6,0.2c-1.1,0.4-2.4-0.1-2.9-1.1
	c-0.6-1.4-1.2-2.7-1.8-4.1c-0.2-0.5,0-0.7,0.2-1c0.4-0.6,0.9-0.9,1.5-1.1c0.9-0.3,1.3-0.1,1.6,0.8C79.7,7.1,79.8,7.2,79.8,7.3z"/>
<path class="st9" d="M68.5,18.5c0.1,1.7-1.1,2.2-2.2,2.9c-0.9,0.5-1.7,1.1-2.4,1.8c-0.4,0.3-1,0.4-1.3,0c-0.4-0.4-0.7-0.9-1-1.4
	c-0.2-0.4-0.1-0.7,0.3-1c1-0.8,1-0.8,0.3-1.8c-0.2-0.3-0.5-0.4-0.8-0.2c-0.3,0.2-0.6,0.5-0.9,0.7c-0.4,0.3-0.7,0.2-1-0.2
	c-0.3-0.4-0.6-0.9-0.8-1.3c-0.1-0.2-0.1-0.5,0-0.7c1.6-1.6,3.3-2.8,5.3-3.9c0.4-0.2,0.8-0.2,1.1,0.2c0.3,0.3,0.6,0.6,0.8,0.9
	c0.4,0.6,0.2,1.3-0.6,1.7c-0.2,0.1-0.5,0.2-0.3,0.5c0.3,0.3,0.2,1,0.9,0.7c0.1-0.1,0.3-0.2,0.4-0.2c0.8-0.4,1.2-0.3,1.7,0.5
	C68.3,17.9,68.5,18.3,68.5,18.5z"/>
<path class="st9" d="M92.8,6.4c0.7,1.1,0.6,2.3,0.5,3.5c-0.2,1.3-1.8,2.4-3.1,2.3c-0.8-0.1-1.6-0.2-2.4-0.4
	c-0.4-0.1-0.9-0.4-1.2-0.7c-0.5-0.5-0.2-2.7,0.4-3c0.5-0.3,1.1-0.2,1.3,0.4c0.2,0.4,0.5,0.6,0.9,0.7c0.3,0,0.5-0.2,0.8-0.3
	c-0.2-0.2-0.3-0.6-0.5-0.7C89,8,88.5,7.9,88,7.8c-0.9-0.3-1.7-0.8-1.6-1.7c0-0.4,0.2-0.9,0.5-1.3c0.7-0.9,1.6-1.5,2.8-1.2
	c0.1,0,0.2,0,0.3,0c1.1-0.4,2,0.1,2.9,0.6C93.8,4.5,93.6,5.9,92.8,6.4z"/>
<path class="st9" d="M57,23.3c0.2-0.3,0.4-0.5,0.6-0.8c0.5-0.7,1.2-1,2-1.1c0.4-0.1,0.6,0.1,0.8,0.5c0.1,0.2,0.1,0.5,0.2,0.7
	c0.5,1.1,0.4,2-0.8,3.1c-0.7,0.7-1.4,1.5-2.1,2.1c-0.4,0.3-0.8,0.6-1.3,0.9s-1,0.1-1.3-0.4c-0.6-0.9-1.2-1.9-1.8-2.9
	c-0.5-0.8-1-1.7-1.5-2.5c-0.3-0.5-0.2-1,0.1-1.2c0.6-0.6,1.2-1.1,1.9-1.5c0.6-0.4,1.1-0.1,1.5,0.4s0.6,1.1,1,1.7
	C56.5,22.6,56.7,22.9,57,23.3C56.8,23.2,56.9,23.2,57,23.3z"/>
</svg>
