<svg xmlns="http://www.w3.org/2000/svg" viewBox="0 0 119.6 335.27"><defs><style>.cls-1,.cls-10,.cls-2,.cls-8{fill:#93baec;}.cls-1,.cls-2,.cls-3,.cls-5,.cls-6,.cls-7,.cls-8{stroke:#000;}.cls-1,.cls-10,.cls-2,.cls-3,.cls-4,.cls-5,.cls-6,.cls-7,.cls-8,.cls-9{stroke-miterlimit:10;}.cls-1,.cls-5,.cls-6,.cls-7,.cls-8{stroke-width:3px;}.cls-10,.cls-2,.cls-4,.cls-5,.cls-6,.cls-7,.cls-8,.cls-9{stroke-linecap:round;}.cls-10,.cls-2,.cls-4{stroke-width:2px;}.cls-3,.cls-4,.cls-7,.cls-9{fill:none;}.cls-10,.cls-4{stroke:#fff;}.cls-5{fill:#e2c270;}.cls-6{fill:#c95500;}.cls-9{stroke:#f2ddaa;stroke-width:7px;}</style></defs><g id="Layer_2" data-name="Layer 2"><g id="Layer_1-2" data-name="Layer 1"><polygon class="cls-1" points="60.39 301.86 39.12 273.6 47.12 99.99 59.8 99.99 74.69 99.99 80.53 273.86 60.39 301.86"/><line class="cls-2" x1="59.9" y1="267.48" x2="59.9" y2="99.99"/><polygon class="cls-3" points="53.5 99.99 49.07 273.94 60.39 290.96 70.52 273.94 67.12 99.99 53.5 99.99"/><polyline class="cls-4" points="52.53 273.86 60.15 285.86 67.06 273.86"/><polyline class="cls-4" points="44 272.65 60.35 295.74 75.6 273.48"/><line class="cls-4" x1="50.48" y1="102.51" x2="48.3" y2="157.82"/><line class="cls-4" x1="70.53" y1="102.48" x2="71.88" y2="157.82"/><line class="cls-4" x1="56.28" y1="102.5" x2="55.12" y2="175.35"/><line class="cls-4" x1="63.95" y1="102.49" x2="64.48" y2="175.35"/><rect class="cls-5" x="1.5" y="88.82" width="116.6" height="10.33" rx="5.16"/><circle class="cls-1" cx="59.9" cy="12.38" r="10.88"/><rect class="cls-6" x="50.75" y="21.73" width="18.31" height="66.26" rx="3.12"/><line class="cls-7" x1="50.75" y1="31.82" x2="69.06" y2="45.35"/><line class="cls-7" x1="50.75" y1="49.43" x2="69.06" y2="62.96"/><line class="cls-7" x1="50.75" y1="66.02" x2="69.06" y2="79.55"/><line class="cls-7" x1="57.75" y1="21.73" x2="68.95" y2="29.09"/><line class="cls-7" x1="51.48" y1="81.46" x2="62.69" y2="88.82"/><rect class="cls-5" x="43.31" y="10.82" width="33.19" height="10.33" rx="5.16"/><line class="cls-5" x1="8.61" y1="275.01" x2="30.5" y2="275.01"/><line class="cls-5" x1="90.5" y1="275.01" x2="112.39" y2="275.01"/><line class="cls-8" x1="60.39" y1="312.5" x2="60.39" y2="333.77"/><line class="cls-5" x1="23.99" y1="308.66" x2="41.15" y2="295.06"/><line class="cls-5" x1="95.39" y1="309.56" x2="79.71" y2="294.27"/><line class="cls-9" x1="51.7" y1="15.99" x2="48.54" y2="15.99"/><line class="cls-9" x1="71.41" y1="15.99" x2="68.25" y2="15.99"/><path class="cls-10" d="M54.81,7.47s5-5.69,10.15,0"/><line class="cls-9" x1="33.42" y1="93.99" x2="7.26" y2="93.99"/><line class="cls-9" x1="113.53" y1="93.99" x2="87.37" y2="93.99"/></g></g></svg>