
<svg version="1.1" id="Layer_1" xmlns="http://www.w3.org/2000/svg" xmlns:xlink="http://www.w3.org/1999/xlink" x="0px" y="0px"
	 viewBox="0 0 57 61.8" style="enable-background:new 0 0 57 61.8;" xml:space="preserve">
<g>
	<path d="M6.9,14.2c0.2,0.2,0.4,0.4,0.6,0.5c0.1,0,0.2-0.1,0.4-0.2c-0.1-0.2-0.3-0.5-0.4-0.7c-0.1,0-0.1,0-0.2-0.1
		c0.6-0.6,1.3-1.2,1.9-1.8c0.1-0.1,0.1-0.1,0.2-0.2c0.8-1.1,1.9-1.9,3-2.6c0.3-0.2,0.4-0.6,0.6-0.8c0.6-0.5,1.3-0.9,1.9-1.4
		c0.4-0.3,0.8-0.7,1.3-1c0.3-0.2,0.8-0.3,1.1-0.5c0.5-0.4,0.9-0.8,1.3-1.3c0.2-0.3,0.5-0.4,0.9-0.6c0.7-0.2,1.5-0.3,2.2-0.4
		c1.3-0.1,2.5-0.6,3.8-0.6c1,0,2-0.3,3,0.3c0.2,0.1,0.5-0.2,0.8-0.1C30,3,30.7,3.2,31.4,3.5c0.9,0.4,1.8,0.8,2.7,1.3
		c0.9,0.5,1.6,1.2,2.3,2c0.3,0.4,0.9,0.5,1.4,0.7c1.6,0.7,3.2,1.2,4.7,1.9c0.7,0.4,1.3,1.2,1.8,1.8c0.5,0.5,0.7,1.3,1.3,1.8
		c0.3,0.3,0.5,0.7,0.8,1.1c0.8,1.2,1.8,2.2,2.8,3.2c0.7,0.7,1.2,1.7,1.3,2.8c0.1,0.8,0.4,1.6,0.6,2.3c0.2,1.4,0.4,2.7,0.6,4.1
		c0.1,0.6,0.3,1.1,0.4,1.7c0,0.2,0.1,0.4,0.1,0.6c0.1,0.2,0.3,0.4,0.3,0.5c0,1,0,2-0.1,3c-0.1,1.1,0.2,2.2-0.3,3.2
		c-0.1,0.2-0.1,0.5-0.1,0.8c-0.4,1.5-0.7,3-1.2,4.5c-0.6,1.6-1.3,3-2.4,4.3c-0.7,0.8-1.4,1.7-2.1,2.6c-0.4,0.5-0.6,1-0.9,1.5
		c-0.7,1-1.5,1.9-2.5,2.7c-0.9,0.7-1.8,1.4-2.8,2c-1.2,0.7-2.3,1.5-3.7,1.9c-1.1,0.3-2.2,0.7-3.3,1c-0.3,0.1-0.6,0-0.9,0
		c-0.4,0-0.7,0.1-1.1,0.2c-0.9,0.4-1.8-0.1-2.6-0.1c-0.1,0-0.2-0.1-0.3-0.2c-0.5,0.6-1.1,0.2-1.6,0c-1-0.3-1.9-0.8-2.9-1.2
		c-1.3-0.4-2.6-0.7-4-1.1c-0.7-0.2-1.5-0.5-2.2-0.6c-1.7-0.1-3.1-0.9-4.5-1.8c-1.2-0.7-2.2-1.7-3.2-2.6c-0.5-0.5-0.9-1.2-1.4-1.8
		c-0.4-0.5-0.8-1-1.2-1.5c-0.3-0.5-0.5-1-0.7-1.5c-0.4-1-0.8-2-1.2-2.9c-0.5-1.2-1.1-2.3-1.7-3.4c-0.6-1.2-1-2.5-1.4-3.9
		c-0.5-1.8-0.2-3.7,0-5.5c0-0.5,0-1,0.2-1.4c0.5-0.8,0.5-1.8,0.8-2.7c0.1-0.4,0-0.9,0.1-1.4c0.1-0.4,0.3-0.7,0.4-1.1
		c0.2-1.1,0.4-2.2,0.7-3.3c0.4-1.5,1.1-2.8,2-4.1C6.6,14.8,6.8,14.5,6.9,14.2z M23,25.3c0.2,0,0.5,0.1,0.7,0.1
		c0.5,0,0.9-0.1,1.4-0.1c0.3,0,0.6,0.2,0.8,0.2c0.7,0,1.4-0.2,2.2-0.2c0.4,0,0.9,0.1,1.3,0c0.3,0,0.6-0.2,0.8-0.3
		c-0.7-0.3-0.4-0.9-0.6-1.3c-0.1-0.4-0.1-0.9-0.1-1.3c0,0-0.1,0-0.2,0.1c-0.1-0.4-0.1-0.7-0.2-1.1c-0.1-0.6-0.2-1.2-0.4-1.8
		c-0.2-0.6-0.4-1.1-0.6-1.7c0-0.1-0.2-0.2-0.3-0.2c-0.6,0-1.2,0.1-1.8,0.1c-0.4,0-0.7-0.1-1.1-0.3c-0.2-0.1-0.3-0.3-0.4-0.4
		c-0.1,0.2-0.3,0.4-0.4,0.6c-0.2,1-0.4,2.1-0.6,3.1C23.4,22.3,23.2,23.7,23,25.3z M24.2,40.8c0.5,0,1.1,0,1.7,0c0.6,0,1.2,0.1,1.8,0
		c0.6-0.1,1,0.4,1.6,0.3c0.8-0.1,1.5,0,2.3,0c0.2-1.7,0.3-3.4,0.2-5c-0.3,0-0.4,0.1-0.5,0.1c-0.5,0-1.1-0.1-1.6-0.1
		c-0.8,0-1.6,0-2.4,0.1c-1.2,0.1-2.4,0.1-3.6,0.2c-0.2,0-0.4,0.3-0.4,0.4c0.1,0.8,0.2,1.5,0.4,2.3C23.8,39.7,24,40.2,24.2,40.8z
		 M32.9,16.5c-1.1,0-1.4,0.3-0.9,1.2c0.1,0.1,0.1,0.2,0.1,0.3c0.1,1,0.4,1.9,0.5,2.8c0.2,1.1,0.4,2.2,0.8,3.3
		c0.1,0.2,0.3,0.4,0.4,0.4c0.8-0.2,1.6-0.4,2.4-0.6c0.4-0.1,0.7-0.4,1.1-0.5c0.6-0.1,1-0.5,0.9-1.1c-0.1-0.4-0.3-0.7-0.5-1.1
		c-0.4-1.2-0.8-2.5-1.2-3.7c0,0-0.1-0.1-0.1-0.1c-0.3-0.4-0.7-0.7-0.9-1.1c-0.3-0.4-0.7-0.5-1.2-0.3C33.8,16.2,33.3,16.3,32.9,16.5z
		 M10.3,31.9c0-0.7-0.1-1.3,0-1.9c0.2-0.8,0.4-1.6,0.3-2.4c0-0.2,0.1-0.4,0.1-0.6c0.1-0.8,0.5-1.7-0.1-2.4c-0.4-0.1-0.6-0.2-0.8-0.3
		c-0.2-0.1-0.4-0.3-0.6-0.3c-0.7-0.2-1.3-0.4-1.5-1.2c-0.2,0.2-0.4,0.3-0.5,0.4c-0.2,0.6-0.4,1.3-0.6,2c-0.2,0.9-0.6,1.7-0.6,2.6
		C6.1,27.8,6,28,6,28.2c-0.1,0.8-0.3,1.5-0.4,2.3c0,0.2,0.3,0.5,0.5,0.5c0.6,0.2,1.3,0.4,2,0.6c0.3,0.1,0.5,0.4,0.8,0.4
		C9.3,32.1,9.7,32,10.3,31.9z M20.6,41c-0.1-0.3-0.3-0.4-0.3-0.6c-0.1-0.3,0-0.5-0.1-0.8C20.1,39,20,38.5,20,37.9
		c0-0.9-0.7-1.7-1.4-1.7c-0.2,0-0.3,0.1-0.5,0.2c-1.1,0.5-2-0.2-3-0.4c-0.4-0.1-0.8-0.3-1.2-0.4c-0.3-0.1-0.5,0-0.5,0.4
		c0,0.5,0,1-0.1,1.5c-0.2,1.1,0.1,2.3,0.2,3.4c0.1,0.5,0.5,0.8,1.1,0.9c0.5,0,0.9-0.5,1.4,0c0,0,0.1,0,0.1,0c0.7-0.1,1.3-0.3,2-0.4
		C18.9,41.2,19.7,41.1,20.6,41z M41.8,41c-0.2-0.3-0.3-0.6-0.4-0.8c-0.1-0.4-0.1-0.8-0.2-1.2c-0.3-1-0.2-2-0.1-3
		c0.1-0.7-0.4-1.1-1.1-0.9c-0.4,0.1-0.9,0.3-1.4,0.3c-0.9,0.1-1.8,0.2-2.6,0.3c-0.5,0.1-0.7,0.3-0.7,0.8c0,1.2-0.1,2.4-0.2,3.5
		c0,0.5,0.2,0.8,0.8,0.8c0.4,0,0.8-0.1,1.2,0c1.1,0.1,2.2,0.3,3.4,0.5C41,41.4,41.5,41.2,41.8,41z M22.9,32.8c1.1-0.1,2.1-0.2,3-0.2
		c0.4,0,0.7,0.2,1.1,0.2c1.4-0.1,2.8-0.2,4.1-0.2c0.4,0,0.5-0.2,0.5-0.5c-0.1-0.8-0.3-1.6-0.5-2.5c-0.2-0.9-0.3-0.9-1.2-0.9
		c-1,0.1-2,0.2-3,0.2c-1.2,0.1-2.4,0.1-3.6,0.1c-0.1,0-0.4,0.2-0.4,0.3C22.9,30.5,22.9,31.7,22.9,32.8z M47.3,29.5
		C47.3,29.5,47.3,29.5,47.3,29.5c0.2-0.1,0.5-0.2,0.7-0.2c0.4,0,0.6-0.1,0.4-0.6c-0.2-0.7-0.4-1.5-0.6-2.2c-0.1-0.8-0.1-1.6-0.2-2.5
		c-0.6-0.7-0.5-1.8-0.9-2.7c-0.6,0.6-1.2,1.1-1.8,1.6c-0.6,0.5-1.2,0.8-1.8,1.2c-0.3,0.2-0.5,0.5-0.2,0.9c0.4,0.6,0.4,1.3,0.5,1.9
		c0,0.2-0.1,0.5-0.1,0.7c1,0.6,0.3,1.9,0.8,2.7c0.6-0.2,1.2-0.3,1.8-0.5c0,0,0.1,0.1,0.2,0.2c0-0.1,0-0.1,0-0.2
		C46.6,29.8,46.9,29.7,47.3,29.5z M17,16.4c0,0.1-0.2,0.2-0.2,0.4c-0.5,1.8-1,3.5-1.5,5.3c-0.1,0.5,0.1,0.7,0.5,1
		c0.4,0.2,0.8,0.6,1.2,0.7c0.6,0.3,1.2,0.5,1.8,0.7c0.5,0.1,0.7-0.2,0.7-0.6c0-0.4,0-0.8,0.1-1.2c0.1-0.7,0.4-1.4,0.5-2.1
		c0.2-1.1,0.3-2.2,0.4-3.2C19.3,17.1,18.2,16.7,17,16.4z M41.6,21.1c1.3-1.1,2.6-2.2,4.5-1.8c0-0.1-0.1-0.2-0.1-0.2
		c-0.9-0.9-1.9-1.7-2.5-2.9c-0.2-0.3-0.5-0.6-0.7-0.9c-0.5-0.7-1.3-1.3-1.6-2.2c0-0.1-0.1-0.2-0.2-0.3c-0.6-0.4-1.2-0.8-1.9-1.1
		c-0.3-0.2-0.5,0-0.5,0.4c0,0.4-0.1,0.9-0.3,1.3c-0.1,0.3-0.2,0.5,0.1,0.8c0.4,0.3,0.6,0.8,0.9,1.1c1,1.1,1,2.5,1.6,3.7
		C41.2,19.8,41.4,20.4,41.6,21.1z M40.5,45.1c-1.4-0.2-2.8-0.5-4.1-0.7c-0.5-0.1-1,0.3-1,0.7c0,0.8-0.2,1.6,0.2,2.3
		c0,0.1,0,0.2,0,0.3c0,0.7,0,1.5,0,2.2c0,0.1,0.2,0.3,0.4,0.4c0.4,0.1,0.9,0.2,1.4,0.1c0.7,0,1.4,0.3,1.9-0.3
		c0.3-0.4,0.6-0.9,0.8-1.4C40.4,47.6,40.8,46.4,40.5,45.1z M19.2,32.9c0.1-0.8,0.1-1.6,0.2-2.4c0-0.1,0-0.1,0-0.2
		c0-0.4-0.1-0.9,0-1.3c0-0.4-0.1-0.6-0.5-0.7c-1.3-0.4-2.7-0.7-3.8-1.6c-0.2-0.1-0.4-0.2-0.7-0.3c-0.1,0.5-0.2,1-0.2,1.4
		c-0.1,1.2-0.3,2.4-0.4,3.6c-0.1,0.4,0.2,0.7,0.7,0.8c0.4,0.1,0.7,0.1,1.1,0.2C16.7,32.8,18,33.1,19.2,32.9z M35.5,32.3
		c0.2,0,0.4-0.1,0.6-0.1c0.6-0.1,1.2-0.1,1.7-0.2c0.7-0.1,1.4-0.3,2.1-0.4c0.4-0.1,0.6-0.2,0.6-0.7c0-0.3-0.1-0.6-0.1-0.9
		c-0.2-1.1-0.4-2.2-0.6-3.3c0-0.1-0.3-0.3-0.5-0.3c-0.6,0.1-1.2,0.2-1.7,0.5c-0.7,0.4-1.5,0.6-2.3,0.7c-0.4,0-0.8,0.2-0.7,0.7
		c0.1,0.4,0.2,0.8,0.3,1.2C35,30.5,35.3,31.4,35.5,32.3z M48.7,32.7c-1.1,0.3-2,0.5-2.8,0.8c-1.2,0.5-1.4,0.2-1.3,1.7
		c0.1,1,0.1,1.9,0.2,2.9c0,0.4-0.2,0.8-0.1,1.1c0.2,0.7,0.1,1.5,0.1,2.2c0,0.2,0.1,0.4,0.3,0.5c0.6,0.4,1.1,0.2,1.4-0.5
		c0.3-0.8,0.6-1.6,0.9-2.4c0.2-0.4,0.4-0.8,0.4-1.3c0.2-1.2,0.4-2.4,0.6-3.7C48.6,33.8,48.6,33.3,48.7,32.7z M24.6,44.2
		c0,0.4,0,0.6,0.1,0.9c0.3,0.8,0.5,1.6,0.8,2.3c0.2,0.4,0.5,0.8,1.1,0.8c0.9,0,1.8,0.2,2.7,0.3c0.8,0.1,1.5,0.3,2.3,0.4
		c0.1,0,0.3-0.2,0.3-0.3c0-1.2-0.1-2.3-0.2-3.5c0-0.1-0.2-0.4-0.4-0.4c-0.8-0.1-1.5-0.1-2.3-0.1C27.6,44.5,26.2,44.4,24.6,44.2z
		 M12.8,13.3c-0.4,0.4-0.6,0.7-0.8,1c-0.2,0.2-0.5,0.3-0.7,0.5c-0.4,0.4-0.7,0.8-1,1.2c-0.6,0.7-1.2,1.5-1.8,2.2
		c-0.3,0.4-0.2,0.7,0.2,1c0.3,0.2,0.6,0.5,0.8,0.8c0.6,0.8,1.4,1.1,2.4,1.1c0.1-0.3,0.1-0.6,0.2-0.9c0.2-0.9,0.5-1.7,0.7-2.6
		c0.2-0.8,0.3-1.6,0.8-2.4c0.5-0.8,0.5-0.6-0.2-1.4C13.2,13.8,13,13.6,12.8,13.3z M16.2,45.2c0,0.3,0,0.6,0.1,0.9
		c0.3,0.7,0.6,1.4,1,2c0.6,0.9,1.5,1.2,2.5,1.1c0.6-0.1,1.2,0,1.7-0.1c0.2,0,0.6-0.1,0.7-0.3c0.1-0.2,0-0.5-0.1-0.8
		c-0.1-0.3-0.4-0.6-0.5-0.9c-0.2-0.6-0.3-1.3-0.5-1.9c-0.1-0.4-0.2-0.6-0.7-0.5C19,44.8,17.7,45,16.2,45.2z M9.8,35.6
		c-0.5-0.1-0.8-0.1-1.1-0.1c-0.6-0.2-1.2-0.3-1.8-0.5c-0.2-0.1-0.4-0.2-0.7-0.3c0,0.1-0.1,0.1-0.1,0.2c0.3,0.7,0.5,1.5,0.8,2.2
		c0.3,0.7,0.6,1.4,0.9,2.1c0.4,0.9,0.8,1.9,1.2,2.8c0.1,0.2,0.4,0.3,0.6,0.4c0.1-0.2,0.2-0.5,0.2-0.7c0-0.9-0.1-1.8-0.2-2.8
		C9.7,37.8,9.8,36.6,9.8,35.6z M29.4,8.1C29.3,8,29.1,7.9,29,7.8c-0.1-0.2-0.2-0.5-0.1-0.7c0.1-0.4-0.1-0.5-0.4-0.5
		c-0.3,0-0.8-0.4-0.8,0.3c0,0.7,0,1.6,0.4,2.2c0.7,1,0.9,2,1.5,3c0.3,0.5,0.5,1,0.7,1.5c0-0.1,0.1-0.1,0.1-0.2c0.3,0,0.8,0.1,0.9,0
		c0.3-0.4,0.7-0.2,1-0.4c0.5-0.2,0.5-0.4,0.2-0.9c-0.7-0.8-1.4-1.5-2-2.3c-0.1-0.1-0.1-0.3-0.2-0.5C29.6,9.2,29.4,8.8,29.4,8.1z
		 M21.6,13.8c0.4-1.4,0.9-2.9,1.3-4.3c0,0-0.1-0.1-0.1-0.1c-0.2,0.1-0.4,0.2-0.5,0.4c-0.9,0.9-1.8,1.8-2.7,2.7
		c-0.2,0.2-0.5,0.7-0.4,0.8c0.2,0.2,0.6,0.4,0.9,0.5C20.6,13.9,21.1,13.8,21.6,13.8z M30.3,53.6c0,0,0-0.1,0-0.1
		c0.4-0.1,0.8-0.1,1.2-0.2c0.1,0,0.2-0.5,0.2-0.5c-0.3-0.2-0.6-0.4-0.9-0.4c-0.6-0.2-1.3-0.2-1.9-0.3c-0.2,0-0.4-0.1-0.5-0.1
		c-0.5,0.1-0.6,0.5-0.7,0.9c0,0.1,0.3,0.4,0.6,0.4C28.8,53.4,29.5,53.5,30.3,53.6z M17.7,9.2c-0.8,0.1-1.4,0.4-1.9,0.9
		c-0.5,0.6-0.4,1,0.3,1.3c0.4-0.5,0.7-1,1.1-1.5c0,0,0.1-0.1,0.1-0.1C17.9,10,17.8,9.6,17.7,9.2z M12,45.5c-0.2,0.3-0.5,0.6-0.5,0.7
		c0.3,0.4,0.7,0.7,1,1.1c0.1-0.1,0.1-0.1,0.2-0.2C12.6,46.6,12.4,46.2,12,45.5z M26.1,12.8c-0.1,0-0.2,0-0.3,0
		c0,0.4-0.1,0.9-0.1,1.4c0.5-0.1,0.8-0.2,1-0.2C26.5,13.6,26.3,13.2,26.1,12.8z"/>
</g>
</svg>
